<svg xmlns="http://www.w3.org/2000/svg" xmlns:xlink="http://www.w3.org/1999/xlink" contentStyleType="text/css" height="590px" preserveAspectRatio="none" style="width:636px;height:590px;background:#FFFFFF;" version="1.1" viewBox="0 0 636 590" width="636px" zoomAndPan="magnify"><title>MOV Instruction Execution</title><defs/><g><text fill="#000000" font-family="sans-serif" font-size="14" font-weight="bold" lengthAdjust="spacing" textLength="178.9033" x="228.5259" y="29.5332">MOV Instruction Execution</text><rect fill="none" height="187.9453" style="stroke:#000000;stroke-width:1.5;" width="457.7646" x="110.4668" y="302.9766"/><rect fill="none" height="48.7031" style="stroke:#000000;stroke-width:1.5;" width="312.0474" x="246.1841" y="358.6797"/><line style="stroke:#181818;stroke-width:0.5;stroke-dasharray:5.0,5.0;" x1="22" x2="22" y1="121.2188" y2="507.9219"/><line style="stroke:#181818;stroke-width:0.5;stroke-dasharray:5.0,5.0;" x1="155.4668" x2="155.4668" y1="121.2188" y2="507.9219"/><line style="stroke:#181818;stroke-width:0.5;stroke-dasharray:5.0,5.0;" x1="350.1841" x2="350.1841" y1="121.2188" y2="507.9219"/><line style="stroke:#181818;stroke-width:0.5;stroke-dasharray:5.0,5.0;" x1="516.1973" x2="516.1973" y1="121.2188" y2="507.9219"/><text fill="#000000" font-family="sans-serif" font-size="14" lengthAdjust="spacing" textLength="29.5586" x="5" y="118.1426">User</text><ellipse cx="22.7793" cy="52.1094" fill="#E2E2F0" rx="8" ry="8" style="stroke:#181818;stroke-width:0.5;"/><path d="M22.7793,60.1094 L22.7793,87.1094 M9.7793,68.1094 L35.7793,68.1094 M22.7793,87.1094 L9.7793,102.1094 M22.7793,87.1094 L35.7793,102.1094 " fill="none" style="stroke:#181818;stroke-width:0.5;"/><text fill="#000000" font-family="sans-serif" font-size="14" lengthAdjust="spacing" textLength="29.5586" x="5" y="521.4551">User</text><ellipse cx="22.7793" cy="533.0313" fill="#E2E2F0" rx="8" ry="8" style="stroke:#181818;stroke-width:0.5;"/><path d="M22.7793,541.0313 L22.7793,568.0313 M9.7793,549.0313 L35.7793,549.0313 M22.7793,568.0313 L9.7793,583.0313 M22.7793,568.0313 L35.7793,583.0313 " fill="none" style="stroke:#181818;stroke-width:0.5;"/><rect fill="#E2E2F0" height="31.6094" rx="2.5" ry="2.5" style="stroke:#181818;stroke-width:0.5;" width="70.8066" x="120.4668" y="88.6094"/><text fill="#000000" font-family="sans-serif" font-size="14" lengthAdjust="spacing" textLength="56.8066" x="127.4668" y="110.1426">main.cpp</text><rect fill="#E2E2F0" height="31.6094" rx="2.5" ry="2.5" style="stroke:#181818;stroke-width:0.5;" width="70.8066" x="120.4668" y="506.9219"/><text fill="#000000" font-family="sans-serif" font-size="14" lengthAdjust="spacing" textLength="56.8066" x="127.4668" y="528.4551">main.cpp</text><rect fill="#E2E2F0" height="31.6094" rx="2.5" ry="2.5" style="stroke:#181818;stroke-width:0.5;" width="189.8408" x="256.1841" y="88.6094"/><text fill="#000000" font-family="sans-serif" font-size="14" lengthAdjust="spacing" textLength="175.8408" x="263.1841" y="110.1426">ARM_instructions_MOV.cpp</text><rect fill="#E2E2F0" height="31.6094" rx="2.5" ry="2.5" style="stroke:#181818;stroke-width:0.5;" width="189.8408" x="256.1841" y="506.9219"/><text fill="#000000" font-family="sans-serif" font-size="14" lengthAdjust="spacing" textLength="175.8408" x="263.1841" y="528.4551">ARM_instructions_MOV.cpp</text><rect fill="#E2E2F0" height="31.6094" rx="2.5" ry="2.5" style="stroke:#181818;stroke-width:0.5;" width="63.0342" x="485.1973" y="88.6094"/><text fill="#000000" font-family="sans-serif" font-size="14" lengthAdjust="spacing" textLength="49.0342" x="492.1973" y="110.1426">cpu.cpp</text><rect fill="#E2E2F0" height="31.6094" rx="2.5" ry="2.5" style="stroke:#181818;stroke-width:0.5;" width="63.0342" x="485.1973" y="506.9219"/><text fill="#000000" font-family="sans-serif" font-size="14" lengthAdjust="spacing" textLength="49.0342" x="492.1973" y="528.4551">cpu.cpp</text><polygon fill="#181818" points="143.8701,149.5703,153.8701,153.5703,143.8701,157.5703,147.8701,153.5703" style="stroke:#181818;stroke-width:1.0;"/><line style="stroke:#181818;stroke-width:1.0;" x1="22.7793" x2="149.8701" y1="153.5703" y2="153.5703"/><text fill="#000000" font-family="sans-serif" font-size="13" lengthAdjust="spacing" textLength="109.0908" x="29.7793" y="148.7139">Execute MOV Test</text><polygon fill="#181818" points="339.1045,179.9219,349.1045,183.9219,339.1045,187.9219,343.1045,183.9219" style="stroke:#181818;stroke-width:1.0;"/><line style="stroke:#181818;stroke-width:1.0;" x1="155.8701" x2="345.1045" y1="183.9219" y2="183.9219"/><text fill="#000000" font-family="sans-serif" font-size="13" lengthAdjust="spacing" textLength="171.2344" x="162.8701" y="179.0654">executeMOV(cpu, instruction)</text><polygon fill="#181818" points="504.7144,210.2734,514.7144,214.2734,504.7144,218.2734,508.7144,214.2734" style="stroke:#181818;stroke-width:1.0;"/><line style="stroke:#181818;stroke-width:1.0;" x1="351.1045" x2="510.7144" y1="214.2734" y2="214.2734"/><text fill="#000000" font-family="sans-serif" font-size="13" lengthAdjust="spacing" textLength="125.7344" x="358.1045" y="209.417">checkCondition(cond)</text><line style="stroke:#181818;stroke-width:1.0;" x1="516.7144" x2="558.7144" y1="244.625" y2="244.625"/><line style="stroke:#181818;stroke-width:1.0;" x1="558.7144" x2="558.7144" y1="244.625" y2="257.625"/><line style="stroke:#181818;stroke-width:1.0;" x1="517.7144" x2="558.7144" y1="257.625" y2="257.625"/><polygon fill="#181818" points="527.7144,253.625,517.7144,257.625,527.7144,261.625,523.7144,257.625" style="stroke:#181818;stroke-width:1.0;"/><text fill="#000000" font-family="sans-serif" font-size="13" lengthAdjust="spacing" textLength="106.2407" x="523.7144" y="239.7686">Evaluate condition</text><polygon fill="#181818" points="362.1045,283.9766,352.1045,287.9766,362.1045,291.9766,358.1045,287.9766" style="stroke:#181818;stroke-width:1.0;"/><line style="stroke:#181818;stroke-width:1.0;stroke-dasharray:2.0,2.0;" x1="356.1045" x2="515.7144" y1="287.9766" y2="287.9766"/><text fill="#000000" font-family="sans-serif" font-size="13" lengthAdjust="spacing" textLength="90.3271" x="368.1045" y="283.1201">Condition result</text><path d="M110.4668,302.9766 L170.6377,302.9766 L170.6377,311.3281 L160.6377,321.3281 L110.4668,321.3281 L110.4668,302.9766 " fill="#EEEEEE" style="stroke:#000000;stroke-width:1.5;"/><rect fill="none" height="187.9453" style="stroke:#000000;stroke-width:1.5;" width="457.7646" x="110.4668" y="302.9766"/><text fill="#000000" font-family="sans-serif" font-size="13" font-weight="bold" lengthAdjust="spacing" textLength="15.1709" x="125.4668" y="317.4717">alt</text><text fill="#000000" font-family="sans-serif" font-size="11" font-weight="bold" lengthAdjust="spacing" textLength="100.2246" x="185.6377" y="316.3955">[Condition Passed]</text><polygon fill="#181818" points="504.7144,339.6797,514.7144,343.6797,504.7144,347.6797,508.7144,343.6797" style="stroke:#181818;stroke-width:1.0;"/><line style="stroke:#181818;stroke-width:1.0;" x1="351.1045" x2="510.7144" y1="343.6797" y2="343.6797"/><text fill="#000000" font-family="sans-serif" font-size="13" lengthAdjust="spacing" textLength="141.6099" x="358.1045" y="338.8232">setRegister(Rd, Oprnd2)</text><path d="M246.1841,358.6797 L306.355,358.6797 L306.355,367.0313 L296.355,377.0313 L246.1841,377.0313 L246.1841,358.6797 " fill="#EEEEEE" style="stroke:#000000;stroke-width:1.5;"/><rect fill="none" height="48.7031" style="stroke:#000000;stroke-width:1.5;" width="312.0474" x="246.1841" y="358.6797"/><text fill="#000000" font-family="sans-serif" font-size="13" font-weight="bold" lengthAdjust="spacing" textLength="15.1709" x="261.1841" y="373.1748">alt</text><text fill="#000000" font-family="sans-serif" font-size="11" font-weight="bold" lengthAdjust="spacing" textLength="62.3423" x="321.355" y="372.0986">[S bit is set]</text><polygon fill="#181818" points="504.7144,395.3828,514.7144,399.3828,504.7144,403.3828,508.7144,399.3828" style="stroke:#181818;stroke-width:1.0;"/><line style="stroke:#181818;stroke-width:1.0;" x1="351.1045" x2="510.7144" y1="399.3828" y2="399.3828"/><text fill="#000000" font-family="sans-serif" font-size="13" lengthAdjust="spacing" textLength="123.5698" x="358.1045" y="394.5264">updateFlags(Oprnd2)</text><polygon fill="#181818" points="166.8701,432.7344,156.8701,436.7344,166.8701,440.7344,162.8701,436.7344" style="stroke:#181818;stroke-width:1.0;"/><line style="stroke:#181818;stroke-width:1.0;" x1="160.8701" x2="350.1045" y1="436.7344" y2="436.7344"/><text fill="#000000" font-family="sans-serif" font-size="13" lengthAdjust="spacing" textLength="39.019" x="172.8701" y="431.8779">Return</text><line style="stroke:#000000;stroke-width:1.0;stroke-dasharray:2.0,2.0;" x1="110.4668" x2="568.2314" y1="445.7344" y2="445.7344"/><text fill="#000000" font-family="sans-serif" font-size="11" font-weight="bold" lengthAdjust="spacing" textLength="93.4839" x="115.4668" y="457.1533">[Condition Failed]</text><polygon fill="#181818" points="166.8701,478.9219,156.8701,482.9219,166.8701,486.9219,162.8701,482.9219" style="stroke:#181818;stroke-width:1.0;"/><line style="stroke:#181818;stroke-width:1.0;" x1="160.8701" x2="350.1045" y1="482.9219" y2="482.9219"/><text fill="#000000" font-family="sans-serif" font-size="13" lengthAdjust="spacing" textLength="39.019" x="172.8701" y="478.0654">Return</text><!--SRC=[VP0nJyCm48Lt_ufJfqGg38mPa53LIWnHga2pLiOv5GlZMBupukTpJcYQC93fSk-xzvxCbXr2tNJmx8bZCcm73_jlD2bFIcd3GuGJOLH1HxR61kqPDf_Q-diJmWOqGIq_Q_cfhS_svaXdYRZXJRUcJKYpk3kUbCfvSFSu6bU_TQQQhqYiydgKcwu2d5IP2_7PmYAsLFb4G36jmBoZ-TWDlhTPAunCfH9b1lPVsYKjGUOAJV8rQRw5Y9GSA-ruiJng8kmLoBUC9UGMBvOOOz7sMsX2zFr3ENBPu0NUB8Eb38xBlmOfz5BguFI5YkKn-bNOz5OjSefUeIDSL3jew_0VMfn-0000]--></g></svg>