<svg xmlns="http://www.w3.org/2000/svg" xmlns:xlink="http://www.w3.org/1999/xlink" contentStyleType="text/css" height="469px" preserveAspectRatio="none" style="width:536px;height:469px;background:#FFFFFF;" version="1.1" viewBox="0 0 536 469" width="536px" zoomAndPan="magnify"><title>MOV Instruction Execution</title><defs/><g><text fill="#000000" font-family="sans-serif" font-size="14" font-weight="bold" lengthAdjust="spacing" textLength="178.9033" x="178.2925" y="29.5332">MOV Instruction Execution</text><rect fill="none" height="187.9453" style="stroke:#000000;stroke-width:1.5;" width="457.7646" x="10" y="227.625"/><rect fill="none" height="48.7031" style="stroke:#000000;stroke-width:1.5;" width="312.0474" x="145.7173" y="283.3281"/><line style="stroke:#181818;stroke-width:0.5;stroke-dasharray:5.0,5.0;" x1="55" x2="55" y1="76.2188" y2="432.5703"/><line style="stroke:#181818;stroke-width:0.5;stroke-dasharray:5.0,5.0;" x1="249.7173" x2="249.7173" y1="76.2188" y2="432.5703"/><line style="stroke:#181818;stroke-width:0.5;stroke-dasharray:5.0,5.0;" x1="415.7305" x2="415.7305" y1="76.2188" y2="432.5703"/><rect fill="#E2E2F0" height="31.6094" rx="2.5" ry="2.5" style="stroke:#181818;stroke-width:0.5;" width="70.8066" x="20" y="43.6094"/><text fill="#000000" font-family="sans-serif" font-size="14" lengthAdjust="spacing" textLength="56.8066" x="27" y="65.1426">main.cpp</text><rect fill="#E2E2F0" height="31.6094" rx="2.5" ry="2.5" style="stroke:#181818;stroke-width:0.5;" width="70.8066" x="20" y="431.5703"/><text fill="#000000" font-family="sans-serif" font-size="14" lengthAdjust="spacing" textLength="56.8066" x="27" y="453.1035">main.cpp</text><rect fill="#E2E2F0" height="31.6094" rx="2.5" ry="2.5" style="stroke:#181818;stroke-width:0.5;" width="189.8408" x="155.7173" y="43.6094"/><text fill="#000000" font-family="sans-serif" font-size="14" lengthAdjust="spacing" textLength="175.8408" x="162.7173" y="65.1426">ARM_instructions_MOV.cpp</text><rect fill="#E2E2F0" height="31.6094" rx="2.5" ry="2.5" style="stroke:#181818;stroke-width:0.5;" width="189.8408" x="155.7173" y="431.5703"/><text fill="#000000" font-family="sans-serif" font-size="14" lengthAdjust="spacing" textLength="175.8408" x="162.7173" y="453.1035">ARM_instructions_MOV.cpp</text><rect fill="#E2E2F0" height="31.6094" rx="2.5" ry="2.5" style="stroke:#181818;stroke-width:0.5;" width="63.0342" x="384.7305" y="43.6094"/><text fill="#000000" font-family="sans-serif" font-size="14" lengthAdjust="spacing" textLength="49.0342" x="391.7305" y="65.1426">cpu.cpp</text><rect fill="#E2E2F0" height="31.6094" rx="2.5" ry="2.5" style="stroke:#181818;stroke-width:0.5;" width="63.0342" x="384.7305" y="431.5703"/><text fill="#000000" font-family="sans-serif" font-size="14" lengthAdjust="spacing" textLength="49.0342" x="391.7305" y="453.1035">cpu.cpp</text><polygon fill="#181818" points="238.6377,104.5703,248.6377,108.5703,238.6377,112.5703,242.6377,108.5703" style="stroke:#181818;stroke-width:1.0;"/><line style="stroke:#181818;stroke-width:1.0;" x1="55.4033" x2="244.6377" y1="108.5703" y2="108.5703"/><text fill="#000000" font-family="sans-serif" font-size="13" lengthAdjust="spacing" textLength="171.2344" x="62.4033" y="103.7139">executeMOV(cpu, instruction)</text><polygon fill="#181818" points="404.2476,134.9219,414.2476,138.9219,404.2476,142.9219,408.2476,138.9219" style="stroke:#181818;stroke-width:1.0;"/><line style="stroke:#181818;stroke-width:1.0;" x1="250.6377" x2="410.2476" y1="138.9219" y2="138.9219"/><text fill="#000000" font-family="sans-serif" font-size="13" lengthAdjust="spacing" textLength="125.7344" x="257.6377" y="134.0654">checkCondition(cond)</text><line style="stroke:#181818;stroke-width:1.0;" x1="416.2476" x2="458.2476" y1="169.2734" y2="169.2734"/><line style="stroke:#181818;stroke-width:1.0;" x1="458.2476" x2="458.2476" y1="169.2734" y2="182.2734"/><line style="stroke:#181818;stroke-width:1.0;" x1="417.2476" x2="458.2476" y1="182.2734" y2="182.2734"/><polygon fill="#181818" points="427.2476,178.2734,417.2476,182.2734,427.2476,186.2734,423.2476,182.2734" style="stroke:#181818;stroke-width:1.0;"/><text fill="#000000" font-family="sans-serif" font-size="13" lengthAdjust="spacing" textLength="106.2407" x="423.2476" y="164.417">Evaluate condition</text><polygon fill="#181818" points="261.6377,208.625,251.6377,212.625,261.6377,216.625,257.6377,212.625" style="stroke:#181818;stroke-width:1.0;"/><line style="stroke:#181818;stroke-width:1.0;stroke-dasharray:2.0,2.0;" x1="255.6377" x2="415.2476" y1="212.625" y2="212.625"/><text fill="#000000" font-family="sans-serif" font-size="13" lengthAdjust="spacing" textLength="90.3271" x="267.6377" y="207.7686">Condition result</text><path d="M10,227.625 L70.1709,227.625 L70.1709,235.9766 L60.1709,245.9766 L10,245.9766 L10,227.625 " fill="#EEEEEE" style="stroke:#000000;stroke-width:1.5;"/><rect fill="none" height="187.9453" style="stroke:#000000;stroke-width:1.5;" width="457.7646" x="10" y="227.625"/><text fill="#000000" font-family="sans-serif" font-size="13" font-weight="bold" lengthAdjust="spacing" textLength="15.1709" x="25" y="242.1201">alt</text><text fill="#000000" font-family="sans-serif" font-size="11" font-weight="bold" lengthAdjust="spacing" textLength="100.2246" x="85.1709" y="241.0439">[Condition Passed]</text><polygon fill="#181818" points="404.2476,264.3281,414.2476,268.3281,404.2476,272.3281,408.2476,268.3281" style="stroke:#181818;stroke-width:1.0;"/><line style="stroke:#181818;stroke-width:1.0;" x1="250.6377" x2="410.2476" y1="268.3281" y2="268.3281"/><text fill="#000000" font-family="sans-serif" font-size="13" lengthAdjust="spacing" textLength="141.6099" x="257.6377" y="263.4717">setRegister(Rd, Oprnd2)</text><path d="M145.7173,283.3281 L205.8882,283.3281 L205.8882,291.6797 L195.8882,301.6797 L145.7173,301.6797 L145.7173,283.3281 " fill="#EEEEEE" style="stroke:#000000;stroke-width:1.5;"/><rect fill="none" height="48.7031" style="stroke:#000000;stroke-width:1.5;" width="312.0474" x="145.7173" y="283.3281"/><text fill="#000000" font-family="sans-serif" font-size="13" font-weight="bold" lengthAdjust="spacing" textLength="15.1709" x="160.7173" y="297.8232">alt</text><text fill="#000000" font-family="sans-serif" font-size="11" font-weight="bold" lengthAdjust="spacing" textLength="62.3423" x="220.8882" y="296.7471">[S bit is set]</text><polygon fill="#181818" points="404.2476,320.0313,414.2476,324.0313,404.2476,328.0313,408.2476,324.0313" style="stroke:#181818;stroke-width:1.0;"/><line style="stroke:#181818;stroke-width:1.0;" x1="250.6377" x2="410.2476" y1="324.0313" y2="324.0313"/><text fill="#000000" font-family="sans-serif" font-size="13" lengthAdjust="spacing" textLength="123.5698" x="257.6377" y="319.1748">updateFlags(Oprnd2)</text><polygon fill="#181818" points="66.4033,357.3828,56.4033,361.3828,66.4033,365.3828,62.4033,361.3828" style="stroke:#181818;stroke-width:1.0;"/><line style="stroke:#181818;stroke-width:1.0;" x1="60.4033" x2="249.6377" y1="361.3828" y2="361.3828"/><text fill="#000000" font-family="sans-serif" font-size="13" lengthAdjust="spacing" textLength="39.019" x="72.4033" y="356.5264">Return</text><line style="stroke:#000000;stroke-width:1.0;stroke-dasharray:2.0,2.0;" x1="10" x2="467.7646" y1="370.3828" y2="370.3828"/><text fill="#000000" font-family="sans-serif" font-size="11" font-weight="bold" lengthAdjust="spacing" textLength="93.4839" x="15" y="381.8018">[Condition Failed]</text><polygon fill="#181818" points="66.4033,403.5703,56.4033,407.5703,66.4033,411.5703,62.4033,407.5703" style="stroke:#181818;stroke-width:1.0;"/><line style="stroke:#181818;stroke-width:1.0;" x1="60.4033" x2="249.6377" y1="407.5703" y2="407.5703"/><text fill="#000000" font-family="sans-serif" font-size="13" lengthAdjust="spacing" textLength="39.019" x="72.4033" y="402.7139">Return</text><!--SRC=[VP11QyCm38Nl_XMYfmIw7NhCOJ1A2pk4b8prMZn7T6AUQoovxETFpcYQx32VPBrFJmy9YKTekoEy19QKdT0bmEuRNIwLCT4c8KVH1e7LbwNmw69SWMLezREKd_lsH7SRFgdl7U-EIzh5F8dRmvinnH0UdWhP08uHKEjAmJNCV6jJyYgeKmsu3tIVsqiOg6YLqwesgap0xcfzjeBWRj2lVDiqpK92pbwCzJ9h7Ymp3WRqpTSoIezdOi5KzSCQkfZ2iAb7hXYymZi941TmRFuro77GK7jlprpDXp4ibfMZDD2Zv1GCUiPPjBqbZ__GwlG3]--></g></svg>