<svg xmlns="http://www.w3.org/2000/svg" xmlns:xlink="http://www.w3.org/1999/xlink" contentStyleType="text/css" height="467px" preserveAspectRatio="none" style="width:529px;height:467px;background:#FFFFFF;" version="1.1" viewBox="0 0 529 467" width="529px" zoomAndPan="magnify"><title>MRS Instruction Execution</title><defs/><g><text fill="#000000" font-family="sans-serif" font-size="14" font-weight="bold" lengthAdjust="spacing" textLength="178.124" x="175.4226" y="29.5332">MRS Instruction Execution</text><rect fill="none" height="185.9453" style="stroke:#000000;stroke-width:1.5;" width="441.2456" x="10" y="227.625"/><line style="stroke:#181818;stroke-width:0.5;stroke-dasharray:5.0,5.0;" x1="55" x2="55" y1="76.2188" y2="430.5703"/><line style="stroke:#181818;stroke-width:0.5;stroke-dasharray:5.0,5.0;" x1="248.9937" x2="248.9937" y1="76.2188" y2="430.5703"/><line style="stroke:#181818;stroke-width:0.5;stroke-dasharray:5.0,5.0;" x1="409.2114" x2="409.2114" y1="76.2188" y2="430.5703"/><rect fill="#E2E2F0" height="31.6094" rx="2.5" ry="2.5" style="stroke:#181818;stroke-width:0.5;" width="70.8066" x="20" y="43.6094"/><text fill="#000000" font-family="sans-serif" font-size="14" lengthAdjust="spacing" textLength="56.8066" x="27" y="65.1426">main.cpp</text><rect fill="#E2E2F0" height="31.6094" rx="2.5" ry="2.5" style="stroke:#181818;stroke-width:0.5;" width="70.8066" x="20" y="429.5703"/><text fill="#000000" font-family="sans-serif" font-size="14" lengthAdjust="spacing" textLength="56.8066" x="27" y="451.1035">main.cpp</text><rect fill="#E2E2F0" height="31.6094" rx="2.5" ry="2.5" style="stroke:#181818;stroke-width:0.5;" width="189.8408" x="154.9937" y="43.6094"/><text fill="#000000" font-family="sans-serif" font-size="14" lengthAdjust="spacing" textLength="175.8408" x="161.9937" y="65.1426">ARM_instructions_MOV.cpp</text><rect fill="#E2E2F0" height="31.6094" rx="2.5" ry="2.5" style="stroke:#181818;stroke-width:0.5;" width="189.8408" x="154.9937" y="429.5703"/><text fill="#000000" font-family="sans-serif" font-size="14" lengthAdjust="spacing" textLength="175.8408" x="161.9937" y="451.1035">ARM_instructions_MOV.cpp</text><rect fill="#E2E2F0" height="31.6094" rx="2.5" ry="2.5" style="stroke:#181818;stroke-width:0.5;" width="63.0342" x="378.2114" y="43.6094"/><text fill="#000000" font-family="sans-serif" font-size="14" lengthAdjust="spacing" textLength="49.0342" x="385.2114" y="65.1426">cpu.cpp</text><rect fill="#E2E2F0" height="31.6094" rx="2.5" ry="2.5" style="stroke:#181818;stroke-width:0.5;" width="63.0342" x="378.2114" y="429.5703"/><text fill="#000000" font-family="sans-serif" font-size="14" lengthAdjust="spacing" textLength="49.0342" x="385.2114" y="451.1035">cpu.cpp</text><polygon fill="#181818" points="237.9141,104.5703,247.9141,108.5703,237.9141,112.5703,241.9141,108.5703" style="stroke:#181818;stroke-width:1.0;"/><line style="stroke:#181818;stroke-width:1.0;" x1="55.4033" x2="243.9141" y1="108.5703" y2="108.5703"/><text fill="#000000" font-family="sans-serif" font-size="13" lengthAdjust="spacing" textLength="170.5107" x="62.4033" y="103.7139">executeMRS(cpu, instruction)</text><polygon fill="#181818" points="397.7285,134.9219,407.7285,138.9219,397.7285,142.9219,401.7285,138.9219" style="stroke:#181818;stroke-width:1.0;"/><line style="stroke:#181818;stroke-width:1.0;" x1="249.9141" x2="403.7285" y1="138.9219" y2="138.9219"/><text fill="#000000" font-family="sans-serif" font-size="13" lengthAdjust="spacing" textLength="125.7344" x="256.9141" y="134.0654">checkCondition(cond)</text><line style="stroke:#181818;stroke-width:1.0;" x1="409.7285" x2="451.7285" y1="169.2734" y2="169.2734"/><line style="stroke:#181818;stroke-width:1.0;" x1="451.7285" x2="451.7285" y1="169.2734" y2="182.2734"/><line style="stroke:#181818;stroke-width:1.0;" x1="410.7285" x2="451.7285" y1="182.2734" y2="182.2734"/><polygon fill="#181818" points="420.7285,178.2734,410.7285,182.2734,420.7285,186.2734,416.7285,182.2734" style="stroke:#181818;stroke-width:1.0;"/><text fill="#000000" font-family="sans-serif" font-size="13" lengthAdjust="spacing" textLength="106.2407" x="416.7285" y="164.417">Evaluate condition</text><polygon fill="#181818" points="260.9141,208.625,250.9141,212.625,260.9141,216.625,256.9141,212.625" style="stroke:#181818;stroke-width:1.0;"/><line style="stroke:#181818;stroke-width:1.0;stroke-dasharray:2.0,2.0;" x1="254.9141" x2="408.7285" y1="212.625" y2="212.625"/><text fill="#000000" font-family="sans-serif" font-size="13" lengthAdjust="spacing" textLength="90.3271" x="266.9141" y="207.7686">Condition result</text><path d="M10,227.625 L70.1709,227.625 L70.1709,235.9766 L60.1709,245.9766 L10,245.9766 L10,227.625 " fill="#EEEEEE" style="stroke:#000000;stroke-width:1.5;"/><rect fill="none" height="185.9453" style="stroke:#000000;stroke-width:1.5;" width="441.2456" x="10" y="227.625"/><text fill="#000000" font-family="sans-serif" font-size="13" font-weight="bold" lengthAdjust="spacing" textLength="15.1709" x="25" y="242.1201">alt</text><text fill="#000000" font-family="sans-serif" font-size="11" font-weight="bold" lengthAdjust="spacing" textLength="100.2246" x="85.1709" y="241.0439">[Condition Passed]</text><polygon fill="#181818" points="397.7285,264.3281,407.7285,268.3281,397.7285,272.3281,401.7285,268.3281" style="stroke:#181818;stroke-width:1.0;"/><line style="stroke:#181818;stroke-width:1.0;" x1="249.9141" x2="403.7285" y1="268.3281" y2="268.3281"/><text fill="#000000" font-family="sans-serif" font-size="13" lengthAdjust="spacing" textLength="135.8145" x="256.9141" y="263.4717">getCPSR() / getSPSR()</text><polygon fill="#181818" points="260.9141,294.6797,250.9141,298.6797,260.9141,302.6797,256.9141,298.6797" style="stroke:#181818;stroke-width:1.0;"/><line style="stroke:#181818;stroke-width:1.0;stroke-dasharray:2.0,2.0;" x1="254.9141" x2="408.7285" y1="298.6797" y2="298.6797"/><text fill="#000000" font-family="sans-serif" font-size="13" lengthAdjust="spacing" textLength="61.4199" x="266.9141" y="293.8232">PSR value</text><polygon fill="#181818" points="397.7285,325.0313,407.7285,329.0313,397.7285,333.0313,401.7285,329.0313" style="stroke:#181818;stroke-width:1.0;"/><line style="stroke:#181818;stroke-width:1.0;" x1="249.9141" x2="403.7285" y1="329.0313" y2="329.0313"/><text fill="#000000" font-family="sans-serif" font-size="13" lengthAdjust="spacing" textLength="129.3271" x="256.9141" y="324.1748">setRegister(Rd, value)</text><polygon fill="#181818" points="66.4033,355.3828,56.4033,359.3828,66.4033,363.3828,62.4033,359.3828" style="stroke:#181818;stroke-width:1.0;"/><line style="stroke:#181818;stroke-width:1.0;" x1="60.4033" x2="248.9141" y1="359.3828" y2="359.3828"/><text fill="#000000" font-family="sans-serif" font-size="13" lengthAdjust="spacing" textLength="39.019" x="72.4033" y="354.5264">Return</text><line style="stroke:#000000;stroke-width:1.0;stroke-dasharray:2.0,2.0;" x1="10" x2="451.2456" y1="368.3828" y2="368.3828"/><text fill="#000000" font-family="sans-serif" font-size="11" font-weight="bold" lengthAdjust="spacing" textLength="93.4839" x="15" y="379.8018">[Condition Failed]</text><polygon fill="#181818" points="66.4033,401.5703,56.4033,405.5703,66.4033,409.5703,62.4033,405.5703" style="stroke:#181818;stroke-width:1.0;"/><line style="stroke:#181818;stroke-width:1.0;" x1="60.4033" x2="248.9141" y1="405.5703" y2="405.5703"/><text fill="#000000" font-family="sans-serif" font-size="13" lengthAdjust="spacing" textLength="39.019" x="72.4033" y="400.7139">Return</text><!--SRC=[PP11QmCX48Nlyok6d7OXRUzxA9GbXHwMB2xDDOWxf19hHCUGdr_Ta8rIJyzvdsyUicP3E8W9lsnW7nNhYyNTZLJC2i19prff9otZvbTg-wgSsw0CEAHBRN-8uQYVCU4ux0zFV7-eQUNYQlRZDq0En9VtJ7P8ImLApPe4Rh78RI4H6KolEbG_fCxznSuwUurAgeNahC3kAasKJAWUqDr-R5hVegSG3OCqN0n76GBDWEcKQq_4_JY9fiMthAT5BrGLdiQOzzE_W40iwAG3as_4lBrJROdb_-XG44TlWKoWejMdrAPkLTDsXZy0]--></g></svg>