<svg xmlns="http://www.w3.org/2000/svg" xmlns:xlink="http://www.w3.org/1999/xlink" contentStyleType="text/css" height="545px" preserveAspectRatio="none" style="width:549px;height:545px;background:#FFFFFF;" version="1.1" viewBox="0 0 549 545" width="549px" zoomAndPan="magnify"><title>MSR Instruction Execution</title><defs/><g><text fill="#000000" font-family="sans-serif" font-size="14" font-weight="bold" lengthAdjust="spacing" textLength="178.124" x="185.179" y="29.5332">MSR Instruction Execution</text><rect fill="none" height="264.4844" style="stroke:#000000;stroke-width:1.5;" width="470.7583" x="10" y="227.625"/><rect fill="none" height="94.8906" style="stroke:#000000;stroke-width:1.5;" width="325.7646" x="144.9937" y="313.6797"/><line style="stroke:#181818;stroke-width:0.5;stroke-dasharray:5.0,5.0;" x1="55" x2="55" y1="76.2188" y2="509.1094"/><line style="stroke:#181818;stroke-width:0.5;stroke-dasharray:5.0,5.0;" x1="248.9937" x2="248.9937" y1="76.2188" y2="509.1094"/><line style="stroke:#181818;stroke-width:0.5;stroke-dasharray:5.0,5.0;" x1="428.7241" x2="428.7241" y1="76.2188" y2="509.1094"/><rect fill="#E2E2F0" height="31.6094" rx="2.5" ry="2.5" style="stroke:#181818;stroke-width:0.5;" width="70.8066" x="20" y="43.6094"/><text fill="#000000" font-family="sans-serif" font-size="14" lengthAdjust="spacing" textLength="56.8066" x="27" y="65.1426">main.cpp</text><rect fill="#E2E2F0" height="31.6094" rx="2.5" ry="2.5" style="stroke:#181818;stroke-width:0.5;" width="70.8066" x="20" y="508.1094"/><text fill="#000000" font-family="sans-serif" font-size="14" lengthAdjust="spacing" textLength="56.8066" x="27" y="529.6426">main.cpp</text><rect fill="#E2E2F0" height="31.6094" rx="2.5" ry="2.5" style="stroke:#181818;stroke-width:0.5;" width="189.8408" x="154.9937" y="43.6094"/><text fill="#000000" font-family="sans-serif" font-size="14" lengthAdjust="spacing" textLength="175.8408" x="161.9937" y="65.1426">ARM_instructions_MOV.cpp</text><rect fill="#E2E2F0" height="31.6094" rx="2.5" ry="2.5" style="stroke:#181818;stroke-width:0.5;" width="189.8408" x="154.9937" y="508.1094"/><text fill="#000000" font-family="sans-serif" font-size="14" lengthAdjust="spacing" textLength="175.8408" x="161.9937" y="529.6426">ARM_instructions_MOV.cpp</text><rect fill="#E2E2F0" height="31.6094" rx="2.5" ry="2.5" style="stroke:#181818;stroke-width:0.5;" width="63.0342" x="397.7241" y="43.6094"/><text fill="#000000" font-family="sans-serif" font-size="14" lengthAdjust="spacing" textLength="49.0342" x="404.7241" y="65.1426">cpu.cpp</text><rect fill="#E2E2F0" height="31.6094" rx="2.5" ry="2.5" style="stroke:#181818;stroke-width:0.5;" width="63.0342" x="397.7241" y="508.1094"/><text fill="#000000" font-family="sans-serif" font-size="14" lengthAdjust="spacing" textLength="49.0342" x="404.7241" y="529.6426">cpu.cpp</text><polygon fill="#181818" points="237.9141,104.5703,247.9141,108.5703,237.9141,112.5703,241.9141,108.5703" style="stroke:#181818;stroke-width:1.0;"/><line style="stroke:#181818;stroke-width:1.0;" x1="55.4033" x2="243.9141" y1="108.5703" y2="108.5703"/><text fill="#000000" font-family="sans-serif" font-size="13" lengthAdjust="spacing" textLength="170.5107" x="62.4033" y="103.7139">executeMSR(cpu, instruction)</text><polygon fill="#181818" points="417.2412,134.9219,427.2412,138.9219,417.2412,142.9219,421.2412,138.9219" style="stroke:#181818;stroke-width:1.0;"/><line style="stroke:#181818;stroke-width:1.0;" x1="249.9141" x2="423.2412" y1="138.9219" y2="138.9219"/><text fill="#000000" font-family="sans-serif" font-size="13" lengthAdjust="spacing" textLength="125.7344" x="256.9141" y="134.0654">checkCondition(cond)</text><line style="stroke:#181818;stroke-width:1.0;" x1="429.2412" x2="471.2412" y1="169.2734" y2="169.2734"/><line style="stroke:#181818;stroke-width:1.0;" x1="471.2412" x2="471.2412" y1="169.2734" y2="182.2734"/><line style="stroke:#181818;stroke-width:1.0;" x1="430.2412" x2="471.2412" y1="182.2734" y2="182.2734"/><polygon fill="#181818" points="440.2412,178.2734,430.2412,182.2734,440.2412,186.2734,436.2412,182.2734" style="stroke:#181818;stroke-width:1.0;"/><text fill="#000000" font-family="sans-serif" font-size="13" lengthAdjust="spacing" textLength="106.2407" x="436.2412" y="164.417">Evaluate condition</text><polygon fill="#181818" points="260.9141,208.625,250.9141,212.625,260.9141,216.625,256.9141,212.625" style="stroke:#181818;stroke-width:1.0;"/><line style="stroke:#181818;stroke-width:1.0;stroke-dasharray:2.0,2.0;" x1="254.9141" x2="428.2412" y1="212.625" y2="212.625"/><text fill="#000000" font-family="sans-serif" font-size="13" lengthAdjust="spacing" textLength="90.3271" x="266.9141" y="207.7686">Condition result</text><path d="M10,227.625 L70.1709,227.625 L70.1709,235.9766 L60.1709,245.9766 L10,245.9766 L10,227.625 " fill="#EEEEEE" style="stroke:#000000;stroke-width:1.5;"/><rect fill="none" height="264.4844" style="stroke:#000000;stroke-width:1.5;" width="470.7583" x="10" y="227.625"/><text fill="#000000" font-family="sans-serif" font-size="13" font-weight="bold" lengthAdjust="spacing" textLength="15.1709" x="25" y="242.1201">alt</text><text fill="#000000" font-family="sans-serif" font-size="11" font-weight="bold" lengthAdjust="spacing" textLength="100.2246" x="85.1709" y="241.0439">[Condition Passed]</text><polygon fill="#181818" points="417.2412,264.3281,427.2412,268.3281,417.2412,272.3281,421.2412,268.3281" style="stroke:#181818;stroke-width:1.0;"/><line style="stroke:#181818;stroke-width:1.0;" x1="249.9141" x2="423.2412" y1="268.3281" y2="268.3281"/><text fill="#000000" font-family="sans-serif" font-size="13" lengthAdjust="spacing" textLength="95.3545" x="256.9141" y="263.4717">getRegister(Rm)</text><polygon fill="#181818" points="260.9141,294.6797,250.9141,298.6797,260.9141,302.6797,256.9141,298.6797" style="stroke:#181818;stroke-width:1.0;"/><line style="stroke:#181818;stroke-width:1.0;stroke-dasharray:2.0,2.0;" x1="254.9141" x2="428.2412" y1="298.6797" y2="298.6797"/><text fill="#000000" font-family="sans-serif" font-size="13" lengthAdjust="spacing" textLength="86.6899" x="266.9141" y="293.8232">Value from Rm</text><path d="M144.9937,313.6797 L205.1646,313.6797 L205.1646,322.0313 L195.1646,332.0313 L144.9937,332.0313 L144.9937,313.6797 " fill="#EEEEEE" style="stroke:#000000;stroke-width:1.5;"/><rect fill="none" height="94.8906" style="stroke:#000000;stroke-width:1.5;" width="325.7646" x="144.9937" y="313.6797"/><text fill="#000000" font-family="sans-serif" font-size="13" font-weight="bold" lengthAdjust="spacing" textLength="15.1709" x="159.9937" y="328.1748">alt</text><text fill="#000000" font-family="sans-serif" font-size="11" font-weight="bold" lengthAdjust="spacing" textLength="75.7915" x="220.1646" y="327.0986">[PSR is CPSR]</text><polygon fill="#181818" points="417.2412,350.3828,427.2412,354.3828,417.2412,358.3828,421.2412,354.3828" style="stroke:#181818;stroke-width:1.0;"/><line style="stroke:#181818;stroke-width:1.0;" x1="249.9141" x2="423.2412" y1="354.3828" y2="354.3828"/><text fill="#000000" font-family="sans-serif" font-size="13" lengthAdjust="spacing" textLength="155.3271" x="256.9141" y="349.5264">setCPSR(value, fieldMask)</text><line style="stroke:#000000;stroke-width:1.0;stroke-dasharray:2.0,2.0;" x1="144.9937" x2="470.7583" y1="363.3828" y2="363.3828"/><text fill="#000000" font-family="sans-serif" font-size="11" font-weight="bold" lengthAdjust="spacing" textLength="75.1846" x="149.9937" y="374.8018">[PSR is SPSR]</text><polygon fill="#181818" points="417.2412,396.5703,427.2412,400.5703,417.2412,404.5703,421.2412,400.5703" style="stroke:#181818;stroke-width:1.0;"/><line style="stroke:#181818;stroke-width:1.0;" x1="249.9141" x2="423.2412" y1="400.5703" y2="400.5703"/><text fill="#000000" font-family="sans-serif" font-size="13" lengthAdjust="spacing" textLength="154.6099" x="256.9141" y="395.7139">setSPSR(value, fieldMask)</text><polygon fill="#181818" points="66.4033,433.9219,56.4033,437.9219,66.4033,441.9219,62.4033,437.9219" style="stroke:#181818;stroke-width:1.0;"/><line style="stroke:#181818;stroke-width:1.0;" x1="60.4033" x2="248.9141" y1="437.9219" y2="437.9219"/><text fill="#000000" font-family="sans-serif" font-size="13" lengthAdjust="spacing" textLength="39.019" x="72.4033" y="433.0654">Return</text><line style="stroke:#000000;stroke-width:1.0;stroke-dasharray:2.0,2.0;" x1="10" x2="480.7583" y1="446.9219" y2="446.9219"/><text fill="#000000" font-family="sans-serif" font-size="11" font-weight="bold" lengthAdjust="spacing" textLength="93.4839" x="15" y="458.3408">[Condition Failed]</text><polygon fill="#181818" points="66.4033,480.1094,56.4033,484.1094,66.4033,488.1094,62.4033,484.1094" style="stroke:#181818;stroke-width:1.0;"/><line style="stroke:#181818;stroke-width:1.0;" x1="60.4033" x2="248.9141" y1="484.1094" y2="484.1094"/><text fill="#000000" font-family="sans-serif" font-size="13" lengthAdjust="spacing" textLength="39.019" x="72.4033" y="479.2529">Return</text><!--SRC=[VP1DQiCm44RtEiMGbGrf3-15eOGKkZ0nClKs27cIYiYoaKQbn-_8mNzTM2j9tzER6P4XYr3M4ZvT81yrcTx1-HTrJ3iX1kN9Q3CeHt3eb76lUXWEe0AKVDZ6xxAycaKJhkMbMV1BiwNr4EVmL7q9aOJmyfR80d1i0RcpZC4ZhBovO2A1_Ae0_OtwSUfTQrAMQTxbWfCPEFye6nKXw0bwnbEb-Iru3D6IK9PMbvKA0Li1lDPbxqWIxoOG-ans-PXlj0rNHRZvlWFPZN7oLlpJ9irRo_7klpOWfInBFUCHRWPjMwhmU1P06t1Ir3kAUaVXDhEaFoz08aNlnAXV9lzGnk8EpQO_]--></g></svg>