<svg xmlns="http://www.w3.org/2000/svg" xmlns:xlink="http://www.w3.org/1999/xlink" contentStyleType="text/css" height="469px" preserveAspectRatio="none" style="width:543px;height:469px;background:#FFFFFF;" version="1.1" viewBox="0 0 543 469" width="543px" zoomAndPan="magnify"><title>MVN Instruction Execution</title><defs/><g><text fill="#000000" font-family="sans-serif" font-size="14" font-weight="bold" lengthAdjust="spacing" textLength="178.124" x="182.1162" y="29.5332">MVN Instruction Execution</text><rect fill="none" height="187.9453" style="stroke:#000000;stroke-width:1.5;" width="464.6328" x="10" y="227.625"/><rect fill="none" height="48.7031" style="stroke:#000000;stroke-width:1.5;" width="319.6392" x="144.9937" y="283.3281"/><line style="stroke:#181818;stroke-width:0.5;stroke-dasharray:5.0,5.0;" x1="55" x2="55" y1="76.2188" y2="432.5703"/><line style="stroke:#181818;stroke-width:0.5;stroke-dasharray:5.0,5.0;" x1="248.9937" x2="248.9937" y1="76.2188" y2="432.5703"/><line style="stroke:#181818;stroke-width:0.5;stroke-dasharray:5.0,5.0;" x1="422.5986" x2="422.5986" y1="76.2188" y2="432.5703"/><rect fill="#E2E2F0" height="31.6094" rx="2.5" ry="2.5" style="stroke:#181818;stroke-width:0.5;" width="70.8066" x="20" y="43.6094"/><text fill="#000000" font-family="sans-serif" font-size="14" lengthAdjust="spacing" textLength="56.8066" x="27" y="65.1426">main.cpp</text><rect fill="#E2E2F0" height="31.6094" rx="2.5" ry="2.5" style="stroke:#181818;stroke-width:0.5;" width="70.8066" x="20" y="431.5703"/><text fill="#000000" font-family="sans-serif" font-size="14" lengthAdjust="spacing" textLength="56.8066" x="27" y="453.1035">main.cpp</text><rect fill="#E2E2F0" height="31.6094" rx="2.5" ry="2.5" style="stroke:#181818;stroke-width:0.5;" width="189.8408" x="154.9937" y="43.6094"/><text fill="#000000" font-family="sans-serif" font-size="14" lengthAdjust="spacing" textLength="175.8408" x="161.9937" y="65.1426">ARM_instructions_MOV.cpp</text><rect fill="#E2E2F0" height="31.6094" rx="2.5" ry="2.5" style="stroke:#181818;stroke-width:0.5;" width="189.8408" x="154.9937" y="431.5703"/><text fill="#000000" font-family="sans-serif" font-size="14" lengthAdjust="spacing" textLength="175.8408" x="161.9937" y="453.1035">ARM_instructions_MOV.cpp</text><rect fill="#E2E2F0" height="31.6094" rx="2.5" ry="2.5" style="stroke:#181818;stroke-width:0.5;" width="63.0342" x="391.5986" y="43.6094"/><text fill="#000000" font-family="sans-serif" font-size="14" lengthAdjust="spacing" textLength="49.0342" x="398.5986" y="65.1426">cpu.cpp</text><rect fill="#E2E2F0" height="31.6094" rx="2.5" ry="2.5" style="stroke:#181818;stroke-width:0.5;" width="63.0342" x="391.5986" y="431.5703"/><text fill="#000000" font-family="sans-serif" font-size="14" lengthAdjust="spacing" textLength="49.0342" x="398.5986" y="453.1035">cpu.cpp</text><polygon fill="#181818" points="237.9141,104.5703,247.9141,108.5703,237.9141,112.5703,241.9141,108.5703" style="stroke:#181818;stroke-width:1.0;"/><line style="stroke:#181818;stroke-width:1.0;" x1="55.4033" x2="243.9141" y1="108.5703" y2="108.5703"/><text fill="#000000" font-family="sans-serif" font-size="13" lengthAdjust="spacing" textLength="170.5107" x="62.4033" y="103.7139">executeMVN(cpu, instruction)</text><polygon fill="#181818" points="411.1157,134.9219,421.1157,138.9219,411.1157,142.9219,415.1157,138.9219" style="stroke:#181818;stroke-width:1.0;"/><line style="stroke:#181818;stroke-width:1.0;" x1="249.9141" x2="417.1157" y1="138.9219" y2="138.9219"/><text fill="#000000" font-family="sans-serif" font-size="13" lengthAdjust="spacing" textLength="125.7344" x="256.9141" y="134.0654">checkCondition(cond)</text><line style="stroke:#181818;stroke-width:1.0;" x1="423.1157" x2="465.1157" y1="169.2734" y2="169.2734"/><line style="stroke:#181818;stroke-width:1.0;" x1="465.1157" x2="465.1157" y1="169.2734" y2="182.2734"/><line style="stroke:#181818;stroke-width:1.0;" x1="424.1157" x2="465.1157" y1="182.2734" y2="182.2734"/><polygon fill="#181818" points="434.1157,178.2734,424.1157,182.2734,434.1157,186.2734,430.1157,182.2734" style="stroke:#181818;stroke-width:1.0;"/><text fill="#000000" font-family="sans-serif" font-size="13" lengthAdjust="spacing" textLength="106.2407" x="430.1157" y="164.417">Evaluate condition</text><polygon fill="#181818" points="260.9141,208.625,250.9141,212.625,260.9141,216.625,256.9141,212.625" style="stroke:#181818;stroke-width:1.0;"/><line style="stroke:#181818;stroke-width:1.0;stroke-dasharray:2.0,2.0;" x1="254.9141" x2="422.1157" y1="212.625" y2="212.625"/><text fill="#000000" font-family="sans-serif" font-size="13" lengthAdjust="spacing" textLength="90.3271" x="266.9141" y="207.7686">Condition result</text><path d="M10,227.625 L70.1709,227.625 L70.1709,235.9766 L60.1709,245.9766 L10,245.9766 L10,227.625 " fill="#EEEEEE" style="stroke:#000000;stroke-width:1.5;"/><rect fill="none" height="187.9453" style="stroke:#000000;stroke-width:1.5;" width="464.6328" x="10" y="227.625"/><text fill="#000000" font-family="sans-serif" font-size="13" font-weight="bold" lengthAdjust="spacing" textLength="15.1709" x="25" y="242.1201">alt</text><text fill="#000000" font-family="sans-serif" font-size="11" font-weight="bold" lengthAdjust="spacing" textLength="100.2246" x="85.1709" y="241.0439">[Condition Passed]</text><polygon fill="#181818" points="411.1157,264.3281,421.1157,268.3281,411.1157,272.3281,415.1157,268.3281" style="stroke:#181818;stroke-width:1.0;"/><line style="stroke:#181818;stroke-width:1.0;" x1="249.9141" x2="417.1157" y1="268.3281" y2="268.3281"/><text fill="#000000" font-family="sans-serif" font-size="13" lengthAdjust="spacing" textLength="149.2017" x="256.9141" y="263.4717">setRegister(Rd, ~Oprnd2)</text><path d="M144.9937,283.3281 L205.1646,283.3281 L205.1646,291.6797 L195.1646,301.6797 L144.9937,301.6797 L144.9937,283.3281 " fill="#EEEEEE" style="stroke:#000000;stroke-width:1.5;"/><rect fill="none" height="48.7031" style="stroke:#000000;stroke-width:1.5;" width="319.6392" x="144.9937" y="283.3281"/><text fill="#000000" font-family="sans-serif" font-size="13" font-weight="bold" lengthAdjust="spacing" textLength="15.1709" x="159.9937" y="297.8232">alt</text><text fill="#000000" font-family="sans-serif" font-size="11" font-weight="bold" lengthAdjust="spacing" textLength="62.3423" x="220.1646" y="296.7471">[S bit is set]</text><polygon fill="#181818" points="411.1157,320.0313,421.1157,324.0313,411.1157,328.0313,415.1157,324.0313" style="stroke:#181818;stroke-width:1.0;"/><line style="stroke:#181818;stroke-width:1.0;" x1="249.9141" x2="417.1157" y1="324.0313" y2="324.0313"/><text fill="#000000" font-family="sans-serif" font-size="13" lengthAdjust="spacing" textLength="131.1616" x="256.9141" y="319.1748">updateFlags(~Oprnd2)</text><polygon fill="#181818" points="66.4033,357.3828,56.4033,361.3828,66.4033,365.3828,62.4033,361.3828" style="stroke:#181818;stroke-width:1.0;"/><line style="stroke:#181818;stroke-width:1.0;" x1="60.4033" x2="248.9141" y1="361.3828" y2="361.3828"/><text fill="#000000" font-family="sans-serif" font-size="13" lengthAdjust="spacing" textLength="39.019" x="72.4033" y="356.5264">Return</text><line style="stroke:#000000;stroke-width:1.0;stroke-dasharray:2.0,2.0;" x1="10" x2="474.6328" y1="370.3828" y2="370.3828"/><text fill="#000000" font-family="sans-serif" font-size="11" font-weight="bold" lengthAdjust="spacing" textLength="93.4839" x="15" y="381.8018">[Condition Failed]</text><polygon fill="#181818" points="66.4033,403.5703,56.4033,407.5703,66.4033,411.5703,62.4033,407.5703" style="stroke:#181818;stroke-width:1.0;"/><line style="stroke:#181818;stroke-width:1.0;" x1="60.4033" x2="248.9141" y1="407.5703" y2="407.5703"/><text fill="#000000" font-family="sans-serif" font-size="13" lengthAdjust="spacing" textLength="39.019" x="72.4033" y="402.7139">Return</text><!--SRC=[VP0nJyCm48Lt_ufJfqGg38mPa53LIWnfgY2oLiO-bHEkQ_dEY8dVZXtKD670q_dUT- -UJaWSGZliuTcpn6I4BXwsNsXIgPGAEWeP2jeBhCwQ_Bq9OGMQeSsVfVpKjqUwsV2nxOORtWrBseGqYPl3grB54EuU2za0ZX4m9wiok8QPRwqoKS0yrO1vH_EnkNXBHQjChcgLbGdOVcgNj22OA_GhNpTDin2HanEbdSoQ1ysCLa5-yxMCqkE9M31MlLt3TnUYjm_r21Q75tWZ0U92Zis_3YdOd6hdz8chnJJwnRfobWPwb1IzGiSu2xVJvF0VEZlz0000]--></g></svg>