<svg xmlns="http://www.w3.org/2000/svg" xmlns:xlink="http://www.w3.org/1999/xlink" contentStyleType="text/css" height="576px" preserveAspectRatio="none" style="width:649px;height:576px;background:#FFFFFF;" version="1.1" viewBox="0 0 649 576" width="649px" zoomAndPan="magnify"><title>MVN Instruction Execution</title><defs/><g><text fill="#000000" font-family="sans-serif" font-size="14" font-weight="bold" lengthAdjust="spacing" textLength="178.124" x="234.9744" y="29.5332">MVN Instruction Execution</text><rect fill="none" height="294.8359" style="stroke:#000000;stroke-width:1.5;" width="570.3491" x="10" y="227.625"/><rect fill="none" height="155.5938" style="stroke:#000000;stroke-width:1.5;" width="550.3491" x="20" y="283.3281"/><line style="stroke:#181818;stroke-width:0.5;stroke-dasharray:5.0,5.0;" x1="65" x2="65" y1="76.2188" y2="539.4609"/><line style="stroke:#181818;stroke-width:0.5;stroke-dasharray:5.0,5.0;" x1="270.6099" x2="270.6099" y1="76.2188" y2="539.4609"/><line style="stroke:#181818;stroke-width:0.5;stroke-dasharray:5.0,5.0;" x1="528.3149" x2="528.3149" y1="76.2188" y2="539.4609"/><rect fill="#E2E2F0" height="31.6094" rx="2.5" ry="2.5" style="stroke:#181818;stroke-width:0.5;" width="70.8066" x="30" y="43.6094"/><text fill="#000000" font-family="sans-serif" font-size="14" lengthAdjust="spacing" textLength="56.8066" x="37" y="65.1426">main.cpp</text><rect fill="#E2E2F0" height="31.6094" rx="2.5" ry="2.5" style="stroke:#181818;stroke-width:0.5;" width="70.8066" x="30" y="538.4609"/><text fill="#000000" font-family="sans-serif" font-size="14" lengthAdjust="spacing" textLength="56.8066" x="37" y="559.9941">main.cpp</text><rect fill="#E2E2F0" height="31.6094" rx="2.5" ry="2.5" style="stroke:#181818;stroke-width:0.5;" width="189.8408" x="176.6099" y="43.6094"/><text fill="#000000" font-family="sans-serif" font-size="14" lengthAdjust="spacing" textLength="175.8408" x="183.6099" y="65.1426">ARM_instructions_MOV.cpp</text><rect fill="#E2E2F0" height="31.6094" rx="2.5" ry="2.5" style="stroke:#181818;stroke-width:0.5;" width="189.8408" x="176.6099" y="538.4609"/><text fill="#000000" font-family="sans-serif" font-size="14" lengthAdjust="spacing" textLength="175.8408" x="183.6099" y="559.9941">ARM_instructions_MOV.cpp</text><rect fill="#E2E2F0" height="31.6094" rx="2.5" ry="2.5" style="stroke:#181818;stroke-width:0.5;" width="63.0342" x="497.3149" y="43.6094"/><text fill="#000000" font-family="sans-serif" font-size="14" lengthAdjust="spacing" textLength="49.0342" x="504.3149" y="65.1426">cpu.cpp</text><rect fill="#E2E2F0" height="31.6094" rx="2.5" ry="2.5" style="stroke:#181818;stroke-width:0.5;" width="63.0342" x="497.3149" y="538.4609"/><text fill="#000000" font-family="sans-serif" font-size="14" lengthAdjust="spacing" textLength="49.0342" x="504.3149" y="559.9941">cpu.cpp</text><polygon fill="#181818" points="259.5303,104.5703,269.5303,108.5703,259.5303,112.5703,263.5303,108.5703" style="stroke:#181818;stroke-width:1.0;"/><line style="stroke:#181818;stroke-width:1.0;" x1="65.4033" x2="265.5303" y1="108.5703" y2="108.5703"/><text fill="#000000" font-family="sans-serif" font-size="13" lengthAdjust="spacing" textLength="170.5107" x="72.4033" y="103.7139">executeMVN(cpu, instruction)</text><polygon fill="#181818" points="516.832,134.9219,526.832,138.9219,516.832,142.9219,520.832,138.9219" style="stroke:#181818;stroke-width:1.0;"/><line style="stroke:#181818;stroke-width:1.0;" x1="271.5303" x2="522.832" y1="138.9219" y2="138.9219"/><text fill="#000000" font-family="sans-serif" font-size="13" lengthAdjust="spacing" textLength="125.7344" x="278.5303" y="134.0654">checkCondition(cond)</text><line style="stroke:#181818;stroke-width:1.0;" x1="528.832" x2="570.832" y1="169.2734" y2="169.2734"/><line style="stroke:#181818;stroke-width:1.0;" x1="570.832" x2="570.832" y1="169.2734" y2="182.2734"/><line style="stroke:#181818;stroke-width:1.0;" x1="529.832" x2="570.832" y1="182.2734" y2="182.2734"/><polygon fill="#181818" points="539.832,178.2734,529.832,182.2734,539.832,186.2734,535.832,182.2734" style="stroke:#181818;stroke-width:1.0;"/><text fill="#000000" font-family="sans-serif" font-size="13" lengthAdjust="spacing" textLength="106.2407" x="535.832" y="164.417">Evaluate condition</text><polygon fill="#181818" points="282.5303,208.625,272.5303,212.625,282.5303,216.625,278.5303,212.625" style="stroke:#181818;stroke-width:1.0;"/><line style="stroke:#181818;stroke-width:1.0;stroke-dasharray:2.0,2.0;" x1="276.5303" x2="527.832" y1="212.625" y2="212.625"/><text fill="#000000" font-family="sans-serif" font-size="13" lengthAdjust="spacing" textLength="90.3271" x="288.5303" y="207.7686">Condition result</text><path d="M10,227.625 L70.1709,227.625 L70.1709,235.9766 L60.1709,245.9766 L10,245.9766 L10,227.625 " fill="#EEEEEE" style="stroke:#000000;stroke-width:1.5;"/><rect fill="none" height="294.8359" style="stroke:#000000;stroke-width:1.5;" width="570.3491" x="10" y="227.625"/><text fill="#000000" font-family="sans-serif" font-size="13" font-weight="bold" lengthAdjust="spacing" textLength="15.1709" x="25" y="242.1201">alt</text><text fill="#000000" font-family="sans-serif" font-size="11" font-weight="bold" lengthAdjust="spacing" textLength="100.2246" x="85.1709" y="241.0439">[Condition Passed]</text><polygon fill="#181818" points="516.832,264.3281,526.832,268.3281,516.832,272.3281,520.832,268.3281" style="stroke:#181818;stroke-width:1.0;"/><line style="stroke:#181818;stroke-width:1.0;" x1="271.5303" x2="522.832" y1="268.3281" y2="268.3281"/><text fill="#000000" font-family="sans-serif" font-size="13" lengthAdjust="spacing" textLength="149.2017" x="278.5303" y="263.4717">setRegister(Rd, ~Oprnd2)</text><path d="M20,283.3281 L80.1709,283.3281 L80.1709,291.6797 L70.1709,301.6797 L20,301.6797 L20,283.3281 " fill="#EEEEEE" style="stroke:#000000;stroke-width:1.5;"/><rect fill="none" height="155.5938" style="stroke:#000000;stroke-width:1.5;" width="550.3491" x="20" y="283.3281"/><text fill="#000000" font-family="sans-serif" font-size="13" font-weight="bold" lengthAdjust="spacing" textLength="15.1709" x="35" y="297.8232">alt</text><text fill="#000000" font-family="sans-serif" font-size="11" font-weight="bold" lengthAdjust="spacing" textLength="138.1392" x="95.1709" y="296.7471">[S bit is set and Rd is R15]</text><polygon fill="#181818" points="516.832,320.0313,526.832,324.0313,516.832,328.0313,520.832,324.0313" style="stroke:#181818;stroke-width:1.0;"/><line style="stroke:#181818;stroke-width:1.0;" x1="271.5303" x2="522.832" y1="324.0313" y2="324.0313"/><text fill="#000000" font-family="sans-serif" font-size="13" lengthAdjust="spacing" textLength="233.3018" x="278.5303" y="319.1748">setCPSR(cpu.getSPSR(), 0xFFFFFFFF)</text><polygon fill="#181818" points="76.4033,350.3828,66.4033,354.3828,76.4033,358.3828,72.4033,354.3828" style="stroke:#181818;stroke-width:1.0;"/><line style="stroke:#181818;stroke-width:1.0;" x1="70.4033" x2="270.5303" y1="354.3828" y2="354.3828"/><text fill="#000000" font-family="sans-serif" font-size="13" lengthAdjust="spacing" textLength="131.5044" x="82.4033" y="349.5264">SPSR copied to CPSR</text><line style="stroke:#000000;stroke-width:1.0;stroke-dasharray:2.0,2.0;" x1="20" x2="570.3491" y1="363.3828" y2="363.3828"/><text fill="#000000" font-family="sans-serif" font-size="11" font-weight="bold" lengthAdjust="spacing" textLength="158.2969" x="25" y="374.8018">[S bit is set and Rd is not R15]</text><polygon fill="#181818" points="516.832,396.5703,526.832,400.5703,516.832,404.5703,520.832,400.5703" style="stroke:#181818;stroke-width:1.0;"/><line style="stroke:#181818;stroke-width:1.0;" x1="271.5303" x2="522.832" y1="400.5703" y2="400.5703"/><text fill="#000000" font-family="sans-serif" font-size="13" lengthAdjust="spacing" textLength="131.1616" x="278.5303" y="395.7139">updateFlags(~Oprnd2)</text><polygon fill="#181818" points="76.4033,426.9219,66.4033,430.9219,76.4033,434.9219,72.4033,430.9219" style="stroke:#181818;stroke-width:1.0;"/><line style="stroke:#181818;stroke-width:1.0;" x1="70.4033" x2="270.5303" y1="430.9219" y2="430.9219"/><text fill="#000000" font-family="sans-serif" font-size="13" lengthAdjust="spacing" textLength="163.687" x="82.4033" y="426.0654">Flags updated with ~Oprnd2</text><polygon fill="#181818" points="76.4033,464.2734,66.4033,468.2734,76.4033,472.2734,72.4033,468.2734" style="stroke:#181818;stroke-width:1.0;"/><line style="stroke:#181818;stroke-width:1.0;" x1="70.4033" x2="270.5303" y1="468.2734" y2="468.2734"/><text fill="#000000" font-family="sans-serif" font-size="13" lengthAdjust="spacing" textLength="158.6089" x="82.4033" y="463.417">Register Rd set to ~Oprnd2</text><line style="stroke:#000000;stroke-width:1.0;stroke-dasharray:2.0,2.0;" x1="10" x2="580.3491" y1="477.2734" y2="477.2734"/><text fill="#000000" font-family="sans-serif" font-size="11" font-weight="bold" lengthAdjust="spacing" textLength="93.4839" x="15" y="488.6924">[Condition Failed]</text><polygon fill="#181818" points="76.4033,510.4609,66.4033,514.4609,76.4033,518.4609,72.4033,514.4609" style="stroke:#181818;stroke-width:1.0;"/><line style="stroke:#181818;stroke-width:1.0;" x1="70.4033" x2="270.5303" y1="514.4609" y2="514.4609"/><text fill="#000000" font-family="sans-serif" font-size="13" lengthAdjust="spacing" textLength="182.127" x="82.4033" y="509.6045">Condition failed, do not execute</text><!--SRC=[TP8nJyCm48Lt_ufJfqGA5I2nT412LIinX5Qfw5eP-sWjZ6F55-Z4RyVdDaq3hISxzzsxTqyXGnQXNB_0imlKj8fCxM2sHzNoJGWl6pBAUEa8Hf_IkB7oVWGoG1aVm_9JLMvCBnCsvMBTuulra5Q-FHMdorSXM11k7fcS02OB69rb4IpWJ3SNaM0mTar0xL1zJ6kd3TSo5M-vY9KJCFkIjfM4e3heKEucdNgXmT1Q4jBIsSUb306rW7ZEnmQa2hSc43PPfGluMVZ6wViyWQomWZT3O0AJ89s6IlEhkdj8o0MzwN9LyRBZBTAAxta1j_lvyUH_spYk2J0OD_C6DL0Dh950j06lUN0rNVNHUXspcbkv3TbWft-J4tFaDNmRsdKX70ouGMY7dYuoDiAUekEk9ndkOvzBO_62Ga-y9w80NQU5ZZ-CuBc_]--></g></svg>