<svg xmlns="http://www.w3.org/2000/svg" xmlns:xlink="http://www.w3.org/1999/xlink" contentStyleType="text/css" height="576px" preserveAspectRatio="none" style="width:610px;height:576px;background:#FFFFFF;" version="1.1" viewBox="0 0 610 576" width="610px" zoomAndPan="magnify"><title>MSRImmediate Instruction Execution</title><defs/><g><text fill="#000000" font-family="sans-serif" font-size="14" font-weight="bold" lengthAdjust="spacing" textLength="247.3721" x="180.8999" y="29.5332">MSRImmediate Instruction Execution</text><rect fill="none" height="294.8359" style="stroke:#000000;stroke-width:1.5;" width="531.4482" x="10" y="227.625"/><rect fill="none" height="94.8906" style="stroke:#000000;stroke-width:1.5;" width="325.7646" x="205.6836" y="344.0313"/><line style="stroke:#181818;stroke-width:0.5;stroke-dasharray:5.0,5.0;" x1="55" x2="55" y1="76.2188" y2="539.4609"/><line style="stroke:#181818;stroke-width:0.5;stroke-dasharray:5.0,5.0;" x1="309.6836" x2="309.6836" y1="76.2188" y2="539.4609"/><line style="stroke:#181818;stroke-width:0.5;stroke-dasharray:5.0,5.0;" x1="489.4141" x2="489.4141" y1="76.2188" y2="539.4609"/><rect fill="#E2E2F0" height="31.6094" rx="2.5" ry="2.5" style="stroke:#181818;stroke-width:0.5;" width="70.8066" x="20" y="43.6094"/><text fill="#000000" font-family="sans-serif" font-size="14" lengthAdjust="spacing" textLength="56.8066" x="27" y="65.1426">main.cpp</text><rect fill="#E2E2F0" height="31.6094" rx="2.5" ry="2.5" style="stroke:#181818;stroke-width:0.5;" width="70.8066" x="20" y="538.4609"/><text fill="#000000" font-family="sans-serif" font-size="14" lengthAdjust="spacing" textLength="56.8066" x="27" y="559.9941">main.cpp</text><rect fill="#E2E2F0" height="31.6094" rx="2.5" ry="2.5" style="stroke:#181818;stroke-width:0.5;" width="189.8408" x="215.6836" y="43.6094"/><text fill="#000000" font-family="sans-serif" font-size="14" lengthAdjust="spacing" textLength="175.8408" x="222.6836" y="65.1426">ARM_instructions_MOV.cpp</text><rect fill="#E2E2F0" height="31.6094" rx="2.5" ry="2.5" style="stroke:#181818;stroke-width:0.5;" width="189.8408" x="215.6836" y="538.4609"/><text fill="#000000" font-family="sans-serif" font-size="14" lengthAdjust="spacing" textLength="175.8408" x="222.6836" y="559.9941">ARM_instructions_MOV.cpp</text><rect fill="#E2E2F0" height="31.6094" rx="2.5" ry="2.5" style="stroke:#181818;stroke-width:0.5;" width="63.0342" x="458.4141" y="43.6094"/><text fill="#000000" font-family="sans-serif" font-size="14" lengthAdjust="spacing" textLength="49.0342" x="465.4141" y="65.1426">cpu.cpp</text><rect fill="#E2E2F0" height="31.6094" rx="2.5" ry="2.5" style="stroke:#181818;stroke-width:0.5;" width="63.0342" x="458.4141" y="538.4609"/><text fill="#000000" font-family="sans-serif" font-size="14" lengthAdjust="spacing" textLength="49.0342" x="465.4141" y="559.9941">cpu.cpp</text><polygon fill="#181818" points="298.604,104.5703,308.604,108.5703,298.604,112.5703,302.604,108.5703" style="stroke:#181818;stroke-width:1.0;"/><line style="stroke:#181818;stroke-width:1.0;" x1="55.4033" x2="304.604" y1="108.5703" y2="108.5703"/><text fill="#000000" font-family="sans-serif" font-size="13" lengthAdjust="spacing" textLength="231.2007" x="62.4033" y="103.7139">executeMSRImmediate(cpu, instruction)</text><polygon fill="#181818" points="477.9312,134.9219,487.9312,138.9219,477.9312,142.9219,481.9312,138.9219" style="stroke:#181818;stroke-width:1.0;"/><line style="stroke:#181818;stroke-width:1.0;" x1="310.604" x2="483.9312" y1="138.9219" y2="138.9219"/><text fill="#000000" font-family="sans-serif" font-size="13" lengthAdjust="spacing" textLength="125.7344" x="317.604" y="134.0654">checkCondition(cond)</text><line style="stroke:#181818;stroke-width:1.0;" x1="489.9312" x2="531.9312" y1="169.2734" y2="169.2734"/><line style="stroke:#181818;stroke-width:1.0;" x1="531.9312" x2="531.9312" y1="169.2734" y2="182.2734"/><line style="stroke:#181818;stroke-width:1.0;" x1="490.9312" x2="531.9312" y1="182.2734" y2="182.2734"/><polygon fill="#181818" points="500.9312,178.2734,490.9312,182.2734,500.9312,186.2734,496.9312,182.2734" style="stroke:#181818;stroke-width:1.0;"/><text fill="#000000" font-family="sans-serif" font-size="13" lengthAdjust="spacing" textLength="106.2407" x="496.9312" y="164.417">Evaluate condition</text><polygon fill="#181818" points="321.604,208.625,311.604,212.625,321.604,216.625,317.604,212.625" style="stroke:#181818;stroke-width:1.0;"/><line style="stroke:#181818;stroke-width:1.0;stroke-dasharray:2.0,2.0;" x1="315.604" x2="488.9312" y1="212.625" y2="212.625"/><text fill="#000000" font-family="sans-serif" font-size="13" lengthAdjust="spacing" textLength="90.3271" x="327.604" y="207.7686">Condition result</text><path d="M10,227.625 L70.1709,227.625 L70.1709,235.9766 L60.1709,245.9766 L10,245.9766 L10,227.625 " fill="#EEEEEE" style="stroke:#000000;stroke-width:1.5;"/><rect fill="none" height="294.8359" style="stroke:#000000;stroke-width:1.5;" width="531.4482" x="10" y="227.625"/><text fill="#000000" font-family="sans-serif" font-size="13" font-weight="bold" lengthAdjust="spacing" textLength="15.1709" x="25" y="242.1201">alt</text><text fill="#000000" font-family="sans-serif" font-size="11" font-weight="bold" lengthAdjust="spacing" textLength="100.2246" x="85.1709" y="241.0439">[Condition Passed]</text><polygon fill="#181818" points="477.9312,264.3281,487.9312,268.3281,477.9312,272.3281,481.9312,268.3281" style="stroke:#181818;stroke-width:1.0;"/><line style="stroke:#181818;stroke-width:1.0;" x1="310.604" x2="483.9312" y1="268.3281" y2="268.3281"/><text fill="#000000" font-family="sans-serif" font-size="13" lengthAdjust="spacing" textLength="136.5698" x="317.604" y="263.4717">Rotate immediate value</text><polygon fill="#181818" points="477.9312,294.6797,487.9312,298.6797,477.9312,302.6797,481.9312,298.6797" style="stroke:#181818;stroke-width:1.0;"/><line style="stroke:#181818;stroke-width:1.0;" x1="310.604" x2="483.9312" y1="298.6797" y2="298.6797"/><text fill="#000000" font-family="sans-serif" font-size="13" lengthAdjust="spacing" textLength="135.8145" x="317.604" y="293.8232">getCPSR() / getSPSR()</text><polygon fill="#181818" points="321.604,325.0313,311.604,329.0313,321.604,333.0313,317.604,329.0313" style="stroke:#181818;stroke-width:1.0;"/><line style="stroke:#181818;stroke-width:1.0;stroke-dasharray:2.0,2.0;" x1="315.604" x2="488.9312" y1="329.0313" y2="329.0313"/><text fill="#000000" font-family="sans-serif" font-size="13" lengthAdjust="spacing" textLength="61.4199" x="327.604" y="324.1748">PSR value</text><path d="M205.6836,344.0313 L265.8545,344.0313 L265.8545,352.3828 L255.8545,362.3828 L205.6836,362.3828 L205.6836,344.0313 " fill="#EEEEEE" style="stroke:#000000;stroke-width:1.5;"/><rect fill="none" height="94.8906" style="stroke:#000000;stroke-width:1.5;" width="325.7646" x="205.6836" y="344.0313"/><text fill="#000000" font-family="sans-serif" font-size="13" font-weight="bold" lengthAdjust="spacing" textLength="15.1709" x="220.6836" y="358.5264">alt</text><text fill="#000000" font-family="sans-serif" font-size="11" font-weight="bold" lengthAdjust="spacing" textLength="75.7915" x="280.8545" y="357.4502">[PSR is CPSR]</text><polygon fill="#181818" points="477.9312,380.7344,487.9312,384.7344,477.9312,388.7344,481.9312,384.7344" style="stroke:#181818;stroke-width:1.0;"/><line style="stroke:#181818;stroke-width:1.0;" x1="310.604" x2="483.9312" y1="384.7344" y2="384.7344"/><text fill="#000000" font-family="sans-serif" font-size="13" lengthAdjust="spacing" textLength="155.3271" x="317.604" y="379.8779">setCPSR(value, fieldMask)</text><line style="stroke:#000000;stroke-width:1.0;stroke-dasharray:2.0,2.0;" x1="205.6836" x2="531.4482" y1="393.7344" y2="393.7344"/><text fill="#000000" font-family="sans-serif" font-size="11" font-weight="bold" lengthAdjust="spacing" textLength="75.1846" x="210.6836" y="405.1533">[PSR is SPSR]</text><polygon fill="#181818" points="477.9312,426.9219,487.9312,430.9219,477.9312,434.9219,481.9312,430.9219" style="stroke:#181818;stroke-width:1.0;"/><line style="stroke:#181818;stroke-width:1.0;" x1="310.604" x2="483.9312" y1="430.9219" y2="430.9219"/><text fill="#000000" font-family="sans-serif" font-size="13" lengthAdjust="spacing" textLength="154.6099" x="317.604" y="426.0654">setSPSR(value, fieldMask)</text><polygon fill="#181818" points="66.4033,464.2734,56.4033,468.2734,66.4033,472.2734,62.4033,468.2734" style="stroke:#181818;stroke-width:1.0;"/><line style="stroke:#181818;stroke-width:1.0;" x1="60.4033" x2="309.604" y1="468.2734" y2="468.2734"/><text fill="#000000" font-family="sans-serif" font-size="13" lengthAdjust="spacing" textLength="39.019" x="72.4033" y="463.417">Return</text><line style="stroke:#000000;stroke-width:1.0;stroke-dasharray:2.0,2.0;" x1="10" x2="541.4482" y1="477.2734" y2="477.2734"/><text fill="#000000" font-family="sans-serif" font-size="11" font-weight="bold" lengthAdjust="spacing" textLength="93.4839" x="15" y="488.6924">[Condition Failed]</text><polygon fill="#181818" points="66.4033,510.4609,56.4033,514.4609,66.4033,518.4609,62.4033,514.4609" style="stroke:#181818;stroke-width:1.0;"/><line style="stroke:#181818;stroke-width:1.0;" x1="60.4033" x2="309.604" y1="514.4609" y2="514.4609"/><text fill="#000000" font-family="sans-serif" font-size="13" lengthAdjust="spacing" textLength="39.019" x="72.4033" y="509.6045">Return</text><!--SRC=[VP5DQyCm38Rl_XMYfmIwxTx3O8GEUWWDCUkr64VRH1qdnFROpv_bBbyR92T5xwj77_Ra3K8fwrFROaFA8voiyqFGdZeBns_KWICXUZLuqjGhws7NAhAFkkzte1oKyMSjlzJbbMQCkvRdosm_NzPktOT9BAet8HW83y_iF02c4N0vOXOhzh1ea8jevOfOVW3zYVfMTBOXrZ8Tern4PJ8SlvG9lAeUJNTvR3dLme0k62-KyOjafPp3Ha3ybcthpZEJfaDo5_nd-q1VLBBESdZYMAOukLOpnFG2m0DmXlX2iawvls3t2qvLUtWdD4sftEqEH-DmHCWDXDn0sDNI_4fnQ_HXi2BXvnEzAZAuuOwa7m00]--></g></svg>