<svg xmlns="http://www.w3.org/2000/svg" xmlns:xlink="http://www.w3.org/1999/xlink" contentStyleType="text/css" height="529px" preserveAspectRatio="none" style="width:565px;height:529px;background:#FFFFFF;" version="1.1" viewBox="0 0 565 529" width="565px" zoomAndPan="magnify"><title>ADD Instruction Execution</title><defs/><g><text fill="#000000" font-family="sans-serif" font-size="14" font-weight="bold" lengthAdjust="spacing" textLength="177.3447" x="193.7063" y="29.5332">ADD Instruction Execution</text><rect fill="none" height="248.6484" style="stroke:#000000;stroke-width:1.5;" width="487.0337" x="10" y="227.625"/><rect fill="none" height="48.7031" style="stroke:#000000;stroke-width:1.5;" width="370.312" x="116.7217" y="344.0313"/><line style="stroke:#181818;stroke-width:0.5;stroke-dasharray:5.0,5.0;" x1="55" x2="55" y1="76.2188" y2="493.2734"/><line style="stroke:#181818;stroke-width:0.5;stroke-dasharray:5.0,5.0;" x1="247.7217" x2="247.7217" y1="76.2188" y2="493.2734"/><line style="stroke:#181818;stroke-width:0.5;stroke-dasharray:5.0,5.0;" x1="444.9995" x2="444.9995" y1="76.2188" y2="493.2734"/><rect fill="#E2E2F0" height="31.6094" rx="2.5" ry="2.5" style="stroke:#181818;stroke-width:0.5;" width="70.8066" x="20" y="43.6094"/><text fill="#000000" font-family="sans-serif" font-size="14" lengthAdjust="spacing" textLength="56.8066" x="27" y="65.1426">main.cpp</text><rect fill="#E2E2F0" height="31.6094" rx="2.5" ry="2.5" style="stroke:#181818;stroke-width:0.5;" width="70.8066" x="20" y="492.2734"/><text fill="#000000" font-family="sans-serif" font-size="14" lengthAdjust="spacing" textLength="56.8066" x="27" y="513.8066">main.cpp</text><rect fill="#E2E2F0" height="31.6094" rx="2.5" ry="2.5" style="stroke:#181818;stroke-width:0.5;" width="243.5029" x="126.7217" y="43.6094"/><text fill="#000000" font-family="sans-serif" font-size="14" lengthAdjust="spacing" textLength="229.5029" x="133.7217" y="65.1426">ARM_instructions_ARITHMETIC.cpp</text><rect fill="#E2E2F0" height="31.6094" rx="2.5" ry="2.5" style="stroke:#181818;stroke-width:0.5;" width="243.5029" x="126.7217" y="492.2734"/><text fill="#000000" font-family="sans-serif" font-size="14" lengthAdjust="spacing" textLength="229.5029" x="133.7217" y="513.8066">ARM_instructions_ARITHMETIC.cpp</text><rect fill="#E2E2F0" height="31.6094" rx="2.5" ry="2.5" style="stroke:#181818;stroke-width:0.5;" width="63.0342" x="413.9995" y="43.6094"/><text fill="#000000" font-family="sans-serif" font-size="14" lengthAdjust="spacing" textLength="49.0342" x="420.9995" y="65.1426">cpu.cpp</text><rect fill="#E2E2F0" height="31.6094" rx="2.5" ry="2.5" style="stroke:#181818;stroke-width:0.5;" width="63.0342" x="413.9995" y="492.2734"/><text fill="#000000" font-family="sans-serif" font-size="14" lengthAdjust="spacing" textLength="49.0342" x="420.9995" y="513.8066">cpu.cpp</text><polygon fill="#181818" points="236.4731,104.5703,246.4731,108.5703,236.4731,112.5703,240.4731,108.5703" style="stroke:#181818;stroke-width:1.0;"/><line style="stroke:#181818;stroke-width:1.0;" x1="55.4033" x2="242.4731" y1="108.5703" y2="108.5703"/><text fill="#000000" font-family="sans-serif" font-size="13" lengthAdjust="spacing" textLength="169.0698" x="62.4033" y="103.7139">executeADD(cpu, instruction)</text><polygon fill="#181818" points="433.5166,134.9219,443.5166,138.9219,433.5166,142.9219,437.5166,138.9219" style="stroke:#181818;stroke-width:1.0;"/><line style="stroke:#181818;stroke-width:1.0;" x1="248.4731" x2="439.5166" y1="138.9219" y2="138.9219"/><text fill="#000000" font-family="sans-serif" font-size="13" lengthAdjust="spacing" textLength="125.7344" x="255.4731" y="134.0654">checkCondition(cond)</text><line style="stroke:#181818;stroke-width:1.0;" x1="445.5166" x2="487.5166" y1="169.2734" y2="169.2734"/><line style="stroke:#181818;stroke-width:1.0;" x1="487.5166" x2="487.5166" y1="169.2734" y2="182.2734"/><line style="stroke:#181818;stroke-width:1.0;" x1="446.5166" x2="487.5166" y1="182.2734" y2="182.2734"/><polygon fill="#181818" points="456.5166,178.2734,446.5166,182.2734,456.5166,186.2734,452.5166,182.2734" style="stroke:#181818;stroke-width:1.0;"/><text fill="#000000" font-family="sans-serif" font-size="13" lengthAdjust="spacing" textLength="106.2407" x="452.5166" y="164.417">Evaluate condition</text><polygon fill="#181818" points="259.4731,208.625,249.4731,212.625,259.4731,216.625,255.4731,212.625" style="stroke:#181818;stroke-width:1.0;"/><line style="stroke:#181818;stroke-width:1.0;stroke-dasharray:2.0,2.0;" x1="253.4731" x2="444.5166" y1="212.625" y2="212.625"/><text fill="#000000" font-family="sans-serif" font-size="13" lengthAdjust="spacing" textLength="90.3271" x="265.4731" y="207.7686">Condition result</text><path d="M10,227.625 L70.1709,227.625 L70.1709,235.9766 L60.1709,245.9766 L10,245.9766 L10,227.625 " fill="#EEEEEE" style="stroke:#000000;stroke-width:1.5;"/><rect fill="none" height="248.6484" style="stroke:#000000;stroke-width:1.5;" width="487.0337" x="10" y="227.625"/><text fill="#000000" font-family="sans-serif" font-size="13" font-weight="bold" lengthAdjust="spacing" textLength="15.1709" x="25" y="242.1201">alt</text><text fill="#000000" font-family="sans-serif" font-size="11" font-weight="bold" lengthAdjust="spacing" textLength="100.2246" x="85.1709" y="241.0439">[Condition Passed]</text><polygon fill="#181818" points="433.5166,264.3281,443.5166,268.3281,433.5166,272.3281,437.5166,268.3281" style="stroke:#181818;stroke-width:1.0;"/><line style="stroke:#181818;stroke-width:1.0;" x1="248.4731" x2="439.5166" y1="268.3281" y2="268.3281"/><text fill="#000000" font-family="sans-serif" font-size="13" lengthAdjust="spacing" textLength="91.7554" x="255.4731" y="263.4717">getRegister(Rn)</text><polygon fill="#181818" points="259.4731,294.6797,249.4731,298.6797,259.4731,302.6797,255.4731,298.6797" style="stroke:#181818;stroke-width:1.0;"/><line style="stroke:#181818;stroke-width:1.0;stroke-dasharray:2.0,2.0;" x1="253.4731" x2="444.5166" y1="298.6797" y2="298.6797"/><text fill="#000000" font-family="sans-serif" font-size="13" lengthAdjust="spacing" textLength="51.3081" x="265.4731" y="293.8232">Rn value</text><polygon fill="#181818" points="433.5166,325.0313,443.5166,329.0313,433.5166,333.0313,437.5166,329.0313" style="stroke:#181818;stroke-width:1.0;"/><line style="stroke:#181818;stroke-width:1.0;" x1="248.4731" x2="439.5166" y1="329.0313" y2="329.0313"/><text fill="#000000" font-family="sans-serif" font-size="13" lengthAdjust="spacing" textLength="173.0435" x="255.4731" y="324.1748">setRegister(Rd, Rn + Oprnd2)</text><path d="M116.7217,344.0313 L176.8926,344.0313 L176.8926,352.3828 L166.8926,362.3828 L116.7217,362.3828 L116.7217,344.0313 " fill="#EEEEEE" style="stroke:#000000;stroke-width:1.5;"/><rect fill="none" height="48.7031" style="stroke:#000000;stroke-width:1.5;" width="370.312" x="116.7217" y="344.0313"/><text fill="#000000" font-family="sans-serif" font-size="13" font-weight="bold" lengthAdjust="spacing" textLength="15.1709" x="131.7217" y="358.5264">alt</text><text fill="#000000" font-family="sans-serif" font-size="11" font-weight="bold" lengthAdjust="spacing" textLength="62.3423" x="191.8926" y="357.4502">[S bit is set]</text><polygon fill="#181818" points="433.5166,380.7344,443.5166,384.7344,433.5166,388.7344,437.5166,384.7344" style="stroke:#181818;stroke-width:1.0;"/><line style="stroke:#181818;stroke-width:1.0;" x1="248.4731" x2="439.5166" y1="384.7344" y2="384.7344"/><text fill="#000000" font-family="sans-serif" font-size="13" lengthAdjust="spacing" textLength="111.998" x="255.4731" y="379.8779">updateFlags(result)</text><polygon fill="#181818" points="66.4033,418.0859,56.4033,422.0859,66.4033,426.0859,62.4033,422.0859" style="stroke:#181818;stroke-width:1.0;"/><line style="stroke:#181818;stroke-width:1.0;" x1="60.4033" x2="247.4731" y1="422.0859" y2="422.0859"/><text fill="#000000" font-family="sans-serif" font-size="13" lengthAdjust="spacing" textLength="39.019" x="72.4033" y="417.2295">Return</text><line style="stroke:#000000;stroke-width:1.0;stroke-dasharray:2.0,2.0;" x1="10" x2="497.0337" y1="431.0859" y2="431.0859"/><text fill="#000000" font-family="sans-serif" font-size="11" font-weight="bold" lengthAdjust="spacing" textLength="93.4839" x="15" y="442.5049">[Condition Failed]</text><polygon fill="#181818" points="66.4033,464.2734,56.4033,468.2734,66.4033,472.2734,62.4033,468.2734" style="stroke:#181818;stroke-width:1.0;"/><line style="stroke:#181818;stroke-width:1.0;" x1="60.4033" x2="247.4731" y1="468.2734" y2="468.2734"/><text fill="#000000" font-family="sans-serif" font-size="13" lengthAdjust="spacing" textLength="39.019" x="72.4033" y="463.417">Return</text><!--SRC=[VP0nJyCm48Lt_ufJfrGK1iOEI56QYWmHLIXpPPnJE65SopuZVZvsBDAa838vzxxtxjbCh17AtGuQuza5nNGsK7-X2kaaX9MEIP6LXc7r8SdSAMjN83sqyMSfbrrxeakCFvLTStniwsDJJQvnjBGf6oQvEhm8aPBXzY6pMy2n3SQIHKGtC5kn5YEJuEZSWdf3zLwTJKz9BLGyhKLK9g3-b3f8Hb0_K9OlsoOtEFH1iv2QPyE3z1vx0V5RhXwGEnp8CxgYYyKISHNT6KZhyG-tdxlxJK9luCawqz_dgDJY6Lw9WNoYn-7ld63xUBkzbeClSlziHtFLERrnR8GSd16eFSxkk9UayLy-fdq3]--></g></svg>