<svg xmlns="http://www.w3.org/2000/svg" xmlns:xlink="http://www.w3.org/1999/xlink" contentStyleType="text/css" height="651px" preserveAspectRatio="none" style="width:578px;height:651px;background:#FFFFFF;" version="1.1" viewBox="0 0 578 651" width="578px" zoomAndPan="magnify"><title>MLA Instruction Execution</title><defs/><g><text fill="#000000" font-family="sans-serif" font-size="14" font-weight="bold" lengthAdjust="spacing" textLength="177.3379" x="200.1938" y="29.5332">MLA Instruction Execution</text><rect fill="none" height="370.0547" style="stroke:#000000;stroke-width:1.5;" width="500.002" x="10" y="227.625"/><rect fill="none" height="48.7031" style="stroke:#000000;stroke-width:1.5;" width="383.9976" x="116.0044" y="465.4375"/><line style="stroke:#181818;stroke-width:0.5;stroke-dasharray:5.0,5.0;" x1="55" x2="55" y1="76.2188" y2="614.6797"/><line style="stroke:#181818;stroke-width:0.5;stroke-dasharray:5.0,5.0;" x1="247.0044" x2="247.0044" y1="76.2188" y2="614.6797"/><line style="stroke:#181818;stroke-width:0.5;stroke-dasharray:5.0,5.0;" x1="457.9678" x2="457.9678" y1="76.2188" y2="614.6797"/><rect fill="#E2E2F0" height="31.6094" rx="2.5" ry="2.5" style="stroke:#181818;stroke-width:0.5;" width="70.8066" x="20" y="43.6094"/><text fill="#000000" font-family="sans-serif" font-size="14" lengthAdjust="spacing" textLength="56.8066" x="27" y="65.1426">main.cpp</text><rect fill="#E2E2F0" height="31.6094" rx="2.5" ry="2.5" style="stroke:#181818;stroke-width:0.5;" width="70.8066" x="20" y="613.6797"/><text fill="#000000" font-family="sans-serif" font-size="14" lengthAdjust="spacing" textLength="56.8066" x="27" y="635.2129">main.cpp</text><rect fill="#E2E2F0" height="31.6094" rx="2.5" ry="2.5" style="stroke:#181818;stroke-width:0.5;" width="243.5029" x="126.0044" y="43.6094"/><text fill="#000000" font-family="sans-serif" font-size="14" lengthAdjust="spacing" textLength="229.5029" x="133.0044" y="65.1426">ARM_instructions_ARITHMETIC.cpp</text><rect fill="#E2E2F0" height="31.6094" rx="2.5" ry="2.5" style="stroke:#181818;stroke-width:0.5;" width="243.5029" x="126.0044" y="613.6797"/><text fill="#000000" font-family="sans-serif" font-size="14" lengthAdjust="spacing" textLength="229.5029" x="133.0044" y="635.2129">ARM_instructions_ARITHMETIC.cpp</text><rect fill="#E2E2F0" height="31.6094" rx="2.5" ry="2.5" style="stroke:#181818;stroke-width:0.5;" width="63.0342" x="426.9678" y="43.6094"/><text fill="#000000" font-family="sans-serif" font-size="14" lengthAdjust="spacing" textLength="49.0342" x="433.9678" y="65.1426">cpu.cpp</text><rect fill="#E2E2F0" height="31.6094" rx="2.5" ry="2.5" style="stroke:#181818;stroke-width:0.5;" width="63.0342" x="426.9678" y="613.6797"/><text fill="#000000" font-family="sans-serif" font-size="14" lengthAdjust="spacing" textLength="49.0342" x="433.9678" y="635.2129">cpu.cpp</text><polygon fill="#181818" points="235.7559,104.5703,245.7559,108.5703,235.7559,112.5703,239.7559,108.5703" style="stroke:#181818;stroke-width:1.0;"/><line style="stroke:#181818;stroke-width:1.0;" x1="55.4033" x2="241.7559" y1="108.5703" y2="108.5703"/><text fill="#000000" font-family="sans-serif" font-size="13" lengthAdjust="spacing" textLength="168.3525" x="62.4033" y="103.7139">executeMLA(cpu, instruction)</text><polygon fill="#181818" points="446.4849,134.9219,456.4849,138.9219,446.4849,142.9219,450.4849,138.9219" style="stroke:#181818;stroke-width:1.0;"/><line style="stroke:#181818;stroke-width:1.0;" x1="247.7559" x2="452.4849" y1="138.9219" y2="138.9219"/><text fill="#000000" font-family="sans-serif" font-size="13" lengthAdjust="spacing" textLength="125.7344" x="254.7559" y="134.0654">checkCondition(cond)</text><line style="stroke:#181818;stroke-width:1.0;" x1="458.4849" x2="500.4849" y1="169.2734" y2="169.2734"/><line style="stroke:#181818;stroke-width:1.0;" x1="500.4849" x2="500.4849" y1="169.2734" y2="182.2734"/><line style="stroke:#181818;stroke-width:1.0;" x1="459.4849" x2="500.4849" y1="182.2734" y2="182.2734"/><polygon fill="#181818" points="469.4849,178.2734,459.4849,182.2734,469.4849,186.2734,465.4849,182.2734" style="stroke:#181818;stroke-width:1.0;"/><text fill="#000000" font-family="sans-serif" font-size="13" lengthAdjust="spacing" textLength="106.2407" x="465.4849" y="164.417">Evaluate condition</text><polygon fill="#181818" points="258.7559,208.625,248.7559,212.625,258.7559,216.625,254.7559,212.625" style="stroke:#181818;stroke-width:1.0;"/><line style="stroke:#181818;stroke-width:1.0;stroke-dasharray:2.0,2.0;" x1="252.7559" x2="457.4849" y1="212.625" y2="212.625"/><text fill="#000000" font-family="sans-serif" font-size="13" lengthAdjust="spacing" textLength="90.3271" x="264.7559" y="207.7686">Condition result</text><path d="M10,227.625 L70.1709,227.625 L70.1709,235.9766 L60.1709,245.9766 L10,245.9766 L10,227.625 " fill="#EEEEEE" style="stroke:#000000;stroke-width:1.5;"/><rect fill="none" height="370.0547" style="stroke:#000000;stroke-width:1.5;" width="500.002" x="10" y="227.625"/><text fill="#000000" font-family="sans-serif" font-size="13" font-weight="bold" lengthAdjust="spacing" textLength="15.1709" x="25" y="242.1201">alt</text><text fill="#000000" font-family="sans-serif" font-size="11" font-weight="bold" lengthAdjust="spacing" textLength="100.2246" x="85.1709" y="241.0439">[Condition Passed]</text><polygon fill="#181818" points="446.4849,264.3281,456.4849,268.3281,446.4849,272.3281,450.4849,268.3281" style="stroke:#181818;stroke-width:1.0;"/><line style="stroke:#181818;stroke-width:1.0;" x1="247.7559" x2="452.4849" y1="268.3281" y2="268.3281"/><text fill="#000000" font-family="sans-serif" font-size="13" lengthAdjust="spacing" textLength="95.3545" x="254.7559" y="263.4717">getRegister(Rm)</text><polygon fill="#181818" points="258.7559,294.6797,248.7559,298.6797,258.7559,302.6797,254.7559,298.6797" style="stroke:#181818;stroke-width:1.0;"/><line style="stroke:#181818;stroke-width:1.0;stroke-dasharray:2.0,2.0;" x1="252.7559" x2="457.4849" y1="298.6797" y2="298.6797"/><text fill="#000000" font-family="sans-serif" font-size="13" lengthAdjust="spacing" textLength="54.9072" x="264.7559" y="293.8232">Rm value</text><polygon fill="#181818" points="446.4849,325.0313,456.4849,329.0313,446.4849,333.0313,450.4849,329.0313" style="stroke:#181818;stroke-width:1.0;"/><line style="stroke:#181818;stroke-width:1.0;" x1="247.7559" x2="452.4849" y1="329.0313" y2="329.0313"/><text fill="#000000" font-family="sans-serif" font-size="13" lengthAdjust="spacing" textLength="91.0254" x="254.7559" y="324.1748">getRegister(Rs)</text><polygon fill="#181818" points="258.7559,355.3828,248.7559,359.3828,258.7559,363.3828,254.7559,359.3828" style="stroke:#181818;stroke-width:1.0;"/><line style="stroke:#181818;stroke-width:1.0;stroke-dasharray:2.0,2.0;" x1="252.7559" x2="457.4849" y1="359.3828" y2="359.3828"/><text fill="#000000" font-family="sans-serif" font-size="13" lengthAdjust="spacing" textLength="50.5781" x="264.7559" y="354.5264">Rs value</text><polygon fill="#181818" points="446.4849,385.7344,456.4849,389.7344,446.4849,393.7344,450.4849,389.7344" style="stroke:#181818;stroke-width:1.0;"/><line style="stroke:#181818;stroke-width:1.0;" x1="247.7559" x2="452.4849" y1="389.7344" y2="389.7344"/><text fill="#000000" font-family="sans-serif" font-size="13" lengthAdjust="spacing" textLength="91.7554" x="254.7559" y="384.8779">getRegister(Rn)</text><polygon fill="#181818" points="258.7559,416.0859,248.7559,420.0859,258.7559,424.0859,254.7559,420.0859" style="stroke:#181818;stroke-width:1.0;"/><line style="stroke:#181818;stroke-width:1.0;stroke-dasharray:2.0,2.0;" x1="252.7559" x2="457.4849" y1="420.0859" y2="420.0859"/><text fill="#000000" font-family="sans-serif" font-size="13" lengthAdjust="spacing" textLength="51.3081" x="264.7559" y="415.2295">Rn value</text><polygon fill="#181818" points="446.4849,446.4375,456.4849,450.4375,446.4849,454.4375,450.4849,450.4375" style="stroke:#181818;stroke-width:1.0;"/><line style="stroke:#181818;stroke-width:1.0;" x1="247.7559" x2="452.4849" y1="450.4375" y2="450.4375"/><text fill="#000000" font-family="sans-serif" font-size="13" lengthAdjust="spacing" textLength="186.729" x="254.7559" y="445.5811">setRegister(Rd, (Rm * Rs) + Rn)</text><path d="M116.0044,465.4375 L176.1753,465.4375 L176.1753,473.7891 L166.1753,483.7891 L116.0044,483.7891 L116.0044,465.4375 " fill="#EEEEEE" style="stroke:#000000;stroke-width:1.5;"/><rect fill="none" height="48.7031" style="stroke:#000000;stroke-width:1.5;" width="383.9976" x="116.0044" y="465.4375"/><text fill="#000000" font-family="sans-serif" font-size="13" font-weight="bold" lengthAdjust="spacing" textLength="15.1709" x="131.0044" y="479.9326">alt</text><text fill="#000000" font-family="sans-serif" font-size="11" font-weight="bold" lengthAdjust="spacing" textLength="62.3423" x="191.1753" y="478.8564">[S bit is set]</text><polygon fill="#181818" points="446.4849,502.1406,456.4849,506.1406,446.4849,510.1406,450.4849,506.1406" style="stroke:#181818;stroke-width:1.0;"/><line style="stroke:#181818;stroke-width:1.0;" x1="247.7559" x2="452.4849" y1="506.1406" y2="506.1406"/><text fill="#000000" font-family="sans-serif" font-size="13" lengthAdjust="spacing" textLength="111.998" x="254.7559" y="501.2842">updateFlags(result)</text><polygon fill="#181818" points="66.4033,539.4922,56.4033,543.4922,66.4033,547.4922,62.4033,543.4922" style="stroke:#181818;stroke-width:1.0;"/><line style="stroke:#181818;stroke-width:1.0;" x1="60.4033" x2="246.7559" y1="543.4922" y2="543.4922"/><text fill="#000000" font-family="sans-serif" font-size="13" lengthAdjust="spacing" textLength="39.019" x="72.4033" y="538.6357">Return</text><line style="stroke:#000000;stroke-width:1.0;stroke-dasharray:2.0,2.0;" x1="10" x2="510.002" y1="552.4922" y2="552.4922"/><text fill="#000000" font-family="sans-serif" font-size="11" font-weight="bold" lengthAdjust="spacing" textLength="93.4839" x="15" y="563.9111">[Condition Failed]</text><polygon fill="#181818" points="66.4033,585.6797,56.4033,589.6797,66.4033,593.6797,62.4033,589.6797" style="stroke:#181818;stroke-width:1.0;"/><line style="stroke:#181818;stroke-width:1.0;" x1="60.4033" x2="246.7559" y1="589.6797" y2="589.6797"/><text fill="#000000" font-family="sans-serif" font-size="13" lengthAdjust="spacing" textLength="39.019" x="72.4033" y="584.8232">Return</text><!--SRC=[ZP5DQiCm48NtEiMGbTscFK0M1MCSQgWXkEawgFBWYigAy8nAZr_99ewTfZzQIJFlUpCyiMQ3K3rbK5hYtYlMHml59oeVRq8usRDMsadBiEgajlVAkHL8WYeybksihWxwR4E7h2xtZrMnB_E96afBJ3a_jVFTYn3H6UuUHkq6SDW6mv99aAvXDY8LWoQA0xa1zORgFJ_QHiTkei8j5Q4p2OeFQRna17KIZUtpj8c67iaR5jBmhBYJHDW826SvkaMkiTN4s2TrbmwA2-kwWpWU_wBfEat_e-rrslv8qvnkrX3MXvimBeLREBd549xXLJDeYi1G_6xbNHF2tHhPKZB6D-9eBoABNnoMGlQz5MW8Pn5lfJRugpwuVG40]--></g></svg>