<svg xmlns="http://www.w3.org/2000/svg" xmlns:xlink="http://www.w3.org/1999/xlink" contentStyleType="text/css" height="681px" preserveAspectRatio="none" style="width:681px;height:681px;background:#FFFFFF;" version="1.1" viewBox="0 0 681 681" width="681px" zoomAndPan="magnify"><title>ADC Instruction Execution</title><defs/><g><text fill="#000000" font-family="sans-serif" font-size="14" font-weight="bold" lengthAdjust="spacing" textLength="177.3447" x="251.3367" y="29.5332">ADC Instruction Execution</text><rect fill="none" height="400.4063" style="stroke:#000000;stroke-width:1.5;" width="602.2944" x="10" y="227.625"/><rect fill="none" height="48.7031" style="stroke:#000000;stroke-width:1.5;" width="485.5728" x="116.7217" y="495.7891"/><line style="stroke:#181818;stroke-width:0.5;stroke-dasharray:5.0,5.0;" x1="55" x2="55" y1="76.2188" y2="645.0313"/><line style="stroke:#181818;stroke-width:0.5;stroke-dasharray:5.0,5.0;" x1="247.7217" x2="247.7217" y1="76.2188" y2="645.0313"/><line style="stroke:#181818;stroke-width:0.5;stroke-dasharray:5.0,5.0;" x1="560.2603" x2="560.2603" y1="76.2188" y2="645.0313"/><rect fill="#E2E2F0" height="31.6094" rx="2.5" ry="2.5" style="stroke:#181818;stroke-width:0.5;" width="70.8066" x="20" y="43.6094"/><text fill="#000000" font-family="sans-serif" font-size="14" lengthAdjust="spacing" textLength="56.8066" x="27" y="65.1426">main.cpp</text><rect fill="#E2E2F0" height="31.6094" rx="2.5" ry="2.5" style="stroke:#181818;stroke-width:0.5;" width="70.8066" x="20" y="644.0313"/><text fill="#000000" font-family="sans-serif" font-size="14" lengthAdjust="spacing" textLength="56.8066" x="27" y="665.5645">main.cpp</text><rect fill="#E2E2F0" height="31.6094" rx="2.5" ry="2.5" style="stroke:#181818;stroke-width:0.5;" width="243.5029" x="126.7217" y="43.6094"/><text fill="#000000" font-family="sans-serif" font-size="14" lengthAdjust="spacing" textLength="229.5029" x="133.7217" y="65.1426">ARM_instructions_ARITHMETIC.cpp</text><rect fill="#E2E2F0" height="31.6094" rx="2.5" ry="2.5" style="stroke:#181818;stroke-width:0.5;" width="243.5029" x="126.7217" y="644.0313"/><text fill="#000000" font-family="sans-serif" font-size="14" lengthAdjust="spacing" textLength="229.5029" x="133.7217" y="665.5645">ARM_instructions_ARITHMETIC.cpp</text><rect fill="#E2E2F0" height="31.6094" rx="2.5" ry="2.5" style="stroke:#181818;stroke-width:0.5;" width="63.0342" x="529.2603" y="43.6094"/><text fill="#000000" font-family="sans-serif" font-size="14" lengthAdjust="spacing" textLength="49.0342" x="536.2603" y="65.1426">cpu.cpp</text><rect fill="#E2E2F0" height="31.6094" rx="2.5" ry="2.5" style="stroke:#181818;stroke-width:0.5;" width="63.0342" x="529.2603" y="644.0313"/><text fill="#000000" font-family="sans-serif" font-size="14" lengthAdjust="spacing" textLength="49.0342" x="536.2603" y="665.5645">cpu.cpp</text><polygon fill="#181818" points="236.4731,104.5703,246.4731,108.5703,236.4731,112.5703,240.4731,108.5703" style="stroke:#181818;stroke-width:1.0;"/><line style="stroke:#181818;stroke-width:1.0;" x1="55.4033" x2="242.4731" y1="108.5703" y2="108.5703"/><text fill="#000000" font-family="sans-serif" font-size="13" lengthAdjust="spacing" textLength="169.0698" x="62.4033" y="103.7139">executeADC(cpu, instruction)</text><polygon fill="#181818" points="548.7773,134.9219,558.7773,138.9219,548.7773,142.9219,552.7773,138.9219" style="stroke:#181818;stroke-width:1.0;"/><line style="stroke:#181818;stroke-width:1.0;" x1="248.4731" x2="554.7773" y1="138.9219" y2="138.9219"/><text fill="#000000" font-family="sans-serif" font-size="13" lengthAdjust="spacing" textLength="125.7344" x="255.4731" y="134.0654">checkCondition(cond)</text><line style="stroke:#181818;stroke-width:1.0;" x1="560.7773" x2="602.7773" y1="169.2734" y2="169.2734"/><line style="stroke:#181818;stroke-width:1.0;" x1="602.7773" x2="602.7773" y1="169.2734" y2="182.2734"/><line style="stroke:#181818;stroke-width:1.0;" x1="561.7773" x2="602.7773" y1="182.2734" y2="182.2734"/><polygon fill="#181818" points="571.7773,178.2734,561.7773,182.2734,571.7773,186.2734,567.7773,182.2734" style="stroke:#181818;stroke-width:1.0;"/><text fill="#000000" font-family="sans-serif" font-size="13" lengthAdjust="spacing" textLength="106.2407" x="567.7773" y="164.417">Evaluate condition</text><polygon fill="#181818" points="259.4731,208.625,249.4731,212.625,259.4731,216.625,255.4731,212.625" style="stroke:#181818;stroke-width:1.0;"/><line style="stroke:#181818;stroke-width:1.0;stroke-dasharray:2.0,2.0;" x1="253.4731" x2="559.7773" y1="212.625" y2="212.625"/><text fill="#000000" font-family="sans-serif" font-size="13" lengthAdjust="spacing" textLength="90.3271" x="265.4731" y="207.7686">Condition result</text><path d="M10,227.625 L70.1709,227.625 L70.1709,235.9766 L60.1709,245.9766 L10,245.9766 L10,227.625 " fill="#EEEEEE" style="stroke:#000000;stroke-width:1.5;"/><rect fill="none" height="400.4063" style="stroke:#000000;stroke-width:1.5;" width="602.2944" x="10" y="227.625"/><text fill="#000000" font-family="sans-serif" font-size="13" font-weight="bold" lengthAdjust="spacing" textLength="15.1709" x="25" y="242.1201">alt</text><text fill="#000000" font-family="sans-serif" font-size="11" font-weight="bold" lengthAdjust="spacing" textLength="100.2246" x="85.1709" y="241.0439">[Condition Passed]</text><polygon fill="#181818" points="548.7773,264.3281,558.7773,268.3281,548.7773,272.3281,552.7773,268.3281" style="stroke:#181818;stroke-width:1.0;"/><line style="stroke:#181818;stroke-width:1.0;" x1="248.4731" x2="554.7773" y1="268.3281" y2="268.3281"/><text fill="#000000" font-family="sans-serif" font-size="13" lengthAdjust="spacing" textLength="62.8481" x="255.4731" y="263.4717">getCPSR()</text><polygon fill="#181818" points="259.4731,294.6797,249.4731,298.6797,259.4731,302.6797,255.4731,298.6797" style="stroke:#181818;stroke-width:1.0;"/><line style="stroke:#181818;stroke-width:1.0;stroke-dasharray:2.0,2.0;" x1="253.4731" x2="559.7773" y1="298.6797" y2="298.6797"/><text fill="#000000" font-family="sans-serif" font-size="13" lengthAdjust="spacing" textLength="70.8081" x="265.4731" y="293.8232">CPSR value</text><polygon fill="#181818" points="548.7773,325.0313,558.7773,329.0313,548.7773,333.0313,552.7773,329.0313" style="stroke:#181818;stroke-width:1.0;"/><line style="stroke:#181818;stroke-width:1.0;" x1="248.4731" x2="554.7773" y1="329.0313" y2="329.0313"/><text fill="#000000" font-family="sans-serif" font-size="13" lengthAdjust="spacing" textLength="91.7554" x="255.4731" y="324.1748">getRegister(Rn)</text><polygon fill="#181818" points="259.4731,355.3828,249.4731,359.3828,259.4731,363.3828,255.4731,359.3828" style="stroke:#181818;stroke-width:1.0;"/><line style="stroke:#181818;stroke-width:1.0;stroke-dasharray:2.0,2.0;" x1="253.4731" x2="559.7773" y1="359.3828" y2="359.3828"/><text fill="#000000" font-family="sans-serif" font-size="13" lengthAdjust="spacing" textLength="51.3081" x="265.4731" y="354.5264">Rn value</text><polygon fill="#181818" points="548.7773,385.7344,558.7773,389.7344,548.7773,393.7344,552.7773,389.7344" style="stroke:#181818;stroke-width:1.0;"/><line style="stroke:#181818;stroke-width:1.0;" x1="248.4731" x2="554.7773" y1="389.7344" y2="389.7344"/><text fill="#000000" font-family="sans-serif" font-size="13" lengthAdjust="spacing" textLength="95.3545" x="255.4731" y="384.8779">getRegister(Rm)</text><polygon fill="#181818" points="259.4731,416.0859,249.4731,420.0859,259.4731,424.0859,255.4731,420.0859" style="stroke:#181818;stroke-width:1.0;"/><line style="stroke:#181818;stroke-width:1.0;stroke-dasharray:2.0,2.0;" x1="253.4731" x2="559.7773" y1="420.0859" y2="420.0859"/><text fill="#000000" font-family="sans-serif" font-size="13" lengthAdjust="spacing" textLength="54.9072" x="265.4731" y="415.2295">Rm value</text><polygon fill="#181818" points="548.7773,446.4375,558.7773,450.4375,548.7773,454.4375,552.7773,450.4375" style="stroke:#181818;stroke-width:1.0;"/><line style="stroke:#181818;stroke-width:1.0;" x1="248.4731" x2="554.7773" y1="450.4375" y2="450.4375"/><text fill="#000000" font-family="sans-serif" font-size="13" lengthAdjust="spacing" textLength="140.9116" x="255.4731" y="445.5811">Process shifter_operand</text><polygon fill="#181818" points="548.7773,476.7891,558.7773,480.7891,548.7773,484.7891,552.7773,480.7891" style="stroke:#181818;stroke-width:1.0;"/><line style="stroke:#181818;stroke-width:1.0;" x1="248.4731" x2="554.7773" y1="480.7891" y2="480.7891"/><text fill="#000000" font-family="sans-serif" font-size="13" lengthAdjust="spacing" textLength="288.3042" x="255.4731" y="475.9326">setRegister(Rd, Rn + processed_operand + carry)</text><path d="M116.7217,495.7891 L176.8926,495.7891 L176.8926,504.1406 L166.8926,514.1406 L116.7217,514.1406 L116.7217,495.7891 " fill="#EEEEEE" style="stroke:#000000;stroke-width:1.5;"/><rect fill="none" height="48.7031" style="stroke:#000000;stroke-width:1.5;" width="485.5728" x="116.7217" y="495.7891"/><text fill="#000000" font-family="sans-serif" font-size="13" font-weight="bold" lengthAdjust="spacing" textLength="15.1709" x="131.7217" y="510.2842">alt</text><text fill="#000000" font-family="sans-serif" font-size="11" font-weight="bold" lengthAdjust="spacing" textLength="62.3423" x="191.8926" y="509.208">[S bit is set]</text><polygon fill="#181818" points="548.7773,532.4922,558.7773,536.4922,548.7773,540.4922,552.7773,536.4922" style="stroke:#181818;stroke-width:1.0;"/><line style="stroke:#181818;stroke-width:1.0;" x1="248.4731" x2="554.7773" y1="536.4922" y2="536.4922"/><text fill="#000000" font-family="sans-serif" font-size="13" lengthAdjust="spacing" textLength="111.998" x="255.4731" y="531.6357">updateFlags(result)</text><polygon fill="#181818" points="66.4033,569.8438,56.4033,573.8438,66.4033,577.8438,62.4033,573.8438" style="stroke:#181818;stroke-width:1.0;"/><line style="stroke:#181818;stroke-width:1.0;" x1="60.4033" x2="247.4731" y1="573.8438" y2="573.8438"/><text fill="#000000" font-family="sans-serif" font-size="13" lengthAdjust="spacing" textLength="39.019" x="72.4033" y="568.9873">Return</text><line style="stroke:#000000;stroke-width:1.0;stroke-dasharray:2.0,2.0;" x1="10" x2="612.2944" y1="582.8438" y2="582.8438"/><text fill="#000000" font-family="sans-serif" font-size="11" font-weight="bold" lengthAdjust="spacing" textLength="93.4839" x="15" y="594.2627">[Condition Failed]</text><polygon fill="#181818" points="66.4033,616.0313,56.4033,620.0313,66.4033,624.0313,62.4033,620.0313" style="stroke:#181818;stroke-width:1.0;"/><line style="stroke:#181818;stroke-width:1.0;" x1="60.4033" x2="247.4731" y1="620.0313" y2="620.0313"/><text fill="#000000" font-family="sans-serif" font-size="13" lengthAdjust="spacing" textLength="39.019" x="72.4033" y="615.1748">Return</text><!--SRC=[ZP9DJiCm48NtFiMegqGK3j05KXLIqKMbA2thoZX3Q-4wbiT6S7l6YPgc9I2oSkQzxytu9-XW49PF1Qmj1HzLqAs5yXDLJ2iXdFH1A-sa3J0xIMqVb7Cpa0GR_hcMb_Lchoynj5_MwztpfjojYu7gIjUOSd6GY-f5Y9GCzu-zTm7OJOCyPCRMEOnQvABp93EJ2r17LEz5QnkTr4pnAXUi38RoGvee0u8wcthvqcsWmID54uGqOLIi914s0lYxRdt0K5JREiixxJQK5KYjSPgiyQ0feCzgEydNzd_qQPe-_KfNlbL817JKRvomRnrwQQVsH-C-pJoDT0Uknx4vWrnJqlklVevqT5jurG4qfO2k-3CwkeQlP6NaWRB-q7iSRmT93uEtWo5wAz0GZYvc9RN1F_sSzWq0]--></g></svg>