<svg xmlns="http://www.w3.org/2000/svg" xmlns:xlink="http://www.w3.org/1999/xlink" contentStyleType="text/css" height="651px" preserveAspectRatio="none" style="width:586px;height:651px;background:#FFFFFF;" version="1.1" viewBox="0 0 586 651" width="586px" zoomAndPan="magnify"><title>ADC Instruction Execution</title><defs/><g><text fill="#000000" font-family="sans-serif" font-size="14" font-weight="bold" lengthAdjust="spacing" textLength="177.3447" x="203.9863" y="29.5332">ADC Instruction Execution</text><rect fill="none" height="370.0547" style="stroke:#000000;stroke-width:1.5;" width="507.5938" x="10" y="227.625"/><rect fill="none" height="48.7031" style="stroke:#000000;stroke-width:1.5;" width="390.8721" x="116.7217" y="465.4375"/><line style="stroke:#181818;stroke-width:0.5;stroke-dasharray:5.0,5.0;" x1="55" x2="55" y1="76.2188" y2="614.6797"/><line style="stroke:#181818;stroke-width:0.5;stroke-dasharray:5.0,5.0;" x1="247.7217" x2="247.7217" y1="76.2188" y2="614.6797"/><line style="stroke:#181818;stroke-width:0.5;stroke-dasharray:5.0,5.0;" x1="465.5596" x2="465.5596" y1="76.2188" y2="614.6797"/><rect fill="#E2E2F0" height="31.6094" rx="2.5" ry="2.5" style="stroke:#181818;stroke-width:0.5;" width="70.8066" x="20" y="43.6094"/><text fill="#000000" font-family="sans-serif" font-size="14" lengthAdjust="spacing" textLength="56.8066" x="27" y="65.1426">main.cpp</text><rect fill="#E2E2F0" height="31.6094" rx="2.5" ry="2.5" style="stroke:#181818;stroke-width:0.5;" width="70.8066" x="20" y="613.6797"/><text fill="#000000" font-family="sans-serif" font-size="14" lengthAdjust="spacing" textLength="56.8066" x="27" y="635.2129">main.cpp</text><rect fill="#E2E2F0" height="31.6094" rx="2.5" ry="2.5" style="stroke:#181818;stroke-width:0.5;" width="243.5029" x="126.7217" y="43.6094"/><text fill="#000000" font-family="sans-serif" font-size="14" lengthAdjust="spacing" textLength="229.5029" x="133.7217" y="65.1426">ARM_instructions_ARITHMETIC.cpp</text><rect fill="#E2E2F0" height="31.6094" rx="2.5" ry="2.5" style="stroke:#181818;stroke-width:0.5;" width="243.5029" x="126.7217" y="613.6797"/><text fill="#000000" font-family="sans-serif" font-size="14" lengthAdjust="spacing" textLength="229.5029" x="133.7217" y="635.2129">ARM_instructions_ARITHMETIC.cpp</text><rect fill="#E2E2F0" height="31.6094" rx="2.5" ry="2.5" style="stroke:#181818;stroke-width:0.5;" width="63.0342" x="434.5596" y="43.6094"/><text fill="#000000" font-family="sans-serif" font-size="14" lengthAdjust="spacing" textLength="49.0342" x="441.5596" y="65.1426">cpu.cpp</text><rect fill="#E2E2F0" height="31.6094" rx="2.5" ry="2.5" style="stroke:#181818;stroke-width:0.5;" width="63.0342" x="434.5596" y="613.6797"/><text fill="#000000" font-family="sans-serif" font-size="14" lengthAdjust="spacing" textLength="49.0342" x="441.5596" y="635.2129">cpu.cpp</text><polygon fill="#181818" points="236.4731,104.5703,246.4731,108.5703,236.4731,112.5703,240.4731,108.5703" style="stroke:#181818;stroke-width:1.0;"/><line style="stroke:#181818;stroke-width:1.0;" x1="55.4033" x2="242.4731" y1="108.5703" y2="108.5703"/><text fill="#000000" font-family="sans-serif" font-size="13" lengthAdjust="spacing" textLength="169.0698" x="62.4033" y="103.7139">executeADC(cpu, instruction)</text><polygon fill="#181818" points="454.0767,134.9219,464.0767,138.9219,454.0767,142.9219,458.0767,138.9219" style="stroke:#181818;stroke-width:1.0;"/><line style="stroke:#181818;stroke-width:1.0;" x1="248.4731" x2="460.0767" y1="138.9219" y2="138.9219"/><text fill="#000000" font-family="sans-serif" font-size="13" lengthAdjust="spacing" textLength="125.7344" x="255.4731" y="134.0654">checkCondition(cond)</text><line style="stroke:#181818;stroke-width:1.0;" x1="466.0767" x2="508.0767" y1="169.2734" y2="169.2734"/><line style="stroke:#181818;stroke-width:1.0;" x1="508.0767" x2="508.0767" y1="169.2734" y2="182.2734"/><line style="stroke:#181818;stroke-width:1.0;" x1="467.0767" x2="508.0767" y1="182.2734" y2="182.2734"/><polygon fill="#181818" points="477.0767,178.2734,467.0767,182.2734,477.0767,186.2734,473.0767,182.2734" style="stroke:#181818;stroke-width:1.0;"/><text fill="#000000" font-family="sans-serif" font-size="13" lengthAdjust="spacing" textLength="106.2407" x="473.0767" y="164.417">Evaluate condition</text><polygon fill="#181818" points="259.4731,208.625,249.4731,212.625,259.4731,216.625,255.4731,212.625" style="stroke:#181818;stroke-width:1.0;"/><line style="stroke:#181818;stroke-width:1.0;stroke-dasharray:2.0,2.0;" x1="253.4731" x2="465.0767" y1="212.625" y2="212.625"/><text fill="#000000" font-family="sans-serif" font-size="13" lengthAdjust="spacing" textLength="90.3271" x="265.4731" y="207.7686">Condition result</text><path d="M10,227.625 L70.1709,227.625 L70.1709,235.9766 L60.1709,245.9766 L10,245.9766 L10,227.625 " fill="#EEEEEE" style="stroke:#000000;stroke-width:1.5;"/><rect fill="none" height="370.0547" style="stroke:#000000;stroke-width:1.5;" width="507.5938" x="10" y="227.625"/><text fill="#000000" font-family="sans-serif" font-size="13" font-weight="bold" lengthAdjust="spacing" textLength="15.1709" x="25" y="242.1201">alt</text><text fill="#000000" font-family="sans-serif" font-size="11" font-weight="bold" lengthAdjust="spacing" textLength="100.2246" x="85.1709" y="241.0439">[Condition Passed]</text><polygon fill="#181818" points="454.0767,264.3281,464.0767,268.3281,454.0767,272.3281,458.0767,268.3281" style="stroke:#181818;stroke-width:1.0;"/><line style="stroke:#181818;stroke-width:1.0;" x1="248.4731" x2="460.0767" y1="268.3281" y2="268.3281"/><text fill="#000000" font-family="sans-serif" font-size="13" lengthAdjust="spacing" textLength="62.8481" x="255.4731" y="263.4717">getCPSR()</text><polygon fill="#181818" points="259.4731,294.6797,249.4731,298.6797,259.4731,302.6797,255.4731,298.6797" style="stroke:#181818;stroke-width:1.0;"/><line style="stroke:#181818;stroke-width:1.0;stroke-dasharray:2.0,2.0;" x1="253.4731" x2="465.0767" y1="298.6797" y2="298.6797"/><text fill="#000000" font-family="sans-serif" font-size="13" lengthAdjust="spacing" textLength="70.8081" x="265.4731" y="293.8232">CPSR value</text><polygon fill="#181818" points="454.0767,325.0313,464.0767,329.0313,454.0767,333.0313,458.0767,329.0313" style="stroke:#181818;stroke-width:1.0;"/><line style="stroke:#181818;stroke-width:1.0;" x1="248.4731" x2="460.0767" y1="329.0313" y2="329.0313"/><text fill="#000000" font-family="sans-serif" font-size="13" lengthAdjust="spacing" textLength="91.7554" x="255.4731" y="324.1748">getRegister(Rn)</text><polygon fill="#181818" points="259.4731,355.3828,249.4731,359.3828,259.4731,363.3828,255.4731,359.3828" style="stroke:#181818;stroke-width:1.0;"/><line style="stroke:#181818;stroke-width:1.0;stroke-dasharray:2.0,2.0;" x1="253.4731" x2="465.0767" y1="359.3828" y2="359.3828"/><text fill="#000000" font-family="sans-serif" font-size="13" lengthAdjust="spacing" textLength="51.3081" x="265.4731" y="354.5264">Rn value</text><polygon fill="#181818" points="454.0767,385.7344,464.0767,389.7344,454.0767,393.7344,458.0767,389.7344" style="stroke:#181818;stroke-width:1.0;"/><line style="stroke:#181818;stroke-width:1.0;" x1="248.4731" x2="460.0767" y1="389.7344" y2="389.7344"/><text fill="#000000" font-family="sans-serif" font-size="13" lengthAdjust="spacing" textLength="95.3545" x="255.4731" y="384.8779">getRegister(Rm)</text><polygon fill="#181818" points="259.4731,416.0859,249.4731,420.0859,259.4731,424.0859,255.4731,420.0859" style="stroke:#181818;stroke-width:1.0;"/><line style="stroke:#181818;stroke-width:1.0;stroke-dasharray:2.0,2.0;" x1="253.4731" x2="465.0767" y1="420.0859" y2="420.0859"/><text fill="#000000" font-family="sans-serif" font-size="13" lengthAdjust="spacing" textLength="54.9072" x="265.4731" y="415.2295">Rm value</text><polygon fill="#181818" points="454.0767,446.4375,464.0767,450.4375,454.0767,454.4375,458.0767,450.4375" style="stroke:#181818;stroke-width:1.0;"/><line style="stroke:#181818;stroke-width:1.0;" x1="248.4731" x2="460.0767" y1="450.4375" y2="450.4375"/><text fill="#000000" font-family="sans-serif" font-size="13" lengthAdjust="spacing" textLength="193.6035" x="255.4731" y="445.5811">setRegister(Rd, Rn + Rm + carry)</text><path d="M116.7217,465.4375 L176.8926,465.4375 L176.8926,473.7891 L166.8926,483.7891 L116.7217,483.7891 L116.7217,465.4375 " fill="#EEEEEE" style="stroke:#000000;stroke-width:1.5;"/><rect fill="none" height="48.7031" style="stroke:#000000;stroke-width:1.5;" width="390.8721" x="116.7217" y="465.4375"/><text fill="#000000" font-family="sans-serif" font-size="13" font-weight="bold" lengthAdjust="spacing" textLength="15.1709" x="131.7217" y="479.9326">alt</text><text fill="#000000" font-family="sans-serif" font-size="11" font-weight="bold" lengthAdjust="spacing" textLength="62.3423" x="191.8926" y="478.8564">[S bit is set]</text><polygon fill="#181818" points="454.0767,502.1406,464.0767,506.1406,454.0767,510.1406,458.0767,506.1406" style="stroke:#181818;stroke-width:1.0;"/><line style="stroke:#181818;stroke-width:1.0;" x1="248.4731" x2="460.0767" y1="506.1406" y2="506.1406"/><text fill="#000000" font-family="sans-serif" font-size="13" lengthAdjust="spacing" textLength="111.998" x="255.4731" y="501.2842">updateFlags(result)</text><polygon fill="#181818" points="66.4033,539.4922,56.4033,543.4922,66.4033,547.4922,62.4033,543.4922" style="stroke:#181818;stroke-width:1.0;"/><line style="stroke:#181818;stroke-width:1.0;" x1="60.4033" x2="247.4731" y1="543.4922" y2="543.4922"/><text fill="#000000" font-family="sans-serif" font-size="13" lengthAdjust="spacing" textLength="39.019" x="72.4033" y="538.6357">Return</text><line style="stroke:#000000;stroke-width:1.0;stroke-dasharray:2.0,2.0;" x1="10" x2="517.5938" y1="552.4922" y2="552.4922"/><text fill="#000000" font-family="sans-serif" font-size="11" font-weight="bold" lengthAdjust="spacing" textLength="93.4839" x="15" y="563.9111">[Condition Failed]</text><polygon fill="#181818" points="66.4033,585.6797,56.4033,589.6797,66.4033,593.6797,62.4033,589.6797" style="stroke:#181818;stroke-width:1.0;"/><line style="stroke:#181818;stroke-width:1.0;" x1="60.4033" x2="247.4731" y1="589.6797" y2="589.6797"/><text fill="#000000" font-family="sans-serif" font-size="13" lengthAdjust="spacing" textLength="39.019" x="72.4033" y="584.8232">Return</text><!--SRC=[ZP51JiCm44NtFiMegqGj7A0Bf2Ya8ej8aLlMbN56mS9n8tkCuFROYKYJ4X1UsVF_-pCQaoADa3tcK1f7rajI5mF51qeVRuprmfAIgXU6ODC9PUvbtsz0EAZ2Oobdl3ghQumxPxmyFLN5gSmdQYWjCTdxISxhPyPYCjmzZDuzu30DXY6JODt1h4NA1ayq1t8FyXNbMtunZOfg8iCjPK6P3CMxq5uGWlmsZVArsqI3HUSrCQ5fLgo5SzWm26VPkaNAwoDFqa6x3GqAnDQuJd9ibIEq2JUhF3V_exjrklkLTdEwsSL6s-ZVWXJMVevnSGD7U544oaLYAFxCydqJDdlGedN9kBiHHtEph_Y_OIeaRmr3xN2stuDG6l_qXxGl]--></g></svg>