<svg xmlns="http://www.w3.org/2000/svg" xmlns:xlink="http://www.w3.org/1999/xlink" contentStyleType="text/css" height="527px" preserveAspectRatio="none" style="width:540px;height:527px;background:#FFFFFF;" version="1.1" viewBox="0 0 540 527" width="540px" zoomAndPan="magnify"><title>CMN Instruction Execution</title><defs/><g><text fill="#000000" font-family="sans-serif" font-size="14" font-weight="bold" lengthAdjust="spacing" textLength="178.8965" x="180.0955" y="29.5332">CMN Instruction Execution</text><rect fill="none" height="246.6484" style="stroke:#000000;stroke-width:1.5;" width="451.3638" x="10" y="227.625"/><line style="stroke:#181818;stroke-width:0.5;stroke-dasharray:5.0,5.0;" x1="55" x2="55" y1="76.2188" y2="491.2734"/><line style="stroke:#181818;stroke-width:0.5;stroke-dasharray:5.0,5.0;" x1="249.8799" x2="249.8799" y1="76.2188" y2="491.2734"/><line style="stroke:#181818;stroke-width:0.5;stroke-dasharray:5.0,5.0;" x1="419.3296" x2="419.3296" y1="76.2188" y2="491.2734"/><rect fill="#E2E2F0" height="31.6094" rx="2.5" ry="2.5" style="stroke:#181818;stroke-width:0.5;" width="70.8066" x="20" y="43.6094"/><text fill="#000000" font-family="sans-serif" font-size="14" lengthAdjust="spacing" textLength="56.8066" x="27" y="65.1426">main.cpp</text><rect fill="#E2E2F0" height="31.6094" rx="2.5" ry="2.5" style="stroke:#181818;stroke-width:0.5;" width="70.8066" x="20" y="490.2734"/><text fill="#000000" font-family="sans-serif" font-size="14" lengthAdjust="spacing" textLength="56.8066" x="27" y="511.8066">main.cpp</text><rect fill="#E2E2F0" height="31.6094" rx="2.5" ry="2.5" style="stroke:#181818;stroke-width:0.5;" width="243.5029" x="128.8799" y="43.6094"/><text fill="#000000" font-family="sans-serif" font-size="14" lengthAdjust="spacing" textLength="229.5029" x="135.8799" y="65.1426">ARM_instructions_ARITHMETIC.cpp</text><rect fill="#E2E2F0" height="31.6094" rx="2.5" ry="2.5" style="stroke:#181818;stroke-width:0.5;" width="243.5029" x="128.8799" y="490.2734"/><text fill="#000000" font-family="sans-serif" font-size="14" lengthAdjust="spacing" textLength="229.5029" x="135.8799" y="511.8066">ARM_instructions_ARITHMETIC.cpp</text><rect fill="#E2E2F0" height="31.6094" rx="2.5" ry="2.5" style="stroke:#181818;stroke-width:0.5;" width="63.0342" x="388.3296" y="43.6094"/><text fill="#000000" font-family="sans-serif" font-size="14" lengthAdjust="spacing" textLength="49.0342" x="395.3296" y="65.1426">cpu.cpp</text><rect fill="#E2E2F0" height="31.6094" rx="2.5" ry="2.5" style="stroke:#181818;stroke-width:0.5;" width="63.0342" x="388.3296" y="490.2734"/><text fill="#000000" font-family="sans-serif" font-size="14" lengthAdjust="spacing" textLength="49.0342" x="395.3296" y="511.8066">cpu.cpp</text><polygon fill="#181818" points="238.6313,104.5703,248.6313,108.5703,238.6313,112.5703,242.6313,108.5703" style="stroke:#181818;stroke-width:1.0;"/><line style="stroke:#181818;stroke-width:1.0;" x1="55.4033" x2="244.6313" y1="108.5703" y2="108.5703"/><text fill="#000000" font-family="sans-serif" font-size="13" lengthAdjust="spacing" textLength="171.228" x="62.4033" y="103.7139">executeCMN(cpu, instruction)</text><polygon fill="#181818" points="407.8467,134.9219,417.8467,138.9219,407.8467,142.9219,411.8467,138.9219" style="stroke:#181818;stroke-width:1.0;"/><line style="stroke:#181818;stroke-width:1.0;" x1="250.6313" x2="413.8467" y1="138.9219" y2="138.9219"/><text fill="#000000" font-family="sans-serif" font-size="13" lengthAdjust="spacing" textLength="125.7344" x="257.6313" y="134.0654">checkCondition(cond)</text><line style="stroke:#181818;stroke-width:1.0;" x1="419.8467" x2="461.8467" y1="169.2734" y2="169.2734"/><line style="stroke:#181818;stroke-width:1.0;" x1="461.8467" x2="461.8467" y1="169.2734" y2="182.2734"/><line style="stroke:#181818;stroke-width:1.0;" x1="420.8467" x2="461.8467" y1="182.2734" y2="182.2734"/><polygon fill="#181818" points="430.8467,178.2734,420.8467,182.2734,430.8467,186.2734,426.8467,182.2734" style="stroke:#181818;stroke-width:1.0;"/><text fill="#000000" font-family="sans-serif" font-size="13" lengthAdjust="spacing" textLength="106.2407" x="426.8467" y="164.417">Evaluate condition</text><polygon fill="#181818" points="261.6313,208.625,251.6313,212.625,261.6313,216.625,257.6313,212.625" style="stroke:#181818;stroke-width:1.0;"/><line style="stroke:#181818;stroke-width:1.0;stroke-dasharray:2.0,2.0;" x1="255.6313" x2="418.8467" y1="212.625" y2="212.625"/><text fill="#000000" font-family="sans-serif" font-size="13" lengthAdjust="spacing" textLength="90.3271" x="267.6313" y="207.7686">Condition result</text><path d="M10,227.625 L70.1709,227.625 L70.1709,235.9766 L60.1709,245.9766 L10,245.9766 L10,227.625 " fill="#EEEEEE" style="stroke:#000000;stroke-width:1.5;"/><rect fill="none" height="246.6484" style="stroke:#000000;stroke-width:1.5;" width="451.3638" x="10" y="227.625"/><text fill="#000000" font-family="sans-serif" font-size="13" font-weight="bold" lengthAdjust="spacing" textLength="15.1709" x="25" y="242.1201">alt</text><text fill="#000000" font-family="sans-serif" font-size="11" font-weight="bold" lengthAdjust="spacing" textLength="100.2246" x="85.1709" y="241.0439">[Condition Passed]</text><polygon fill="#181818" points="407.8467,264.3281,417.8467,268.3281,407.8467,272.3281,411.8467,268.3281" style="stroke:#181818;stroke-width:1.0;"/><line style="stroke:#181818;stroke-width:1.0;" x1="250.6313" x2="413.8467" y1="268.3281" y2="268.3281"/><text fill="#000000" font-family="sans-serif" font-size="13" lengthAdjust="spacing" textLength="91.7554" x="257.6313" y="263.4717">getRegister(Rn)</text><polygon fill="#181818" points="261.6313,294.6797,251.6313,298.6797,261.6313,302.6797,257.6313,298.6797" style="stroke:#181818;stroke-width:1.0;"/><line style="stroke:#181818;stroke-width:1.0;stroke-dasharray:2.0,2.0;" x1="255.6313" x2="418.8467" y1="298.6797" y2="298.6797"/><text fill="#000000" font-family="sans-serif" font-size="13" lengthAdjust="spacing" textLength="51.3081" x="267.6313" y="293.8232">Rn value</text><polygon fill="#181818" points="407.8467,325.0313,417.8467,329.0313,407.8467,333.0313,411.8467,329.0313" style="stroke:#181818;stroke-width:1.0;"/><line style="stroke:#181818;stroke-width:1.0;" x1="250.6313" x2="413.8467" y1="329.0313" y2="329.0313"/><text fill="#000000" font-family="sans-serif" font-size="13" lengthAdjust="spacing" textLength="145.2153" x="257.6313" y="324.1748">getImmediateValue(imm)</text><polygon fill="#181818" points="261.6313,355.3828,251.6313,359.3828,261.6313,363.3828,257.6313,359.3828" style="stroke:#181818;stroke-width:1.0;"/><line style="stroke:#181818;stroke-width:1.0;stroke-dasharray:2.0,2.0;" x1="255.6313" x2="418.8467" y1="359.3828" y2="359.3828"/><text fill="#000000" font-family="sans-serif" font-size="13" lengthAdjust="spacing" textLength="59.2363" x="267.6313" y="354.5264">imm value</text><polygon fill="#181818" points="407.8467,385.7344,417.8467,389.7344,407.8467,393.7344,411.8467,389.7344" style="stroke:#181818;stroke-width:1.0;"/><line style="stroke:#181818;stroke-width:1.0;" x1="250.6313" x2="413.8467" y1="389.7344" y2="389.7344"/><text fill="#000000" font-family="sans-serif" font-size="13" lengthAdjust="spacing" textLength="113.769" x="257.6313" y="384.8779">setFlags(Rn + imm)</text><polygon fill="#181818" points="66.4033,416.0859,56.4033,420.0859,66.4033,424.0859,62.4033,420.0859" style="stroke:#181818;stroke-width:1.0;"/><line style="stroke:#181818;stroke-width:1.0;" x1="60.4033" x2="249.6313" y1="420.0859" y2="420.0859"/><text fill="#000000" font-family="sans-serif" font-size="13" lengthAdjust="spacing" textLength="39.019" x="72.4033" y="415.2295">Return</text><line style="stroke:#000000;stroke-width:1.0;stroke-dasharray:2.0,2.0;" x1="10" x2="461.3638" y1="429.0859" y2="429.0859"/><text fill="#000000" font-family="sans-serif" font-size="11" font-weight="bold" lengthAdjust="spacing" textLength="93.4839" x="15" y="440.5049">[Condition Failed]</text><polygon fill="#181818" points="66.4033,462.2734,56.4033,466.2734,66.4033,470.2734,62.4033,466.2734" style="stroke:#181818;stroke-width:1.0;"/><line style="stroke:#181818;stroke-width:1.0;" x1="60.4033" x2="249.6313" y1="466.2734" y2="466.2734"/><text fill="#000000" font-family="sans-serif" font-size="13" lengthAdjust="spacing" textLength="39.019" x="72.4033" y="461.417">Return</text><!--SRC=[TP31QiCm44Jl-eeb9uUs-O0S2i4ur0UNOD9UWv0NTwca66iL-lbTELInG-gJlFDcTYGcjWXbymwr3pn6mtJsKFsWYUcarA179aE3zWmhfyblp32iG0Tev6SfxzhcHBUOSDgrzV6jgOvrcLtJQ6apGynoUVXGAYN3o-kLtG9ERL1A5e8-msp5MarCWiMv1VE5vhiy-uwIMXWvhPKe6QWksaRD2EOFkigtRTaD8uPeMMdBi-51Xu2T0lcMgtla5diAZ6FHIh54t4Mt7j9wVEokdSEEfDjdOWfoxc68pFzD2SXxg_iW1U09SaA6qiDA3UGuUeKsuEnYUqts_c9BtdVg5m00]--></g></svg>