<svg xmlns="http://www.w3.org/2000/svg" xmlns:xlink="http://www.w3.org/1999/xlink" contentStyleType="text/css" height="527px" preserveAspectRatio="none" style="width:539px;height:527px;background:#FFFFFF;" version="1.1" viewBox="0 0 539 527" width="539px" zoomAndPan="magnify"><title>CMP Instruction Execution</title><defs/><g><text fill="#000000" font-family="sans-serif" font-size="14" font-weight="bold" lengthAdjust="spacing" textLength="178.124" x="180.123" y="29.5332">CMP Instruction Execution</text><rect fill="none" height="246.6484" style="stroke:#000000;stroke-width:1.5;" width="450.6465" x="10" y="227.625"/><line style="stroke:#181818;stroke-width:0.5;stroke-dasharray:5.0,5.0;" x1="55" x2="55" y1="76.2188" y2="491.2734"/><line style="stroke:#181818;stroke-width:0.5;stroke-dasharray:5.0,5.0;" x1="249.1626" x2="249.1626" y1="76.2188" y2="491.2734"/><line style="stroke:#181818;stroke-width:0.5;stroke-dasharray:5.0,5.0;" x1="418.6123" x2="418.6123" y1="76.2188" y2="491.2734"/><rect fill="#E2E2F0" height="31.6094" rx="2.5" ry="2.5" style="stroke:#181818;stroke-width:0.5;" width="70.8066" x="20" y="43.6094"/><text fill="#000000" font-family="sans-serif" font-size="14" lengthAdjust="spacing" textLength="56.8066" x="27" y="65.1426">main.cpp</text><rect fill="#E2E2F0" height="31.6094" rx="2.5" ry="2.5" style="stroke:#181818;stroke-width:0.5;" width="70.8066" x="20" y="490.2734"/><text fill="#000000" font-family="sans-serif" font-size="14" lengthAdjust="spacing" textLength="56.8066" x="27" y="511.8066">main.cpp</text><rect fill="#E2E2F0" height="31.6094" rx="2.5" ry="2.5" style="stroke:#181818;stroke-width:0.5;" width="243.5029" x="128.1626" y="43.6094"/><text fill="#000000" font-family="sans-serif" font-size="14" lengthAdjust="spacing" textLength="229.5029" x="135.1626" y="65.1426">ARM_instructions_ARITHMETIC.cpp</text><rect fill="#E2E2F0" height="31.6094" rx="2.5" ry="2.5" style="stroke:#181818;stroke-width:0.5;" width="243.5029" x="128.1626" y="490.2734"/><text fill="#000000" font-family="sans-serif" font-size="14" lengthAdjust="spacing" textLength="229.5029" x="135.1626" y="511.8066">ARM_instructions_ARITHMETIC.cpp</text><rect fill="#E2E2F0" height="31.6094" rx="2.5" ry="2.5" style="stroke:#181818;stroke-width:0.5;" width="63.0342" x="387.6123" y="43.6094"/><text fill="#000000" font-family="sans-serif" font-size="14" lengthAdjust="spacing" textLength="49.0342" x="394.6123" y="65.1426">cpu.cpp</text><rect fill="#E2E2F0" height="31.6094" rx="2.5" ry="2.5" style="stroke:#181818;stroke-width:0.5;" width="63.0342" x="387.6123" y="490.2734"/><text fill="#000000" font-family="sans-serif" font-size="14" lengthAdjust="spacing" textLength="49.0342" x="394.6123" y="511.8066">cpu.cpp</text><polygon fill="#181818" points="237.9141,104.5703,247.9141,108.5703,237.9141,112.5703,241.9141,108.5703" style="stroke:#181818;stroke-width:1.0;"/><line style="stroke:#181818;stroke-width:1.0;" x1="55.4033" x2="243.9141" y1="108.5703" y2="108.5703"/><text fill="#000000" font-family="sans-serif" font-size="13" lengthAdjust="spacing" textLength="170.5107" x="62.4033" y="103.7139">executeCMP(cpu, instruction)</text><polygon fill="#181818" points="407.1294,134.9219,417.1294,138.9219,407.1294,142.9219,411.1294,138.9219" style="stroke:#181818;stroke-width:1.0;"/><line style="stroke:#181818;stroke-width:1.0;" x1="249.9141" x2="413.1294" y1="138.9219" y2="138.9219"/><text fill="#000000" font-family="sans-serif" font-size="13" lengthAdjust="spacing" textLength="125.7344" x="256.9141" y="134.0654">checkCondition(cond)</text><line style="stroke:#181818;stroke-width:1.0;" x1="419.1294" x2="461.1294" y1="169.2734" y2="169.2734"/><line style="stroke:#181818;stroke-width:1.0;" x1="461.1294" x2="461.1294" y1="169.2734" y2="182.2734"/><line style="stroke:#181818;stroke-width:1.0;" x1="420.1294" x2="461.1294" y1="182.2734" y2="182.2734"/><polygon fill="#181818" points="430.1294,178.2734,420.1294,182.2734,430.1294,186.2734,426.1294,182.2734" style="stroke:#181818;stroke-width:1.0;"/><text fill="#000000" font-family="sans-serif" font-size="13" lengthAdjust="spacing" textLength="106.2407" x="426.1294" y="164.417">Evaluate condition</text><polygon fill="#181818" points="260.9141,208.625,250.9141,212.625,260.9141,216.625,256.9141,212.625" style="stroke:#181818;stroke-width:1.0;"/><line style="stroke:#181818;stroke-width:1.0;stroke-dasharray:2.0,2.0;" x1="254.9141" x2="418.1294" y1="212.625" y2="212.625"/><text fill="#000000" font-family="sans-serif" font-size="13" lengthAdjust="spacing" textLength="90.3271" x="266.9141" y="207.7686">Condition result</text><path d="M10,227.625 L70.1709,227.625 L70.1709,235.9766 L60.1709,245.9766 L10,245.9766 L10,227.625 " fill="#EEEEEE" style="stroke:#000000;stroke-width:1.5;"/><rect fill="none" height="246.6484" style="stroke:#000000;stroke-width:1.5;" width="450.6465" x="10" y="227.625"/><text fill="#000000" font-family="sans-serif" font-size="13" font-weight="bold" lengthAdjust="spacing" textLength="15.1709" x="25" y="242.1201">alt</text><text fill="#000000" font-family="sans-serif" font-size="11" font-weight="bold" lengthAdjust="spacing" textLength="100.2246" x="85.1709" y="241.0439">[Condition Passed]</text><polygon fill="#181818" points="407.1294,264.3281,417.1294,268.3281,407.1294,272.3281,411.1294,268.3281" style="stroke:#181818;stroke-width:1.0;"/><line style="stroke:#181818;stroke-width:1.0;" x1="249.9141" x2="413.1294" y1="268.3281" y2="268.3281"/><text fill="#000000" font-family="sans-serif" font-size="13" lengthAdjust="spacing" textLength="91.7554" x="256.9141" y="263.4717">getRegister(Rn)</text><polygon fill="#181818" points="260.9141,294.6797,250.9141,298.6797,260.9141,302.6797,256.9141,298.6797" style="stroke:#181818;stroke-width:1.0;"/><line style="stroke:#181818;stroke-width:1.0;stroke-dasharray:2.0,2.0;" x1="254.9141" x2="418.1294" y1="298.6797" y2="298.6797"/><text fill="#000000" font-family="sans-serif" font-size="13" lengthAdjust="spacing" textLength="51.3081" x="266.9141" y="293.8232">Rn value</text><polygon fill="#181818" points="407.1294,325.0313,417.1294,329.0313,407.1294,333.0313,411.1294,329.0313" style="stroke:#181818;stroke-width:1.0;"/><line style="stroke:#181818;stroke-width:1.0;" x1="249.9141" x2="413.1294" y1="329.0313" y2="329.0313"/><text fill="#000000" font-family="sans-serif" font-size="13" lengthAdjust="spacing" textLength="145.2153" x="256.9141" y="324.1748">getImmediateValue(imm)</text><polygon fill="#181818" points="260.9141,355.3828,250.9141,359.3828,260.9141,363.3828,256.9141,359.3828" style="stroke:#181818;stroke-width:1.0;"/><line style="stroke:#181818;stroke-width:1.0;stroke-dasharray:2.0,2.0;" x1="254.9141" x2="418.1294" y1="359.3828" y2="359.3828"/><text fill="#000000" font-family="sans-serif" font-size="13" lengthAdjust="spacing" textLength="59.2363" x="266.9141" y="354.5264">imm value</text><polygon fill="#181818" points="407.1294,385.7344,417.1294,389.7344,407.1294,393.7344,411.1294,389.7344" style="stroke:#181818;stroke-width:1.0;"/><line style="stroke:#181818;stroke-width:1.0;" x1="249.9141" x2="413.1294" y1="389.7344" y2="389.7344"/><text fill="#000000" font-family="sans-serif" font-size="13" lengthAdjust="spacing" textLength="110.5063" x="256.9141" y="384.8779">setFlags(Rn - imm)</text><polygon fill="#181818" points="66.4033,416.0859,56.4033,420.0859,66.4033,424.0859,62.4033,420.0859" style="stroke:#181818;stroke-width:1.0;"/><line style="stroke:#181818;stroke-width:1.0;" x1="60.4033" x2="248.9141" y1="420.0859" y2="420.0859"/><text fill="#000000" font-family="sans-serif" font-size="13" lengthAdjust="spacing" textLength="39.019" x="72.4033" y="415.2295">Return</text><line style="stroke:#000000;stroke-width:1.0;stroke-dasharray:2.0,2.0;" x1="10" x2="460.6465" y1="429.0859" y2="429.0859"/><text fill="#000000" font-family="sans-serif" font-size="11" font-weight="bold" lengthAdjust="spacing" textLength="93.4839" x="15" y="440.5049">[Condition Failed]</text><polygon fill="#181818" points="66.4033,462.2734,56.4033,466.2734,66.4033,470.2734,62.4033,466.2734" style="stroke:#181818;stroke-width:1.0;"/><line style="stroke:#181818;stroke-width:1.0;" x1="60.4033" x2="248.9141" y1="466.2734" y2="466.2734"/><text fill="#000000" font-family="sans-serif" font-size="13" lengthAdjust="spacing" textLength="39.019" x="72.4033" y="461.417">Return</text><!--SRC=[TP31QiCm44Jl-eeb9mUQV40EXM0SweF1cBJN8EJ5NIefnbgLVdvN3bNiaFeaxxoP7Oc9BKBPj53xm5CqJ5SFrG-Qc4vAZNfYCZHgpx1nclpUZEC6T816VjRoiMikT8y9bsDNdz-QwboNsJMFrZOpnYoNxRjIAHbshpVs03YtGIbP2Fe2YnLRDJC95kS1p2UQh_BgUqfgOUIqLQ9aeFhMDcf6C7_GJRvloswOC4JBIbjU35iT0lOAv5kl7f0x72WmJaKdnHBn4DrvIElnkRjs3dkIRX-9ASYvfo4o_pSb89-i7e8KW1taX0obXvKQo77o2ct0nSLEckpZnTQyxzKl]--></g></svg>