<svg xmlns="http://www.w3.org/2000/svg" xmlns:xlink="http://www.w3.org/1999/xlink" contentStyleType="text/css" height="590px" preserveAspectRatio="none" style="width:539px;height:590px;background:#FFFFFF;" version="1.1" viewBox="0 0 539 590" width="539px" zoomAndPan="magnify"><title>MUL Instruction Execution</title><defs/><g><text fill="#000000" font-family="sans-serif" font-size="14" font-weight="bold" lengthAdjust="spacing" textLength="177.3379" x="180.5066" y="29.5332">MUL Instruction Execution</text><rect fill="none" height="309.3516" style="stroke:#000000;stroke-width:1.5;" width="460.6274" x="10" y="227.625"/><rect fill="none" height="48.7031" style="stroke:#000000;stroke-width:1.5;" width="343.9058" x="116.7217" y="404.7344"/><line style="stroke:#181818;stroke-width:0.5;stroke-dasharray:5.0,5.0;" x1="55" x2="55" y1="76.2188" y2="553.9766"/><line style="stroke:#181818;stroke-width:0.5;stroke-dasharray:5.0,5.0;" x1="247.7217" x2="247.7217" y1="76.2188" y2="553.9766"/><line style="stroke:#181818;stroke-width:0.5;stroke-dasharray:5.0,5.0;" x1="418.5933" x2="418.5933" y1="76.2188" y2="553.9766"/><rect fill="#E2E2F0" height="31.6094" rx="2.5" ry="2.5" style="stroke:#181818;stroke-width:0.5;" width="70.8066" x="20" y="43.6094"/><text fill="#000000" font-family="sans-serif" font-size="14" lengthAdjust="spacing" textLength="56.8066" x="27" y="65.1426">main.cpp</text><rect fill="#E2E2F0" height="31.6094" rx="2.5" ry="2.5" style="stroke:#181818;stroke-width:0.5;" width="70.8066" x="20" y="552.9766"/><text fill="#000000" font-family="sans-serif" font-size="14" lengthAdjust="spacing" textLength="56.8066" x="27" y="574.5098">main.cpp</text><rect fill="#E2E2F0" height="31.6094" rx="2.5" ry="2.5" style="stroke:#181818;stroke-width:0.5;" width="243.5029" x="126.7217" y="43.6094"/><text fill="#000000" font-family="sans-serif" font-size="14" lengthAdjust="spacing" textLength="229.5029" x="133.7217" y="65.1426">ARM_instructions_ARITHMETIC.cpp</text><rect fill="#E2E2F0" height="31.6094" rx="2.5" ry="2.5" style="stroke:#181818;stroke-width:0.5;" width="243.5029" x="126.7217" y="552.9766"/><text fill="#000000" font-family="sans-serif" font-size="14" lengthAdjust="spacing" textLength="229.5029" x="133.7217" y="574.5098">ARM_instructions_ARITHMETIC.cpp</text><rect fill="#E2E2F0" height="31.6094" rx="2.5" ry="2.5" style="stroke:#181818;stroke-width:0.5;" width="63.0342" x="387.5933" y="43.6094"/><text fill="#000000" font-family="sans-serif" font-size="14" lengthAdjust="spacing" textLength="49.0342" x="394.5933" y="65.1426">cpu.cpp</text><rect fill="#E2E2F0" height="31.6094" rx="2.5" ry="2.5" style="stroke:#181818;stroke-width:0.5;" width="63.0342" x="387.5933" y="552.9766"/><text fill="#000000" font-family="sans-serif" font-size="14" lengthAdjust="spacing" textLength="49.0342" x="394.5933" y="574.5098">cpu.cpp</text><polygon fill="#181818" points="236.4731,104.5703,246.4731,108.5703,236.4731,112.5703,240.4731,108.5703" style="stroke:#181818;stroke-width:1.0;"/><line style="stroke:#181818;stroke-width:1.0;" x1="55.4033" x2="242.4731" y1="108.5703" y2="108.5703"/><text fill="#000000" font-family="sans-serif" font-size="13" lengthAdjust="spacing" textLength="169.0698" x="62.4033" y="103.7139">executeMUL(cpu, instruction)</text><polygon fill="#181818" points="407.1104,134.9219,417.1104,138.9219,407.1104,142.9219,411.1104,138.9219" style="stroke:#181818;stroke-width:1.0;"/><line style="stroke:#181818;stroke-width:1.0;" x1="248.4731" x2="413.1104" y1="138.9219" y2="138.9219"/><text fill="#000000" font-family="sans-serif" font-size="13" lengthAdjust="spacing" textLength="125.7344" x="255.4731" y="134.0654">checkCondition(cond)</text><line style="stroke:#181818;stroke-width:1.0;" x1="419.1104" x2="461.1104" y1="169.2734" y2="169.2734"/><line style="stroke:#181818;stroke-width:1.0;" x1="461.1104" x2="461.1104" y1="169.2734" y2="182.2734"/><line style="stroke:#181818;stroke-width:1.0;" x1="420.1104" x2="461.1104" y1="182.2734" y2="182.2734"/><polygon fill="#181818" points="430.1104,178.2734,420.1104,182.2734,430.1104,186.2734,426.1104,182.2734" style="stroke:#181818;stroke-width:1.0;"/><text fill="#000000" font-family="sans-serif" font-size="13" lengthAdjust="spacing" textLength="106.2407" x="426.1104" y="164.417">Evaluate condition</text><polygon fill="#181818" points="259.4731,208.625,249.4731,212.625,259.4731,216.625,255.4731,212.625" style="stroke:#181818;stroke-width:1.0;"/><line style="stroke:#181818;stroke-width:1.0;stroke-dasharray:2.0,2.0;" x1="253.4731" x2="418.1104" y1="212.625" y2="212.625"/><text fill="#000000" font-family="sans-serif" font-size="13" lengthAdjust="spacing" textLength="90.3271" x="265.4731" y="207.7686">Condition result</text><path d="M10,227.625 L70.1709,227.625 L70.1709,235.9766 L60.1709,245.9766 L10,245.9766 L10,227.625 " fill="#EEEEEE" style="stroke:#000000;stroke-width:1.5;"/><rect fill="none" height="309.3516" style="stroke:#000000;stroke-width:1.5;" width="460.6274" x="10" y="227.625"/><text fill="#000000" font-family="sans-serif" font-size="13" font-weight="bold" lengthAdjust="spacing" textLength="15.1709" x="25" y="242.1201">alt</text><text fill="#000000" font-family="sans-serif" font-size="11" font-weight="bold" lengthAdjust="spacing" textLength="100.2246" x="85.1709" y="241.0439">[Condition Passed]</text><polygon fill="#181818" points="407.1104,264.3281,417.1104,268.3281,407.1104,272.3281,411.1104,268.3281" style="stroke:#181818;stroke-width:1.0;"/><line style="stroke:#181818;stroke-width:1.0;" x1="248.4731" x2="413.1104" y1="268.3281" y2="268.3281"/><text fill="#000000" font-family="sans-serif" font-size="13" lengthAdjust="spacing" textLength="95.3545" x="255.4731" y="263.4717">getRegister(Rm)</text><polygon fill="#181818" points="259.4731,294.6797,249.4731,298.6797,259.4731,302.6797,255.4731,298.6797" style="stroke:#181818;stroke-width:1.0;"/><line style="stroke:#181818;stroke-width:1.0;stroke-dasharray:2.0,2.0;" x1="253.4731" x2="418.1104" y1="298.6797" y2="298.6797"/><text fill="#000000" font-family="sans-serif" font-size="13" lengthAdjust="spacing" textLength="54.9072" x="265.4731" y="293.8232">Rm value</text><polygon fill="#181818" points="407.1104,325.0313,417.1104,329.0313,407.1104,333.0313,411.1104,329.0313" style="stroke:#181818;stroke-width:1.0;"/><line style="stroke:#181818;stroke-width:1.0;" x1="248.4731" x2="413.1104" y1="329.0313" y2="329.0313"/><text fill="#000000" font-family="sans-serif" font-size="13" lengthAdjust="spacing" textLength="91.0254" x="255.4731" y="324.1748">getRegister(Rs)</text><polygon fill="#181818" points="259.4731,355.3828,249.4731,359.3828,259.4731,363.3828,255.4731,359.3828" style="stroke:#181818;stroke-width:1.0;"/><line style="stroke:#181818;stroke-width:1.0;stroke-dasharray:2.0,2.0;" x1="253.4731" x2="418.1104" y1="359.3828" y2="359.3828"/><text fill="#000000" font-family="sans-serif" font-size="13" lengthAdjust="spacing" textLength="50.5781" x="265.4731" y="354.5264">Rs value</text><polygon fill="#181818" points="407.1104,385.7344,417.1104,389.7344,407.1104,393.7344,411.1104,389.7344" style="stroke:#181818;stroke-width:1.0;"/><line style="stroke:#181818;stroke-width:1.0;" x1="248.4731" x2="413.1104" y1="389.7344" y2="389.7344"/><text fill="#000000" font-family="sans-serif" font-size="13" lengthAdjust="spacing" textLength="146.6372" x="255.4731" y="384.8779">setRegister(Rd, Rm * Rs)</text><path d="M116.7217,404.7344 L176.8926,404.7344 L176.8926,413.0859 L166.8926,423.0859 L116.7217,423.0859 L116.7217,404.7344 " fill="#EEEEEE" style="stroke:#000000;stroke-width:1.5;"/><rect fill="none" height="48.7031" style="stroke:#000000;stroke-width:1.5;" width="343.9058" x="116.7217" y="404.7344"/><text fill="#000000" font-family="sans-serif" font-size="13" font-weight="bold" lengthAdjust="spacing" textLength="15.1709" x="131.7217" y="419.2295">alt</text><text fill="#000000" font-family="sans-serif" font-size="11" font-weight="bold" lengthAdjust="spacing" textLength="62.3423" x="191.8926" y="418.1533">[S bit is set]</text><polygon fill="#181818" points="407.1104,441.4375,417.1104,445.4375,407.1104,449.4375,411.1104,445.4375" style="stroke:#181818;stroke-width:1.0;"/><line style="stroke:#181818;stroke-width:1.0;" x1="248.4731" x2="413.1104" y1="445.4375" y2="445.4375"/><text fill="#000000" font-family="sans-serif" font-size="13" lengthAdjust="spacing" textLength="111.998" x="255.4731" y="440.5811">updateFlags(result)</text><polygon fill="#181818" points="66.4033,478.7891,56.4033,482.7891,66.4033,486.7891,62.4033,482.7891" style="stroke:#181818;stroke-width:1.0;"/><line style="stroke:#181818;stroke-width:1.0;" x1="60.4033" x2="247.4731" y1="482.7891" y2="482.7891"/><text fill="#000000" font-family="sans-serif" font-size="13" lengthAdjust="spacing" textLength="39.019" x="72.4033" y="477.9326">Return</text><line style="stroke:#000000;stroke-width:1.0;stroke-dasharray:2.0,2.0;" x1="10" x2="470.6274" y1="491.7891" y2="491.7891"/><text fill="#000000" font-family="sans-serif" font-size="11" font-weight="bold" lengthAdjust="spacing" textLength="93.4839" x="15" y="503.208">[Condition Failed]</text><polygon fill="#181818" points="66.4033,524.9766,56.4033,528.9766,66.4033,532.9766,62.4033,528.9766" style="stroke:#181818;stroke-width:1.0;"/><line style="stroke:#181818;stroke-width:1.0;" x1="60.4033" x2="247.4731" y1="528.9766" y2="528.9766"/><text fill="#000000" font-family="sans-serif" font-size="13" lengthAdjust="spacing" textLength="39.019" x="72.4033" y="524.1201">Return</text><!--SRC=[XL7DQiCm3BxxAKHFoUZs03qCIaXPO86IjUVYEI8pSrnZoMEFFpkXQTBz-IJh-vDircmGwkCpL9RO1yNwRA7yH1LI9OIJdhNIJbg6LI-rVL3EhK0IrF6oXBTDVT9N6pfjc-hmL9U7gfXKGsifKovCSB4_2f6SuVvnv6u0Xsam3fb5wXfc4RaOE8aSbHjGRwZUYxDjTK8p5QjSH6GYb1_I1Ca8wa8QuMlQf0QF50mBQNZMt4iYR0N4iupka1liD37whEdpWN5ZtVIGul4_DVsifb_LD5UtwnHq1nURDFyBl6e6JOavDBzx1DV6TzaPsL4sRZxAqTvictudJeCSl1Le26UlivFQu9_ywFO5]--></g></svg>