<svg xmlns="http://www.w3.org/2000/svg" xmlns:xlink="http://www.w3.org/1999/xlink" contentStyleType="text/css" height="590px" preserveAspectRatio="none" style="width:630px;height:590px;background:#FFFFFF;" version="1.1" viewBox="0 0 630 590" width="630px" zoomAndPan="magnify"><title>RSC Instruction Execution</title><defs/><g><text fill="#000000" font-family="sans-serif" font-size="14" font-weight="bold" lengthAdjust="spacing" textLength="176.5723" x="226.4021" y="29.5332">RSC Instruction Execution</text><rect fill="none" height="309.3516" style="stroke:#000000;stroke-width:1.5;" width="551.6528" x="10" y="227.625"/><rect fill="none" height="48.7031" style="stroke:#000000;stroke-width:1.5;" width="434.9312" x="116.7217" y="404.7344"/><line style="stroke:#181818;stroke-width:0.5;stroke-dasharray:5.0,5.0;" x1="55" x2="55" y1="76.2188" y2="553.9766"/><line style="stroke:#181818;stroke-width:0.5;stroke-dasharray:5.0,5.0;" x1="247.7217" x2="247.7217" y1="76.2188" y2="553.9766"/><line style="stroke:#181818;stroke-width:0.5;stroke-dasharray:5.0,5.0;" x1="509.6187" x2="509.6187" y1="76.2188" y2="553.9766"/><rect fill="#E2E2F0" height="31.6094" rx="2.5" ry="2.5" style="stroke:#181818;stroke-width:0.5;" width="70.8066" x="20" y="43.6094"/><text fill="#000000" font-family="sans-serif" font-size="14" lengthAdjust="spacing" textLength="56.8066" x="27" y="65.1426">main.cpp</text><rect fill="#E2E2F0" height="31.6094" rx="2.5" ry="2.5" style="stroke:#181818;stroke-width:0.5;" width="70.8066" x="20" y="552.9766"/><text fill="#000000" font-family="sans-serif" font-size="14" lengthAdjust="spacing" textLength="56.8066" x="27" y="574.5098">main.cpp</text><rect fill="#E2E2F0" height="31.6094" rx="2.5" ry="2.5" style="stroke:#181818;stroke-width:0.5;" width="243.5029" x="126.7217" y="43.6094"/><text fill="#000000" font-family="sans-serif" font-size="14" lengthAdjust="spacing" textLength="229.5029" x="133.7217" y="65.1426">ARM_instructions_ARITHMETIC.cpp</text><rect fill="#E2E2F0" height="31.6094" rx="2.5" ry="2.5" style="stroke:#181818;stroke-width:0.5;" width="243.5029" x="126.7217" y="552.9766"/><text fill="#000000" font-family="sans-serif" font-size="14" lengthAdjust="spacing" textLength="229.5029" x="133.7217" y="574.5098">ARM_instructions_ARITHMETIC.cpp</text><rect fill="#E2E2F0" height="31.6094" rx="2.5" ry="2.5" style="stroke:#181818;stroke-width:0.5;" width="63.0342" x="478.6187" y="43.6094"/><text fill="#000000" font-family="sans-serif" font-size="14" lengthAdjust="spacing" textLength="49.0342" x="485.6187" y="65.1426">cpu.cpp</text><rect fill="#E2E2F0" height="31.6094" rx="2.5" ry="2.5" style="stroke:#181818;stroke-width:0.5;" width="63.0342" x="478.6187" y="552.9766"/><text fill="#000000" font-family="sans-serif" font-size="14" lengthAdjust="spacing" textLength="49.0342" x="485.6187" y="574.5098">cpu.cpp</text><polygon fill="#181818" points="236.4731,104.5703,246.4731,108.5703,236.4731,112.5703,240.4731,108.5703" style="stroke:#181818;stroke-width:1.0;"/><line style="stroke:#181818;stroke-width:1.0;" x1="55.4033" x2="242.4731" y1="108.5703" y2="108.5703"/><text fill="#000000" font-family="sans-serif" font-size="13" lengthAdjust="spacing" textLength="169.0698" x="62.4033" y="103.7139">executeRSC(cpu, instruction)</text><polygon fill="#181818" points="498.1357,134.9219,508.1357,138.9219,498.1357,142.9219,502.1357,138.9219" style="stroke:#181818;stroke-width:1.0;"/><line style="stroke:#181818;stroke-width:1.0;" x1="248.4731" x2="504.1357" y1="138.9219" y2="138.9219"/><text fill="#000000" font-family="sans-serif" font-size="13" lengthAdjust="spacing" textLength="125.7344" x="255.4731" y="134.0654">checkCondition(cond)</text><line style="stroke:#181818;stroke-width:1.0;" x1="510.1357" x2="552.1357" y1="169.2734" y2="169.2734"/><line style="stroke:#181818;stroke-width:1.0;" x1="552.1357" x2="552.1357" y1="169.2734" y2="182.2734"/><line style="stroke:#181818;stroke-width:1.0;" x1="511.1357" x2="552.1357" y1="182.2734" y2="182.2734"/><polygon fill="#181818" points="521.1357,178.2734,511.1357,182.2734,521.1357,186.2734,517.1357,182.2734" style="stroke:#181818;stroke-width:1.0;"/><text fill="#000000" font-family="sans-serif" font-size="13" lengthAdjust="spacing" textLength="106.2407" x="517.1357" y="164.417">Evaluate condition</text><polygon fill="#181818" points="259.4731,208.625,249.4731,212.625,259.4731,216.625,255.4731,212.625" style="stroke:#181818;stroke-width:1.0;"/><line style="stroke:#181818;stroke-width:1.0;stroke-dasharray:2.0,2.0;" x1="253.4731" x2="509.1357" y1="212.625" y2="212.625"/><text fill="#000000" font-family="sans-serif" font-size="13" lengthAdjust="spacing" textLength="90.3271" x="265.4731" y="207.7686">Condition result</text><path d="M10,227.625 L70.1709,227.625 L70.1709,235.9766 L60.1709,245.9766 L10,245.9766 L10,227.625 " fill="#EEEEEE" style="stroke:#000000;stroke-width:1.5;"/><rect fill="none" height="309.3516" style="stroke:#000000;stroke-width:1.5;" width="551.6528" x="10" y="227.625"/><text fill="#000000" font-family="sans-serif" font-size="13" font-weight="bold" lengthAdjust="spacing" textLength="15.1709" x="25" y="242.1201">alt</text><text fill="#000000" font-family="sans-serif" font-size="11" font-weight="bold" lengthAdjust="spacing" textLength="100.2246" x="85.1709" y="241.0439">[Condition Passed]</text><polygon fill="#181818" points="498.1357,264.3281,508.1357,268.3281,498.1357,272.3281,502.1357,268.3281" style="stroke:#181818;stroke-width:1.0;"/><line style="stroke:#181818;stroke-width:1.0;" x1="248.4731" x2="504.1357" y1="268.3281" y2="268.3281"/><text fill="#000000" font-family="sans-serif" font-size="13" lengthAdjust="spacing" textLength="62.8481" x="255.4731" y="263.4717">getCPSR()</text><polygon fill="#181818" points="259.4731,294.6797,249.4731,298.6797,259.4731,302.6797,255.4731,298.6797" style="stroke:#181818;stroke-width:1.0;"/><line style="stroke:#181818;stroke-width:1.0;stroke-dasharray:2.0,2.0;" x1="253.4731" x2="509.1357" y1="298.6797" y2="298.6797"/><text fill="#000000" font-family="sans-serif" font-size="13" lengthAdjust="spacing" textLength="70.8081" x="265.4731" y="293.8232">CPSR value</text><polygon fill="#181818" points="498.1357,325.0313,508.1357,329.0313,498.1357,333.0313,502.1357,329.0313" style="stroke:#181818;stroke-width:1.0;"/><line style="stroke:#181818;stroke-width:1.0;" x1="248.4731" x2="504.1357" y1="329.0313" y2="329.0313"/><text fill="#000000" font-family="sans-serif" font-size="13" lengthAdjust="spacing" textLength="91.7554" x="255.4731" y="324.1748">getRegister(Rn)</text><polygon fill="#181818" points="259.4731,355.3828,249.4731,359.3828,259.4731,363.3828,255.4731,359.3828" style="stroke:#181818;stroke-width:1.0;"/><line style="stroke:#181818;stroke-width:1.0;stroke-dasharray:2.0,2.0;" x1="253.4731" x2="509.1357" y1="359.3828" y2="359.3828"/><text fill="#000000" font-family="sans-serif" font-size="13" lengthAdjust="spacing" textLength="51.3081" x="265.4731" y="354.5264">Rn value</text><polygon fill="#181818" points="498.1357,385.7344,508.1357,389.7344,498.1357,393.7344,502.1357,389.7344" style="stroke:#181818;stroke-width:1.0;"/><line style="stroke:#181818;stroke-width:1.0;" x1="248.4731" x2="504.1357" y1="389.7344" y2="389.7344"/><text fill="#000000" font-family="sans-serif" font-size="13" lengthAdjust="spacing" textLength="237.6626" x="255.4731" y="384.8779">setRegister(Rd, Oprnd2 - Rn - (1 - carry))</text><path d="M116.7217,404.7344 L176.8926,404.7344 L176.8926,413.0859 L166.8926,423.0859 L116.7217,423.0859 L116.7217,404.7344 " fill="#EEEEEE" style="stroke:#000000;stroke-width:1.5;"/><rect fill="none" height="48.7031" style="stroke:#000000;stroke-width:1.5;" width="434.9312" x="116.7217" y="404.7344"/><text fill="#000000" font-family="sans-serif" font-size="13" font-weight="bold" lengthAdjust="spacing" textLength="15.1709" x="131.7217" y="419.2295">alt</text><text fill="#000000" font-family="sans-serif" font-size="11" font-weight="bold" lengthAdjust="spacing" textLength="62.3423" x="191.8926" y="418.1533">[S bit is set]</text><polygon fill="#181818" points="498.1357,441.4375,508.1357,445.4375,498.1357,449.4375,502.1357,445.4375" style="stroke:#181818;stroke-width:1.0;"/><line style="stroke:#181818;stroke-width:1.0;" x1="248.4731" x2="504.1357" y1="445.4375" y2="445.4375"/><text fill="#000000" font-family="sans-serif" font-size="13" lengthAdjust="spacing" textLength="111.998" x="255.4731" y="440.5811">updateFlags(result)</text><polygon fill="#181818" points="66.4033,478.7891,56.4033,482.7891,66.4033,486.7891,62.4033,482.7891" style="stroke:#181818;stroke-width:1.0;"/><line style="stroke:#181818;stroke-width:1.0;" x1="60.4033" x2="247.4731" y1="482.7891" y2="482.7891"/><text fill="#000000" font-family="sans-serif" font-size="13" lengthAdjust="spacing" textLength="39.019" x="72.4033" y="477.9326">Return</text><line style="stroke:#000000;stroke-width:1.0;stroke-dasharray:2.0,2.0;" x1="10" x2="561.6528" y1="491.7891" y2="491.7891"/><text fill="#000000" font-family="sans-serif" font-size="11" font-weight="bold" lengthAdjust="spacing" textLength="93.4839" x="15" y="503.208">[Condition Failed]</text><polygon fill="#181818" points="66.4033,524.9766,56.4033,528.9766,66.4033,532.9766,62.4033,528.9766" style="stroke:#181818;stroke-width:1.0;"/><line style="stroke:#181818;stroke-width:1.0;" x1="60.4033" x2="247.4731" y1="528.9766" y2="528.9766"/><text fill="#000000" font-family="sans-serif" font-size="13" lengthAdjust="spacing" textLength="39.019" x="72.4033" y="524.1201">Return</text><!--SRC=[VP4nRuCm48Lt_ufJ9f12fNRCK2b2YSg0YamwHwuv4QkkOzddglttjK4baAPbGERU-zwT3rAa4NXRGcKykI19dGtiFb66T6BC2aTAAYiCmUfTA7CdhLs1y537ZwMyvVLHNMBySSkhmrEzErJbH0sb9IPjcEIoUM4i9KFnE7etWCCq68VCedKDinOv6pp97CaDo1FAj_9iEfNKJCPJpg8o6NOVGWT12FB7DCgNRXCD3dtGn8IcMR4HtcF783xBrZrIsRGyomVjEZGga5hZRP9ZhpoXoxYvoNFp9-tdTBU6P-jCzm15OWh8xkDB2kU-yZ4utQQ5LqMWV6A7uk_KOBkufRqMlS_6FOmucgkxftyLvqCApZ3K7cUxsWkbyLz_JFi6]--></g></svg>