<svg xmlns="http://www.w3.org/2000/svg" xmlns:xlink="http://www.w3.org/1999/xlink" contentStyleType="text/css" height="651px" preserveAspectRatio="none" style="width:606px;height:651px;background:#FFFFFF;" version="1.1" viewBox="0 0 606 651" width="606px" zoomAndPan="magnify"><title>SBC Instruction Execution</title><defs/><g><text fill="#000000" font-family="sans-serif" font-size="14" font-weight="bold" lengthAdjust="spacing" textLength="176.5723" x="214.4717" y="29.5332">SBC Instruction Execution</text><rect fill="none" height="370.0547" style="stroke:#000000;stroke-width:1.5;" width="527.792" x="10" y="227.625"/><rect fill="none" height="48.7031" style="stroke:#000000;stroke-width:1.5;" width="411.7876" x="116.0044" y="465.4375"/><line style="stroke:#181818;stroke-width:0.5;stroke-dasharray:5.0,5.0;" x1="55" x2="55" y1="76.2188" y2="614.6797"/><line style="stroke:#181818;stroke-width:0.5;stroke-dasharray:5.0,5.0;" x1="247.0044" x2="247.0044" y1="76.2188" y2="614.6797"/><line style="stroke:#181818;stroke-width:0.5;stroke-dasharray:5.0,5.0;" x1="485.7578" x2="485.7578" y1="76.2188" y2="614.6797"/><rect fill="#E2E2F0" height="31.6094" rx="2.5" ry="2.5" style="stroke:#181818;stroke-width:0.5;" width="70.8066" x="20" y="43.6094"/><text fill="#000000" font-family="sans-serif" font-size="14" lengthAdjust="spacing" textLength="56.8066" x="27" y="65.1426">main.cpp</text><rect fill="#E2E2F0" height="31.6094" rx="2.5" ry="2.5" style="stroke:#181818;stroke-width:0.5;" width="70.8066" x="20" y="613.6797"/><text fill="#000000" font-family="sans-serif" font-size="14" lengthAdjust="spacing" textLength="56.8066" x="27" y="635.2129">main.cpp</text><rect fill="#E2E2F0" height="31.6094" rx="2.5" ry="2.5" style="stroke:#181818;stroke-width:0.5;" width="243.5029" x="126.0044" y="43.6094"/><text fill="#000000" font-family="sans-serif" font-size="14" lengthAdjust="spacing" textLength="229.5029" x="133.0044" y="65.1426">ARM_instructions_ARITHMETIC.cpp</text><rect fill="#E2E2F0" height="31.6094" rx="2.5" ry="2.5" style="stroke:#181818;stroke-width:0.5;" width="243.5029" x="126.0044" y="613.6797"/><text fill="#000000" font-family="sans-serif" font-size="14" lengthAdjust="spacing" textLength="229.5029" x="133.0044" y="635.2129">ARM_instructions_ARITHMETIC.cpp</text><rect fill="#E2E2F0" height="31.6094" rx="2.5" ry="2.5" style="stroke:#181818;stroke-width:0.5;" width="63.0342" x="454.7578" y="43.6094"/><text fill="#000000" font-family="sans-serif" font-size="14" lengthAdjust="spacing" textLength="49.0342" x="461.7578" y="65.1426">cpu.cpp</text><rect fill="#E2E2F0" height="31.6094" rx="2.5" ry="2.5" style="stroke:#181818;stroke-width:0.5;" width="63.0342" x="454.7578" y="613.6797"/><text fill="#000000" font-family="sans-serif" font-size="14" lengthAdjust="spacing" textLength="49.0342" x="461.7578" y="635.2129">cpu.cpp</text><polygon fill="#181818" points="235.7559,104.5703,245.7559,108.5703,235.7559,112.5703,239.7559,108.5703" style="stroke:#181818;stroke-width:1.0;"/><line style="stroke:#181818;stroke-width:1.0;" x1="55.4033" x2="241.7559" y1="108.5703" y2="108.5703"/><text fill="#000000" font-family="sans-serif" font-size="13" lengthAdjust="spacing" textLength="168.3525" x="62.4033" y="103.7139">executeSBC(cpu, instruction)</text><polygon fill="#181818" points="474.2749,134.9219,484.2749,138.9219,474.2749,142.9219,478.2749,138.9219" style="stroke:#181818;stroke-width:1.0;"/><line style="stroke:#181818;stroke-width:1.0;" x1="247.7559" x2="480.2749" y1="138.9219" y2="138.9219"/><text fill="#000000" font-family="sans-serif" font-size="13" lengthAdjust="spacing" textLength="125.7344" x="254.7559" y="134.0654">checkCondition(cond)</text><line style="stroke:#181818;stroke-width:1.0;" x1="486.2749" x2="528.2749" y1="169.2734" y2="169.2734"/><line style="stroke:#181818;stroke-width:1.0;" x1="528.2749" x2="528.2749" y1="169.2734" y2="182.2734"/><line style="stroke:#181818;stroke-width:1.0;" x1="487.2749" x2="528.2749" y1="182.2734" y2="182.2734"/><polygon fill="#181818" points="497.2749,178.2734,487.2749,182.2734,497.2749,186.2734,493.2749,182.2734" style="stroke:#181818;stroke-width:1.0;"/><text fill="#000000" font-family="sans-serif" font-size="13" lengthAdjust="spacing" textLength="106.2407" x="493.2749" y="164.417">Evaluate condition</text><polygon fill="#181818" points="258.7559,208.625,248.7559,212.625,258.7559,216.625,254.7559,212.625" style="stroke:#181818;stroke-width:1.0;"/><line style="stroke:#181818;stroke-width:1.0;stroke-dasharray:2.0,2.0;" x1="252.7559" x2="485.2749" y1="212.625" y2="212.625"/><text fill="#000000" font-family="sans-serif" font-size="13" lengthAdjust="spacing" textLength="90.3271" x="264.7559" y="207.7686">Condition result</text><path d="M10,227.625 L70.1709,227.625 L70.1709,235.9766 L60.1709,245.9766 L10,245.9766 L10,227.625 " fill="#EEEEEE" style="stroke:#000000;stroke-width:1.5;"/><rect fill="none" height="370.0547" style="stroke:#000000;stroke-width:1.5;" width="527.792" x="10" y="227.625"/><text fill="#000000" font-family="sans-serif" font-size="13" font-weight="bold" lengthAdjust="spacing" textLength="15.1709" x="25" y="242.1201">alt</text><text fill="#000000" font-family="sans-serif" font-size="11" font-weight="bold" lengthAdjust="spacing" textLength="100.2246" x="85.1709" y="241.0439">[Condition Passed]</text><polygon fill="#181818" points="474.2749,264.3281,484.2749,268.3281,474.2749,272.3281,478.2749,268.3281" style="stroke:#181818;stroke-width:1.0;"/><line style="stroke:#181818;stroke-width:1.0;" x1="247.7559" x2="480.2749" y1="268.3281" y2="268.3281"/><text fill="#000000" font-family="sans-serif" font-size="13" lengthAdjust="spacing" textLength="62.8481" x="254.7559" y="263.4717">getCPSR()</text><polygon fill="#181818" points="258.7559,294.6797,248.7559,298.6797,258.7559,302.6797,254.7559,298.6797" style="stroke:#181818;stroke-width:1.0;"/><line style="stroke:#181818;stroke-width:1.0;stroke-dasharray:2.0,2.0;" x1="252.7559" x2="485.2749" y1="298.6797" y2="298.6797"/><text fill="#000000" font-family="sans-serif" font-size="13" lengthAdjust="spacing" textLength="70.8081" x="264.7559" y="293.8232">CPSR value</text><polygon fill="#181818" points="474.2749,325.0313,484.2749,329.0313,474.2749,333.0313,478.2749,329.0313" style="stroke:#181818;stroke-width:1.0;"/><line style="stroke:#181818;stroke-width:1.0;" x1="247.7559" x2="480.2749" y1="329.0313" y2="329.0313"/><text fill="#000000" font-family="sans-serif" font-size="13" lengthAdjust="spacing" textLength="91.7554" x="254.7559" y="324.1748">getRegister(Rn)</text><polygon fill="#181818" points="258.7559,355.3828,248.7559,359.3828,258.7559,363.3828,254.7559,359.3828" style="stroke:#181818;stroke-width:1.0;"/><line style="stroke:#181818;stroke-width:1.0;stroke-dasharray:2.0,2.0;" x1="252.7559" x2="485.2749" y1="359.3828" y2="359.3828"/><text fill="#000000" font-family="sans-serif" font-size="13" lengthAdjust="spacing" textLength="51.3081" x="264.7559" y="354.5264">Rn value</text><polygon fill="#181818" points="474.2749,385.7344,484.2749,389.7344,474.2749,393.7344,478.2749,389.7344" style="stroke:#181818;stroke-width:1.0;"/><line style="stroke:#181818;stroke-width:1.0;" x1="247.7559" x2="480.2749" y1="389.7344" y2="389.7344"/><text fill="#000000" font-family="sans-serif" font-size="13" lengthAdjust="spacing" textLength="95.3545" x="254.7559" y="384.8779">getRegister(Rm)</text><polygon fill="#181818" points="258.7559,416.0859,248.7559,420.0859,258.7559,424.0859,254.7559,420.0859" style="stroke:#181818;stroke-width:1.0;"/><line style="stroke:#181818;stroke-width:1.0;stroke-dasharray:2.0,2.0;" x1="252.7559" x2="485.2749" y1="420.0859" y2="420.0859"/><text fill="#000000" font-family="sans-serif" font-size="13" lengthAdjust="spacing" textLength="54.9072" x="264.7559" y="415.2295">Rm value</text><polygon fill="#181818" points="474.2749,446.4375,484.2749,450.4375,474.2749,454.4375,478.2749,450.4375" style="stroke:#181818;stroke-width:1.0;"/><line style="stroke:#181818;stroke-width:1.0;" x1="247.7559" x2="480.2749" y1="450.4375" y2="450.4375"/><text fill="#000000" font-family="sans-serif" font-size="13" lengthAdjust="spacing" textLength="214.519" x="254.7559" y="445.5811">setRegister(Rd, Rn - Rm - (1 - carry))</text><path d="M116.0044,465.4375 L176.1753,465.4375 L176.1753,473.7891 L166.1753,483.7891 L116.0044,483.7891 L116.0044,465.4375 " fill="#EEEEEE" style="stroke:#000000;stroke-width:1.5;"/><rect fill="none" height="48.7031" style="stroke:#000000;stroke-width:1.5;" width="411.7876" x="116.0044" y="465.4375"/><text fill="#000000" font-family="sans-serif" font-size="13" font-weight="bold" lengthAdjust="spacing" textLength="15.1709" x="131.0044" y="479.9326">alt</text><text fill="#000000" font-family="sans-serif" font-size="11" font-weight="bold" lengthAdjust="spacing" textLength="62.3423" x="191.1753" y="478.8564">[S bit is set]</text><polygon fill="#181818" points="474.2749,502.1406,484.2749,506.1406,474.2749,510.1406,478.2749,506.1406" style="stroke:#181818;stroke-width:1.0;"/><line style="stroke:#181818;stroke-width:1.0;" x1="247.7559" x2="480.2749" y1="506.1406" y2="506.1406"/><text fill="#000000" font-family="sans-serif" font-size="13" lengthAdjust="spacing" textLength="111.998" x="254.7559" y="501.2842">updateFlags(result)</text><polygon fill="#181818" points="66.4033,539.4922,56.4033,543.4922,66.4033,547.4922,62.4033,543.4922" style="stroke:#181818;stroke-width:1.0;"/><line style="stroke:#181818;stroke-width:1.0;" x1="60.4033" x2="246.7559" y1="543.4922" y2="543.4922"/><text fill="#000000" font-family="sans-serif" font-size="13" lengthAdjust="spacing" textLength="39.019" x="72.4033" y="538.6357">Return</text><line style="stroke:#000000;stroke-width:1.0;stroke-dasharray:2.0,2.0;" x1="10" x2="537.792" y1="552.4922" y2="552.4922"/><text fill="#000000" font-family="sans-serif" font-size="11" font-weight="bold" lengthAdjust="spacing" textLength="93.4839" x="15" y="563.9111">[Condition Failed]</text><polygon fill="#181818" points="66.4033,585.6797,56.4033,589.6797,66.4033,593.6797,62.4033,589.6797" style="stroke:#181818;stroke-width:1.0;"/><line style="stroke:#181818;stroke-width:1.0;" x1="60.4033" x2="246.7559" y1="589.6797" y2="589.6797"/><text fill="#000000" font-family="sans-serif" font-size="13" lengthAdjust="spacing" textLength="39.019" x="72.4033" y="584.8232">Return</text><!--SRC=[ZP51QuGm48Nl-HN3dXJMGgzxA6nbbteGHBVd9Os33OtPa4nA- - -RA7LrQqjpa3ZlVM-62KbI2CrZ3eLsPBqWUT5m-43Xuuqnmor98GtN19kUItqdZDa0Tr26dwMyhykplCQuyxukJa_buLJa4pMKbfWmVfBpwfcnc0pPm-ZT0GxJO1Wo2TOjp5gaRF14So1t85vHlEKNtSge9YBSKXQKoN1uvyfpGX3Vfb6-TfjeiEYy8iOLpOeLTmvR1k4iMtT8UTNKIJfejw51WTWQryaQE-a8RLBhLRxM_wFxTRh_bNPpkjt6HbdqPv3SXu_WrdwcOsZSGmClaa2wo0t5dudUj66_HyKxbumR777KDrkBhnncG_9MCrGEPri-SgdmJtz8-m80]--></g></svg>