<svg xmlns="http://www.w3.org/2000/svg" xmlns:xlink="http://www.w3.org/1999/xlink" contentStyleType="text/css" height="742px" preserveAspectRatio="none" style="width:716px;height:742px;background:#FFFFFF;" version="1.1" viewBox="0 0 716 742" width="716px" zoomAndPan="magnify"><title>SMLAL Instruction Execution</title><defs/><g><text fill="#000000" font-family="sans-serif" font-size="14" font-weight="bold" lengthAdjust="spacing" textLength="195.2275" x="260.2354" y="29.5332">SMLAL Instruction Execution</text><rect fill="none" height="461.1094" style="stroke:#000000;stroke-width:1.5;" width="637.9746" x="10" y="227.625"/><rect fill="none" height="48.7031" style="stroke:#000000;stroke-width:1.5;" width="506.0693" x="131.9053" y="556.4922"/><line style="stroke:#181818;stroke-width:0.5;stroke-dasharray:5.0,5.0;" x1="55" x2="55" y1="76.2188" y2="705.7344"/><line style="stroke:#181818;stroke-width:0.5;stroke-dasharray:5.0,5.0;" x1="262.9053" x2="262.9053" y1="76.2188" y2="705.7344"/><line style="stroke:#181818;stroke-width:0.5;stroke-dasharray:5.0,5.0;" x1="595.9404" x2="595.9404" y1="76.2188" y2="705.7344"/><rect fill="#E2E2F0" height="31.6094" rx="2.5" ry="2.5" style="stroke:#181818;stroke-width:0.5;" width="70.8066" x="20" y="43.6094"/><text fill="#000000" font-family="sans-serif" font-size="14" lengthAdjust="spacing" textLength="56.8066" x="27" y="65.1426">main.cpp</text><rect fill="#E2E2F0" height="31.6094" rx="2.5" ry="2.5" style="stroke:#181818;stroke-width:0.5;" width="70.8066" x="20" y="704.7344"/><text fill="#000000" font-family="sans-serif" font-size="14" lengthAdjust="spacing" textLength="56.8066" x="27" y="726.2676">main.cpp</text><rect fill="#E2E2F0" height="31.6094" rx="2.5" ry="2.5" style="stroke:#181818;stroke-width:0.5;" width="243.5029" x="141.9053" y="43.6094"/><text fill="#000000" font-family="sans-serif" font-size="14" lengthAdjust="spacing" textLength="229.5029" x="148.9053" y="65.1426">ARM_instructions_ARITHMETIC.cpp</text><rect fill="#E2E2F0" height="31.6094" rx="2.5" ry="2.5" style="stroke:#181818;stroke-width:0.5;" width="243.5029" x="141.9053" y="704.7344"/><text fill="#000000" font-family="sans-serif" font-size="14" lengthAdjust="spacing" textLength="229.5029" x="148.9053" y="726.2676">ARM_instructions_ARITHMETIC.cpp</text><rect fill="#E2E2F0" height="31.6094" rx="2.5" ry="2.5" style="stroke:#181818;stroke-width:0.5;" width="63.0342" x="564.9404" y="43.6094"/><text fill="#000000" font-family="sans-serif" font-size="14" lengthAdjust="spacing" textLength="49.0342" x="571.9404" y="65.1426">cpu.cpp</text><rect fill="#E2E2F0" height="31.6094" rx="2.5" ry="2.5" style="stroke:#181818;stroke-width:0.5;" width="63.0342" x="564.9404" y="704.7344"/><text fill="#000000" font-family="sans-serif" font-size="14" lengthAdjust="spacing" textLength="49.0342" x="571.9404" y="726.2676">cpu.cpp</text><polygon fill="#181818" points="251.6567,104.5703,261.6567,108.5703,251.6567,112.5703,255.6567,108.5703" style="stroke:#181818;stroke-width:1.0;"/><line style="stroke:#181818;stroke-width:1.0;" x1="55.4033" x2="257.6567" y1="108.5703" y2="108.5703"/><text fill="#000000" font-family="sans-serif" font-size="13" lengthAdjust="spacing" textLength="184.2534" x="62.4033" y="103.7139">executeSMLAL(cpu, instruction)</text><polygon fill="#181818" points="584.4575,134.9219,594.4575,138.9219,584.4575,142.9219,588.4575,138.9219" style="stroke:#181818;stroke-width:1.0;"/><line style="stroke:#181818;stroke-width:1.0;" x1="263.6567" x2="590.4575" y1="138.9219" y2="138.9219"/><text fill="#000000" font-family="sans-serif" font-size="13" lengthAdjust="spacing" textLength="125.7344" x="270.6567" y="134.0654">checkCondition(cond)</text><line style="stroke:#181818;stroke-width:1.0;" x1="596.4575" x2="638.4575" y1="169.2734" y2="169.2734"/><line style="stroke:#181818;stroke-width:1.0;" x1="638.4575" x2="638.4575" y1="169.2734" y2="182.2734"/><line style="stroke:#181818;stroke-width:1.0;" x1="597.4575" x2="638.4575" y1="182.2734" y2="182.2734"/><polygon fill="#181818" points="607.4575,178.2734,597.4575,182.2734,607.4575,186.2734,603.4575,182.2734" style="stroke:#181818;stroke-width:1.0;"/><text fill="#000000" font-family="sans-serif" font-size="13" lengthAdjust="spacing" textLength="106.2407" x="603.4575" y="164.417">Evaluate condition</text><polygon fill="#181818" points="274.6567,208.625,264.6567,212.625,274.6567,216.625,270.6567,212.625" style="stroke:#181818;stroke-width:1.0;"/><line style="stroke:#181818;stroke-width:1.0;stroke-dasharray:2.0,2.0;" x1="268.6567" x2="595.4575" y1="212.625" y2="212.625"/><text fill="#000000" font-family="sans-serif" font-size="13" lengthAdjust="spacing" textLength="90.3271" x="280.6567" y="207.7686">Condition result</text><path d="M10,227.625 L70.1709,227.625 L70.1709,235.9766 L60.1709,245.9766 L10,245.9766 L10,227.625 " fill="#EEEEEE" style="stroke:#000000;stroke-width:1.5;"/><rect fill="none" height="461.1094" style="stroke:#000000;stroke-width:1.5;" width="637.9746" x="10" y="227.625"/><text fill="#000000" font-family="sans-serif" font-size="13" font-weight="bold" lengthAdjust="spacing" textLength="15.1709" x="25" y="242.1201">alt</text><text fill="#000000" font-family="sans-serif" font-size="11" font-weight="bold" lengthAdjust="spacing" textLength="100.2246" x="85.1709" y="241.0439">[Condition Passed]</text><polygon fill="#181818" points="584.4575,264.3281,594.4575,268.3281,584.4575,272.3281,588.4575,268.3281" style="stroke:#181818;stroke-width:1.0;"/><line style="stroke:#181818;stroke-width:1.0;" x1="263.6567" x2="590.4575" y1="268.3281" y2="268.3281"/><text fill="#000000" font-family="sans-serif" font-size="13" lengthAdjust="spacing" textLength="95.3545" x="270.6567" y="263.4717">getRegister(Rm)</text><polygon fill="#181818" points="274.6567,294.6797,264.6567,298.6797,274.6567,302.6797,270.6567,298.6797" style="stroke:#181818;stroke-width:1.0;"/><line style="stroke:#181818;stroke-width:1.0;stroke-dasharray:2.0,2.0;" x1="268.6567" x2="595.4575" y1="298.6797" y2="298.6797"/><text fill="#000000" font-family="sans-serif" font-size="13" lengthAdjust="spacing" textLength="54.9072" x="280.6567" y="293.8232">Rm value</text><polygon fill="#181818" points="584.4575,325.0313,594.4575,329.0313,584.4575,333.0313,588.4575,329.0313" style="stroke:#181818;stroke-width:1.0;"/><line style="stroke:#181818;stroke-width:1.0;" x1="263.6567" x2="590.4575" y1="329.0313" y2="329.0313"/><text fill="#000000" font-family="sans-serif" font-size="13" lengthAdjust="spacing" textLength="91.0254" x="270.6567" y="324.1748">getRegister(Rs)</text><polygon fill="#181818" points="274.6567,355.3828,264.6567,359.3828,274.6567,363.3828,270.6567,359.3828" style="stroke:#181818;stroke-width:1.0;"/><line style="stroke:#181818;stroke-width:1.0;stroke-dasharray:2.0,2.0;" x1="268.6567" x2="595.4575" y1="359.3828" y2="359.3828"/><text fill="#000000" font-family="sans-serif" font-size="13" lengthAdjust="spacing" textLength="50.5781" x="280.6567" y="354.5264">Rs value</text><polygon fill="#181818" points="584.4575,385.7344,594.4575,389.7344,584.4575,393.7344,588.4575,389.7344" style="stroke:#181818;stroke-width:1.0;"/><line style="stroke:#181818;stroke-width:1.0;" x1="263.6567" x2="590.4575" y1="389.7344" y2="389.7344"/><text fill="#000000" font-family="sans-serif" font-size="13" lengthAdjust="spacing" textLength="106.2153" x="270.6567" y="384.8779">getRegister(RdLo)</text><polygon fill="#181818" points="274.6567,416.0859,264.6567,420.0859,274.6567,424.0859,270.6567,420.0859" style="stroke:#181818;stroke-width:1.0;"/><line style="stroke:#181818;stroke-width:1.0;stroke-dasharray:2.0,2.0;" x1="268.6567" x2="595.4575" y1="420.0859" y2="420.0859"/><text fill="#000000" font-family="sans-serif" font-size="13" lengthAdjust="spacing" textLength="65.7681" x="280.6567" y="415.2295">RdLo value</text><polygon fill="#181818" points="584.4575,446.4375,594.4575,450.4375,584.4575,454.4375,588.4575,450.4375" style="stroke:#181818;stroke-width:1.0;"/><line style="stroke:#181818;stroke-width:1.0;" x1="263.6567" x2="590.4575" y1="450.4375" y2="450.4375"/><text fill="#000000" font-family="sans-serif" font-size="13" lengthAdjust="spacing" textLength="104.0317" x="270.6567" y="445.5811">getRegister(RdHi)</text><polygon fill="#181818" points="274.6567,476.7891,264.6567,480.7891,274.6567,484.7891,270.6567,480.7891" style="stroke:#181818;stroke-width:1.0;"/><line style="stroke:#181818;stroke-width:1.0;stroke-dasharray:2.0,2.0;" x1="268.6567" x2="595.4575" y1="480.7891" y2="480.7891"/><text fill="#000000" font-family="sans-serif" font-size="13" lengthAdjust="spacing" textLength="63.5845" x="280.6567" y="475.9326">RdHi value</text><polygon fill="#181818" points="584.4575,507.1406,594.4575,511.1406,584.4575,515.1406,588.4575,511.1406" style="stroke:#181818;stroke-width:1.0;"/><line style="stroke:#181818;stroke-width:1.0;" x1="263.6567" x2="590.4575" y1="511.1406" y2="511.1406"/><text fill="#000000" font-family="sans-serif" font-size="13" lengthAdjust="spacing" textLength="308.8008" x="270.6567" y="506.2842">setRegister(RdLo, (Rm * Rs + RdLo) &amp; 0xFFFFFFFF)</text><polygon fill="#181818" points="584.4575,537.4922,594.4575,541.4922,584.4575,545.4922,588.4575,541.4922" style="stroke:#181818;stroke-width:1.0;"/><line style="stroke:#181818;stroke-width:1.0;" x1="263.6567" x2="590.4575" y1="541.4922" y2="541.4922"/><text fill="#000000" font-family="sans-serif" font-size="13" lengthAdjust="spacing" textLength="302.7007" x="270.6567" y="536.6357">setRegister(RdHi, ((Rm * Rs + RdLo) &gt;&gt; 32) + RdHi)</text><path d="M131.9053,556.4922 L192.0762,556.4922 L192.0762,564.8438 L182.0762,574.8438 L131.9053,574.8438 L131.9053,556.4922 " fill="#EEEEEE" style="stroke:#000000;stroke-width:1.5;"/><rect fill="none" height="48.7031" style="stroke:#000000;stroke-width:1.5;" width="506.0693" x="131.9053" y="556.4922"/><text fill="#000000" font-family="sans-serif" font-size="13" font-weight="bold" lengthAdjust="spacing" textLength="15.1709" x="146.9053" y="570.9873">alt</text><text fill="#000000" font-family="sans-serif" font-size="11" font-weight="bold" lengthAdjust="spacing" textLength="62.3423" x="207.0762" y="569.9111">[S bit is set]</text><polygon fill="#181818" points="584.4575,593.1953,594.4575,597.1953,584.4575,601.1953,588.4575,597.1953" style="stroke:#181818;stroke-width:1.0;"/><line style="stroke:#181818;stroke-width:1.0;" x1="263.6567" x2="590.4575" y1="597.1953" y2="597.1953"/><text fill="#000000" font-family="sans-serif" font-size="13" lengthAdjust="spacing" textLength="126.458" x="270.6567" y="592.3389">updateFlags(resultLo)</text><polygon fill="#181818" points="66.4033,630.5469,56.4033,634.5469,66.4033,638.5469,62.4033,634.5469" style="stroke:#181818;stroke-width:1.0;"/><line style="stroke:#181818;stroke-width:1.0;" x1="60.4033" x2="262.6567" y1="634.5469" y2="634.5469"/><text fill="#000000" font-family="sans-serif" font-size="13" lengthAdjust="spacing" textLength="39.019" x="72.4033" y="629.6904">Return</text><line style="stroke:#000000;stroke-width:1.0;stroke-dasharray:2.0,2.0;" x1="10" x2="647.9746" y1="643.5469" y2="643.5469"/><text fill="#000000" font-family="sans-serif" font-size="11" font-weight="bold" lengthAdjust="spacing" textLength="93.4839" x="15" y="654.9658">[Condition Failed]</text><polygon fill="#181818" points="66.4033,676.7344,56.4033,680.7344,66.4033,684.7344,62.4033,680.7344" style="stroke:#181818;stroke-width:1.0;"/><line style="stroke:#181818;stroke-width:1.0;" x1="60.4033" x2="262.6567" y1="680.7344" y2="680.7344"/><text fill="#000000" font-family="sans-serif" font-size="13" lengthAdjust="spacing" textLength="39.019" x="72.4033" y="675.8779">Return</text><!--SRC=[ZP9DRy8m38Rl-HKMXwdTs3HjDmv85G8LYKgei3FAKejP2w5gd8cVloICyZt8AR7Vzx4JXuarmgoOP1CO6ykDKqnh0yCDAXTsGjIoOL9KIyFGMKaoBwgkEo0j5FvmdCxAOa5xZ5ravNYU5yFvUD2wOkZOfchNfWVJ3o426PxxMsqFC7Q3iSt4YxjmK2GLKHNatji3zONgUx0s5OLielmk5JxJ2eO_KZl926edsgRtzLetD6YTPY4r7mIdqbgi1FXrN7g9NEAIB6EJbAiqAaxGvGf2URpbjfVTzZvtDLbVzll4dOIShX1okagm9prqmJy3F8QsdsBj51xWTJFwM-bDH4uUSSRez-7zBOt7NPTXG3Fu90QoWH63vtHNLtxm8osNDjcETlTGQ4u66hwWlowoQun0RV7W0umaQVnNxsc_]--></g></svg>