<svg xmlns="http://www.w3.org/2000/svg" xmlns:xlink="http://www.w3.org/1999/xlink" contentStyleType="text/css" height="620px" preserveAspectRatio="none" style="width:714px;height:620px;background:#FFFFFF;" version="1.1" viewBox="0 0 714 620" width="714px" zoomAndPan="magnify"><title>SMULL Instruction Execution</title><defs/><g><text fill="#000000" font-family="sans-serif" font-size="14" font-weight="bold" lengthAdjust="spacing" textLength="195.2275" x="259.3181" y="29.5332">SMULL Instruction Execution</text><rect fill="none" height="339.7031" style="stroke:#000000;stroke-width:1.5;" width="636.1401" x="10" y="227.625"/><rect fill="none" height="48.7031" style="stroke:#000000;stroke-width:1.5;" width="503.5176" x="132.6226" y="435.0859"/><line style="stroke:#181818;stroke-width:0.5;stroke-dasharray:5.0,5.0;" x1="55" x2="55" y1="76.2188" y2="584.3281"/><line style="stroke:#181818;stroke-width:0.5;stroke-dasharray:5.0,5.0;" x1="263.6226" x2="263.6226" y1="76.2188" y2="584.3281"/><line style="stroke:#181818;stroke-width:0.5;stroke-dasharray:5.0,5.0;" x1="594.106" x2="594.106" y1="76.2188" y2="584.3281"/><rect fill="#E2E2F0" height="31.6094" rx="2.5" ry="2.5" style="stroke:#181818;stroke-width:0.5;" width="70.8066" x="20" y="43.6094"/><text fill="#000000" font-family="sans-serif" font-size="14" lengthAdjust="spacing" textLength="56.8066" x="27" y="65.1426">main.cpp</text><rect fill="#E2E2F0" height="31.6094" rx="2.5" ry="2.5" style="stroke:#181818;stroke-width:0.5;" width="70.8066" x="20" y="583.3281"/><text fill="#000000" font-family="sans-serif" font-size="14" lengthAdjust="spacing" textLength="56.8066" x="27" y="604.8613">main.cpp</text><rect fill="#E2E2F0" height="31.6094" rx="2.5" ry="2.5" style="stroke:#181818;stroke-width:0.5;" width="243.5029" x="142.6226" y="43.6094"/><text fill="#000000" font-family="sans-serif" font-size="14" lengthAdjust="spacing" textLength="229.5029" x="149.6226" y="65.1426">ARM_instructions_ARITHMETIC.cpp</text><rect fill="#E2E2F0" height="31.6094" rx="2.5" ry="2.5" style="stroke:#181818;stroke-width:0.5;" width="243.5029" x="142.6226" y="583.3281"/><text fill="#000000" font-family="sans-serif" font-size="14" lengthAdjust="spacing" textLength="229.5029" x="149.6226" y="604.8613">ARM_instructions_ARITHMETIC.cpp</text><rect fill="#E2E2F0" height="31.6094" rx="2.5" ry="2.5" style="stroke:#181818;stroke-width:0.5;" width="63.0342" x="563.106" y="43.6094"/><text fill="#000000" font-family="sans-serif" font-size="14" lengthAdjust="spacing" textLength="49.0342" x="570.106" y="65.1426">cpu.cpp</text><rect fill="#E2E2F0" height="31.6094" rx="2.5" ry="2.5" style="stroke:#181818;stroke-width:0.5;" width="63.0342" x="563.106" y="583.3281"/><text fill="#000000" font-family="sans-serif" font-size="14" lengthAdjust="spacing" textLength="49.0342" x="570.106" y="604.8613">cpu.cpp</text><polygon fill="#181818" points="252.374,104.5703,262.374,108.5703,252.374,112.5703,256.374,108.5703" style="stroke:#181818;stroke-width:1.0;"/><line style="stroke:#181818;stroke-width:1.0;" x1="55.4033" x2="258.374" y1="108.5703" y2="108.5703"/><text fill="#000000" font-family="sans-serif" font-size="13" lengthAdjust="spacing" textLength="184.9707" x="62.4033" y="103.7139">executeSMULL(cpu, instruction)</text><polygon fill="#181818" points="582.623,134.9219,592.623,138.9219,582.623,142.9219,586.623,138.9219" style="stroke:#181818;stroke-width:1.0;"/><line style="stroke:#181818;stroke-width:1.0;" x1="264.374" x2="588.623" y1="138.9219" y2="138.9219"/><text fill="#000000" font-family="sans-serif" font-size="13" lengthAdjust="spacing" textLength="125.7344" x="271.374" y="134.0654">checkCondition(cond)</text><line style="stroke:#181818;stroke-width:1.0;" x1="594.623" x2="636.623" y1="169.2734" y2="169.2734"/><line style="stroke:#181818;stroke-width:1.0;" x1="636.623" x2="636.623" y1="169.2734" y2="182.2734"/><line style="stroke:#181818;stroke-width:1.0;" x1="595.623" x2="636.623" y1="182.2734" y2="182.2734"/><polygon fill="#181818" points="605.623,178.2734,595.623,182.2734,605.623,186.2734,601.623,182.2734" style="stroke:#181818;stroke-width:1.0;"/><text fill="#000000" font-family="sans-serif" font-size="13" lengthAdjust="spacing" textLength="106.2407" x="601.623" y="164.417">Evaluate condition</text><polygon fill="#181818" points="275.374,208.625,265.374,212.625,275.374,216.625,271.374,212.625" style="stroke:#181818;stroke-width:1.0;"/><line style="stroke:#181818;stroke-width:1.0;stroke-dasharray:2.0,2.0;" x1="269.374" x2="593.623" y1="212.625" y2="212.625"/><text fill="#000000" font-family="sans-serif" font-size="13" lengthAdjust="spacing" textLength="90.3271" x="281.374" y="207.7686">Condition result</text><path d="M10,227.625 L70.1709,227.625 L70.1709,235.9766 L60.1709,245.9766 L10,245.9766 L10,227.625 " fill="#EEEEEE" style="stroke:#000000;stroke-width:1.5;"/><rect fill="none" height="339.7031" style="stroke:#000000;stroke-width:1.5;" width="636.1401" x="10" y="227.625"/><text fill="#000000" font-family="sans-serif" font-size="13" font-weight="bold" lengthAdjust="spacing" textLength="15.1709" x="25" y="242.1201">alt</text><text fill="#000000" font-family="sans-serif" font-size="11" font-weight="bold" lengthAdjust="spacing" textLength="100.2246" x="85.1709" y="241.0439">[Condition Passed]</text><polygon fill="#181818" points="582.623,264.3281,592.623,268.3281,582.623,272.3281,586.623,268.3281" style="stroke:#181818;stroke-width:1.0;"/><line style="stroke:#181818;stroke-width:1.0;" x1="264.374" x2="588.623" y1="268.3281" y2="268.3281"/><text fill="#000000" font-family="sans-serif" font-size="13" lengthAdjust="spacing" textLength="95.3545" x="271.374" y="263.4717">getRegister(Rm)</text><polygon fill="#181818" points="275.374,294.6797,265.374,298.6797,275.374,302.6797,271.374,298.6797" style="stroke:#181818;stroke-width:1.0;"/><line style="stroke:#181818;stroke-width:1.0;stroke-dasharray:2.0,2.0;" x1="269.374" x2="593.623" y1="298.6797" y2="298.6797"/><text fill="#000000" font-family="sans-serif" font-size="13" lengthAdjust="spacing" textLength="54.9072" x="281.374" y="293.8232">Rm value</text><polygon fill="#181818" points="582.623,325.0313,592.623,329.0313,582.623,333.0313,586.623,329.0313" style="stroke:#181818;stroke-width:1.0;"/><line style="stroke:#181818;stroke-width:1.0;" x1="264.374" x2="588.623" y1="329.0313" y2="329.0313"/><text fill="#000000" font-family="sans-serif" font-size="13" lengthAdjust="spacing" textLength="91.0254" x="271.374" y="324.1748">getRegister(Rs)</text><polygon fill="#181818" points="275.374,355.3828,265.374,359.3828,275.374,363.3828,271.374,359.3828" style="stroke:#181818;stroke-width:1.0;"/><line style="stroke:#181818;stroke-width:1.0;stroke-dasharray:2.0,2.0;" x1="269.374" x2="593.623" y1="359.3828" y2="359.3828"/><text fill="#000000" font-family="sans-serif" font-size="13" lengthAdjust="spacing" textLength="50.5781" x="281.374" y="354.5264">Rs value</text><polygon fill="#181818" points="582.623,385.7344,592.623,389.7344,582.623,393.7344,586.623,389.7344" style="stroke:#181818;stroke-width:1.0;"/><line style="stroke:#181818;stroke-width:1.0;" x1="264.374" x2="588.623" y1="389.7344" y2="389.7344"/><text fill="#000000" font-family="sans-serif" font-size="13" lengthAdjust="spacing" textLength="262.9072" x="271.374" y="384.8779">setRegister(RdLo, (Rm * Rs) &amp; 0xFFFFFFFF)</text><polygon fill="#181818" points="582.623,416.0859,592.623,420.0859,582.623,424.0859,586.623,420.0859" style="stroke:#181818;stroke-width:1.0;"/><line style="stroke:#181818;stroke-width:1.0;" x1="264.374" x2="588.623" y1="420.0859" y2="420.0859"/><text fill="#000000" font-family="sans-serif" font-size="13" lengthAdjust="spacing" textLength="306.249" x="271.374" y="415.2295">setRegister(RdHi, ((Rm * Rs) &gt;&gt; 32) &amp; 0xFFFFFFFF)</text><path d="M132.6226,435.0859 L192.7935,435.0859 L192.7935,443.4375 L182.7935,453.4375 L132.6226,453.4375 L132.6226,435.0859 " fill="#EEEEEE" style="stroke:#000000;stroke-width:1.5;"/><rect fill="none" height="48.7031" style="stroke:#000000;stroke-width:1.5;" width="503.5176" x="132.6226" y="435.0859"/><text fill="#000000" font-family="sans-serif" font-size="13" font-weight="bold" lengthAdjust="spacing" textLength="15.1709" x="147.6226" y="449.5811">alt</text><text fill="#000000" font-family="sans-serif" font-size="11" font-weight="bold" lengthAdjust="spacing" textLength="62.3423" x="207.7935" y="448.5049">[S bit is set]</text><polygon fill="#181818" points="582.623,471.7891,592.623,475.7891,582.623,479.7891,586.623,475.7891" style="stroke:#181818;stroke-width:1.0;"/><line style="stroke:#181818;stroke-width:1.0;" x1="264.374" x2="588.623" y1="475.7891" y2="475.7891"/><text fill="#000000" font-family="sans-serif" font-size="13" lengthAdjust="spacing" textLength="126.458" x="271.374" y="470.9326">updateFlags(resultLo)</text><polygon fill="#181818" points="66.4033,509.1406,56.4033,513.1406,66.4033,517.1406,62.4033,513.1406" style="stroke:#181818;stroke-width:1.0;"/><line style="stroke:#181818;stroke-width:1.0;" x1="60.4033" x2="263.374" y1="513.1406" y2="513.1406"/><text fill="#000000" font-family="sans-serif" font-size="13" lengthAdjust="spacing" textLength="39.019" x="72.4033" y="508.2842">Return</text><line style="stroke:#000000;stroke-width:1.0;stroke-dasharray:2.0,2.0;" x1="10" x2="646.1401" y1="522.1406" y2="522.1406"/><text fill="#000000" font-family="sans-serif" font-size="11" font-weight="bold" lengthAdjust="spacing" textLength="93.4839" x="15" y="533.5596">[Condition Failed]</text><polygon fill="#181818" points="66.4033,555.3281,56.4033,559.3281,66.4033,563.3281,62.4033,559.3281" style="stroke:#181818;stroke-width:1.0;"/><line style="stroke:#181818;stroke-width:1.0;" x1="60.4033" x2="263.374" y1="559.3281" y2="559.3281"/><text fill="#000000" font-family="sans-serif" font-size="13" lengthAdjust="spacing" textLength="39.019" x="72.4033" y="554.4717">Return</text><!--SRC=[XP51Ry8m38Nl-HKMXwcTs3HjDmv82561r4gem1bbgSMYfMbLEnC_VqcxbS9Wv9JwlU_PSLcpGTXakpI5bILkd69TMLWSKRbm4wAM3MkbQsaPHgNKzbdLzGWaGUO_pkLPdktrAORsitorNMQBxMhUKstf75Erw-NvUYT4I8QdQUUT0BRJO3jcvCrZ63I9HUiATizEG7sW-fnNjj11ZPI_nS8hlM7n9OsJZA1-JPrywjVJq20vmq8Q7XJNaWWB0VwSjpuWvtZGnDX4UHctZelel8JG7k_HT9sccpGDwIAjnk17W4UFnF00ByVavyHtsQNsx0cUJk7jzLf6MCe6tZM3fX3H5l-6kxhmoqwCF53KhJEjkW2q5qiClzq_4jarLg0X72mzaThWltwVzWq0]--></g></svg>