<svg xmlns="http://www.w3.org/2000/svg" xmlns:xlink="http://www.w3.org/1999/xlink" contentStyleType="text/css" height="529px" preserveAspectRatio="none" style="width:561px;height:529px;background:#FFFFFF;" version="1.1" viewBox="0 0 561 529" width="561px" zoomAndPan="magnify"><title>SUB Instruction Execution</title><defs/><g><text fill="#000000" font-family="sans-serif" font-size="14" font-weight="bold" lengthAdjust="spacing" textLength="176.5723" x="192.1025" y="29.5332">SUB Instruction Execution</text><rect fill="none" height="248.6484" style="stroke:#000000;stroke-width:1.5;" width="483.0537" x="10" y="227.625"/><rect fill="none" height="48.7031" style="stroke:#000000;stroke-width:1.5;" width="367.0493" x="116.0044" y="344.0313"/><line style="stroke:#181818;stroke-width:0.5;stroke-dasharray:5.0,5.0;" x1="55" x2="55" y1="76.2188" y2="493.2734"/><line style="stroke:#181818;stroke-width:0.5;stroke-dasharray:5.0,5.0;" x1="247.0044" x2="247.0044" y1="76.2188" y2="493.2734"/><line style="stroke:#181818;stroke-width:0.5;stroke-dasharray:5.0,5.0;" x1="441.0195" x2="441.0195" y1="76.2188" y2="493.2734"/><rect fill="#E2E2F0" height="31.6094" rx="2.5" ry="2.5" style="stroke:#181818;stroke-width:0.5;" width="70.8066" x="20" y="43.6094"/><text fill="#000000" font-family="sans-serif" font-size="14" lengthAdjust="spacing" textLength="56.8066" x="27" y="65.1426">main.cpp</text><rect fill="#E2E2F0" height="31.6094" rx="2.5" ry="2.5" style="stroke:#181818;stroke-width:0.5;" width="70.8066" x="20" y="492.2734"/><text fill="#000000" font-family="sans-serif" font-size="14" lengthAdjust="spacing" textLength="56.8066" x="27" y="513.8066">main.cpp</text><rect fill="#E2E2F0" height="31.6094" rx="2.5" ry="2.5" style="stroke:#181818;stroke-width:0.5;" width="243.5029" x="126.0044" y="43.6094"/><text fill="#000000" font-family="sans-serif" font-size="14" lengthAdjust="spacing" textLength="229.5029" x="133.0044" y="65.1426">ARM_instructions_ARITHMETIC.cpp</text><rect fill="#E2E2F0" height="31.6094" rx="2.5" ry="2.5" style="stroke:#181818;stroke-width:0.5;" width="243.5029" x="126.0044" y="492.2734"/><text fill="#000000" font-family="sans-serif" font-size="14" lengthAdjust="spacing" textLength="229.5029" x="133.0044" y="513.8066">ARM_instructions_ARITHMETIC.cpp</text><rect fill="#E2E2F0" height="31.6094" rx="2.5" ry="2.5" style="stroke:#181818;stroke-width:0.5;" width="63.0342" x="410.0195" y="43.6094"/><text fill="#000000" font-family="sans-serif" font-size="14" lengthAdjust="spacing" textLength="49.0342" x="417.0195" y="65.1426">cpu.cpp</text><rect fill="#E2E2F0" height="31.6094" rx="2.5" ry="2.5" style="stroke:#181818;stroke-width:0.5;" width="63.0342" x="410.0195" y="492.2734"/><text fill="#000000" font-family="sans-serif" font-size="14" lengthAdjust="spacing" textLength="49.0342" x="417.0195" y="513.8066">cpu.cpp</text><polygon fill="#181818" points="235.7559,104.5703,245.7559,108.5703,235.7559,112.5703,239.7559,108.5703" style="stroke:#181818;stroke-width:1.0;"/><line style="stroke:#181818;stroke-width:1.0;" x1="55.4033" x2="241.7559" y1="108.5703" y2="108.5703"/><text fill="#000000" font-family="sans-serif" font-size="13" lengthAdjust="spacing" textLength="168.3525" x="62.4033" y="103.7139">executeSUB(cpu, instruction)</text><polygon fill="#181818" points="429.5366,134.9219,439.5366,138.9219,429.5366,142.9219,433.5366,138.9219" style="stroke:#181818;stroke-width:1.0;"/><line style="stroke:#181818;stroke-width:1.0;" x1="247.7559" x2="435.5366" y1="138.9219" y2="138.9219"/><text fill="#000000" font-family="sans-serif" font-size="13" lengthAdjust="spacing" textLength="125.7344" x="254.7559" y="134.0654">checkCondition(cond)</text><line style="stroke:#181818;stroke-width:1.0;" x1="441.5366" x2="483.5366" y1="169.2734" y2="169.2734"/><line style="stroke:#181818;stroke-width:1.0;" x1="483.5366" x2="483.5366" y1="169.2734" y2="182.2734"/><line style="stroke:#181818;stroke-width:1.0;" x1="442.5366" x2="483.5366" y1="182.2734" y2="182.2734"/><polygon fill="#181818" points="452.5366,178.2734,442.5366,182.2734,452.5366,186.2734,448.5366,182.2734" style="stroke:#181818;stroke-width:1.0;"/><text fill="#000000" font-family="sans-serif" font-size="13" lengthAdjust="spacing" textLength="106.2407" x="448.5366" y="164.417">Evaluate condition</text><polygon fill="#181818" points="258.7559,208.625,248.7559,212.625,258.7559,216.625,254.7559,212.625" style="stroke:#181818;stroke-width:1.0;"/><line style="stroke:#181818;stroke-width:1.0;stroke-dasharray:2.0,2.0;" x1="252.7559" x2="440.5366" y1="212.625" y2="212.625"/><text fill="#000000" font-family="sans-serif" font-size="13" lengthAdjust="spacing" textLength="90.3271" x="264.7559" y="207.7686">Condition result</text><path d="M10,227.625 L70.1709,227.625 L70.1709,235.9766 L60.1709,245.9766 L10,245.9766 L10,227.625 " fill="#EEEEEE" style="stroke:#000000;stroke-width:1.5;"/><rect fill="none" height="248.6484" style="stroke:#000000;stroke-width:1.5;" width="483.0537" x="10" y="227.625"/><text fill="#000000" font-family="sans-serif" font-size="13" font-weight="bold" lengthAdjust="spacing" textLength="15.1709" x="25" y="242.1201">alt</text><text fill="#000000" font-family="sans-serif" font-size="11" font-weight="bold" lengthAdjust="spacing" textLength="100.2246" x="85.1709" y="241.0439">[Condition Passed]</text><polygon fill="#181818" points="429.5366,264.3281,439.5366,268.3281,429.5366,272.3281,433.5366,268.3281" style="stroke:#181818;stroke-width:1.0;"/><line style="stroke:#181818;stroke-width:1.0;" x1="247.7559" x2="435.5366" y1="268.3281" y2="268.3281"/><text fill="#000000" font-family="sans-serif" font-size="13" lengthAdjust="spacing" textLength="91.7554" x="254.7559" y="263.4717">getRegister(Rn)</text><polygon fill="#181818" points="258.7559,294.6797,248.7559,298.6797,258.7559,302.6797,254.7559,298.6797" style="stroke:#181818;stroke-width:1.0;"/><line style="stroke:#181818;stroke-width:1.0;stroke-dasharray:2.0,2.0;" x1="252.7559" x2="440.5366" y1="298.6797" y2="298.6797"/><text fill="#000000" font-family="sans-serif" font-size="13" lengthAdjust="spacing" textLength="51.3081" x="264.7559" y="293.8232">Rn value</text><polygon fill="#181818" points="429.5366,325.0313,439.5366,329.0313,429.5366,333.0313,433.5366,329.0313" style="stroke:#181818;stroke-width:1.0;"/><line style="stroke:#181818;stroke-width:1.0;" x1="247.7559" x2="435.5366" y1="329.0313" y2="329.0313"/><text fill="#000000" font-family="sans-serif" font-size="13" lengthAdjust="spacing" textLength="169.7808" x="254.7559" y="324.1748">setRegister(Rd, Rn - Oprnd2)</text><path d="M116.0044,344.0313 L176.1753,344.0313 L176.1753,352.3828 L166.1753,362.3828 L116.0044,362.3828 L116.0044,344.0313 " fill="#EEEEEE" style="stroke:#000000;stroke-width:1.5;"/><rect fill="none" height="48.7031" style="stroke:#000000;stroke-width:1.5;" width="367.0493" x="116.0044" y="344.0313"/><text fill="#000000" font-family="sans-serif" font-size="13" font-weight="bold" lengthAdjust="spacing" textLength="15.1709" x="131.0044" y="358.5264">alt</text><text fill="#000000" font-family="sans-serif" font-size="11" font-weight="bold" lengthAdjust="spacing" textLength="62.3423" x="191.1753" y="357.4502">[S bit is set]</text><polygon fill="#181818" points="429.5366,380.7344,439.5366,384.7344,429.5366,388.7344,433.5366,384.7344" style="stroke:#181818;stroke-width:1.0;"/><line style="stroke:#181818;stroke-width:1.0;" x1="247.7559" x2="435.5366" y1="384.7344" y2="384.7344"/><text fill="#000000" font-family="sans-serif" font-size="13" lengthAdjust="spacing" textLength="111.998" x="254.7559" y="379.8779">updateFlags(result)</text><polygon fill="#181818" points="66.4033,418.0859,56.4033,422.0859,66.4033,426.0859,62.4033,422.0859" style="stroke:#181818;stroke-width:1.0;"/><line style="stroke:#181818;stroke-width:1.0;" x1="60.4033" x2="246.7559" y1="422.0859" y2="422.0859"/><text fill="#000000" font-family="sans-serif" font-size="13" lengthAdjust="spacing" textLength="39.019" x="72.4033" y="417.2295">Return</text><line style="stroke:#000000;stroke-width:1.0;stroke-dasharray:2.0,2.0;" x1="10" x2="493.0537" y1="431.0859" y2="431.0859"/><text fill="#000000" font-family="sans-serif" font-size="11" font-weight="bold" lengthAdjust="spacing" textLength="93.4839" x="15" y="442.5049">[Condition Failed]</text><polygon fill="#181818" points="66.4033,464.2734,56.4033,468.2734,66.4033,472.2734,62.4033,468.2734" style="stroke:#181818;stroke-width:1.0;"/><line style="stroke:#181818;stroke-width:1.0;" x1="60.4033" x2="246.7559" y1="468.2734" y2="468.2734"/><text fill="#000000" font-family="sans-serif" font-size="13" lengthAdjust="spacing" textLength="39.019" x="72.4033" y="463.417">Return</text><!--SRC=[VP0nJyCm48Lt_ufJfrHg6HWx89Ke5HaYAhUTA-ESKWlZMlOPyVCv9o9D2YAJS-zxxvvDXYp2uVGCjOiKaYPpTL1zeKxv98HNWOmsNZc2nOSoxa5xlm0LeU6VkRoLpTdSOk9vA-lZIrCTwt9qzQEvJViqokN-94HEXlNJm6u0-pR89Gj6Lp1PiHGzas5sRa1VKB-NLzUQh1QQJql1oWXKdyecHGZw1nhasxRH3G5ZiYIKfSbmhsB4LW1_yzKTaiJEHC9GI2wMYRjewI2lnp_SSUfkLnbTmwiFhdqSedAB0xmP0XCptGz_voJVykrsLdMn6FeFTdHtdVCRSoEa59n06t5onvqo5l_bEUqR]--></g></svg>