<svg xmlns="http://www.w3.org/2000/svg" xmlns:xlink="http://www.w3.org/1999/xlink" contentStyleType="text/css" height="742px" preserveAspectRatio="none" style="width:767px;height:742px;background:#FFFFFF;" version="1.1" viewBox="0 0 767 742" width="767px" zoomAndPan="magnify"><title>UMLAL Instruction Execution</title><defs/><g><text fill="#000000" font-family="sans-serif" font-size="14" font-weight="bold" lengthAdjust="spacing" textLength="196" x="285.116" y="29.5332">UMLAL Instruction Execution</text><rect fill="none" height="461.1094" style="stroke:#000000;stroke-width:1.5;" width="688.5083" x="10" y="227.625"/><rect fill="none" height="48.7031" style="stroke:#000000;stroke-width:1.5;" width="555.8857" x="132.6226" y="556.4922"/><line style="stroke:#181818;stroke-width:0.5;stroke-dasharray:5.0,5.0;" x1="55" x2="55" y1="76.2188" y2="705.7344"/><line style="stroke:#181818;stroke-width:0.5;stroke-dasharray:5.0,5.0;" x1="263.6226" x2="263.6226" y1="76.2188" y2="705.7344"/><line style="stroke:#181818;stroke-width:0.5;stroke-dasharray:5.0,5.0;" x1="646.4741" x2="646.4741" y1="76.2188" y2="705.7344"/><rect fill="#E2E2F0" height="31.6094" rx="2.5" ry="2.5" style="stroke:#181818;stroke-width:0.5;" width="70.8066" x="20" y="43.6094"/><text fill="#000000" font-family="sans-serif" font-size="14" lengthAdjust="spacing" textLength="56.8066" x="27" y="65.1426">main.cpp</text><rect fill="#E2E2F0" height="31.6094" rx="2.5" ry="2.5" style="stroke:#181818;stroke-width:0.5;" width="70.8066" x="20" y="704.7344"/><text fill="#000000" font-family="sans-serif" font-size="14" lengthAdjust="spacing" textLength="56.8066" x="27" y="726.2676">main.cpp</text><rect fill="#E2E2F0" height="31.6094" rx="2.5" ry="2.5" style="stroke:#181818;stroke-width:0.5;" width="243.5029" x="142.6226" y="43.6094"/><text fill="#000000" font-family="sans-serif" font-size="14" lengthAdjust="spacing" textLength="229.5029" x="149.6226" y="65.1426">ARM_instructions_ARITHMETIC.cpp</text><rect fill="#E2E2F0" height="31.6094" rx="2.5" ry="2.5" style="stroke:#181818;stroke-width:0.5;" width="243.5029" x="142.6226" y="704.7344"/><text fill="#000000" font-family="sans-serif" font-size="14" lengthAdjust="spacing" textLength="229.5029" x="149.6226" y="726.2676">ARM_instructions_ARITHMETIC.cpp</text><rect fill="#E2E2F0" height="31.6094" rx="2.5" ry="2.5" style="stroke:#181818;stroke-width:0.5;" width="63.0342" x="615.4741" y="43.6094"/><text fill="#000000" font-family="sans-serif" font-size="14" lengthAdjust="spacing" textLength="49.0342" x="622.4741" y="65.1426">cpu.cpp</text><rect fill="#E2E2F0" height="31.6094" rx="2.5" ry="2.5" style="stroke:#181818;stroke-width:0.5;" width="63.0342" x="615.4741" y="704.7344"/><text fill="#000000" font-family="sans-serif" font-size="14" lengthAdjust="spacing" textLength="49.0342" x="622.4741" y="726.2676">cpu.cpp</text><polygon fill="#181818" points="252.374,104.5703,262.374,108.5703,252.374,112.5703,256.374,108.5703" style="stroke:#181818;stroke-width:1.0;"/><line style="stroke:#181818;stroke-width:1.0;" x1="55.4033" x2="258.374" y1="108.5703" y2="108.5703"/><text fill="#000000" font-family="sans-serif" font-size="13" lengthAdjust="spacing" textLength="184.9707" x="62.4033" y="103.7139">executeUMLAL(cpu, instruction)</text><polygon fill="#181818" points="634.9912,134.9219,644.9912,138.9219,634.9912,142.9219,638.9912,138.9219" style="stroke:#181818;stroke-width:1.0;"/><line style="stroke:#181818;stroke-width:1.0;" x1="264.374" x2="640.9912" y1="138.9219" y2="138.9219"/><text fill="#000000" font-family="sans-serif" font-size="13" lengthAdjust="spacing" textLength="125.7344" x="271.374" y="134.0654">checkCondition(cond)</text><line style="stroke:#181818;stroke-width:1.0;" x1="646.9912" x2="688.9912" y1="169.2734" y2="169.2734"/><line style="stroke:#181818;stroke-width:1.0;" x1="688.9912" x2="688.9912" y1="169.2734" y2="182.2734"/><line style="stroke:#181818;stroke-width:1.0;" x1="647.9912" x2="688.9912" y1="182.2734" y2="182.2734"/><polygon fill="#181818" points="657.9912,178.2734,647.9912,182.2734,657.9912,186.2734,653.9912,182.2734" style="stroke:#181818;stroke-width:1.0;"/><text fill="#000000" font-family="sans-serif" font-size="13" lengthAdjust="spacing" textLength="106.2407" x="653.9912" y="164.417">Evaluate condition</text><polygon fill="#181818" points="275.374,208.625,265.374,212.625,275.374,216.625,271.374,212.625" style="stroke:#181818;stroke-width:1.0;"/><line style="stroke:#181818;stroke-width:1.0;stroke-dasharray:2.0,2.0;" x1="269.374" x2="645.9912" y1="212.625" y2="212.625"/><text fill="#000000" font-family="sans-serif" font-size="13" lengthAdjust="spacing" textLength="90.3271" x="281.374" y="207.7686">Condition result</text><path d="M10,227.625 L70.1709,227.625 L70.1709,235.9766 L60.1709,245.9766 L10,245.9766 L10,227.625 " fill="#EEEEEE" style="stroke:#000000;stroke-width:1.5;"/><rect fill="none" height="461.1094" style="stroke:#000000;stroke-width:1.5;" width="688.5083" x="10" y="227.625"/><text fill="#000000" font-family="sans-serif" font-size="13" font-weight="bold" lengthAdjust="spacing" textLength="15.1709" x="25" y="242.1201">alt</text><text fill="#000000" font-family="sans-serif" font-size="11" font-weight="bold" lengthAdjust="spacing" textLength="100.2246" x="85.1709" y="241.0439">[Condition Passed]</text><polygon fill="#181818" points="634.9912,264.3281,644.9912,268.3281,634.9912,272.3281,638.9912,268.3281" style="stroke:#181818;stroke-width:1.0;"/><line style="stroke:#181818;stroke-width:1.0;" x1="264.374" x2="640.9912" y1="268.3281" y2="268.3281"/><text fill="#000000" font-family="sans-serif" font-size="13" lengthAdjust="spacing" textLength="95.3545" x="271.374" y="263.4717">getRegister(Rm)</text><polygon fill="#181818" points="275.374,294.6797,265.374,298.6797,275.374,302.6797,271.374,298.6797" style="stroke:#181818;stroke-width:1.0;"/><line style="stroke:#181818;stroke-width:1.0;stroke-dasharray:2.0,2.0;" x1="269.374" x2="645.9912" y1="298.6797" y2="298.6797"/><text fill="#000000" font-family="sans-serif" font-size="13" lengthAdjust="spacing" textLength="54.9072" x="281.374" y="293.8232">Rm value</text><polygon fill="#181818" points="634.9912,325.0313,644.9912,329.0313,634.9912,333.0313,638.9912,329.0313" style="stroke:#181818;stroke-width:1.0;"/><line style="stroke:#181818;stroke-width:1.0;" x1="264.374" x2="640.9912" y1="329.0313" y2="329.0313"/><text fill="#000000" font-family="sans-serif" font-size="13" lengthAdjust="spacing" textLength="91.0254" x="271.374" y="324.1748">getRegister(Rs)</text><polygon fill="#181818" points="275.374,355.3828,265.374,359.3828,275.374,363.3828,271.374,359.3828" style="stroke:#181818;stroke-width:1.0;"/><line style="stroke:#181818;stroke-width:1.0;stroke-dasharray:2.0,2.0;" x1="269.374" x2="645.9912" y1="359.3828" y2="359.3828"/><text fill="#000000" font-family="sans-serif" font-size="13" lengthAdjust="spacing" textLength="50.5781" x="281.374" y="354.5264">Rs value</text><polygon fill="#181818" points="634.9912,385.7344,644.9912,389.7344,634.9912,393.7344,638.9912,389.7344" style="stroke:#181818;stroke-width:1.0;"/><line style="stroke:#181818;stroke-width:1.0;" x1="264.374" x2="640.9912" y1="389.7344" y2="389.7344"/><text fill="#000000" font-family="sans-serif" font-size="13" lengthAdjust="spacing" textLength="106.2153" x="271.374" y="384.8779">getRegister(RdLo)</text><polygon fill="#181818" points="275.374,416.0859,265.374,420.0859,275.374,424.0859,271.374,420.0859" style="stroke:#181818;stroke-width:1.0;"/><line style="stroke:#181818;stroke-width:1.0;stroke-dasharray:2.0,2.0;" x1="269.374" x2="645.9912" y1="420.0859" y2="420.0859"/><text fill="#000000" font-family="sans-serif" font-size="13" lengthAdjust="spacing" textLength="65.7681" x="281.374" y="415.2295">RdLo value</text><polygon fill="#181818" points="634.9912,446.4375,644.9912,450.4375,634.9912,454.4375,638.9912,450.4375" style="stroke:#181818;stroke-width:1.0;"/><line style="stroke:#181818;stroke-width:1.0;" x1="264.374" x2="640.9912" y1="450.4375" y2="450.4375"/><text fill="#000000" font-family="sans-serif" font-size="13" lengthAdjust="spacing" textLength="104.0317" x="271.374" y="445.5811">getRegister(RdHi)</text><polygon fill="#181818" points="275.374,476.7891,265.374,480.7891,275.374,484.7891,271.374,480.7891" style="stroke:#181818;stroke-width:1.0;"/><line style="stroke:#181818;stroke-width:1.0;stroke-dasharray:2.0,2.0;" x1="269.374" x2="645.9912" y1="480.7891" y2="480.7891"/><text fill="#000000" font-family="sans-serif" font-size="13" lengthAdjust="spacing" textLength="63.5845" x="281.374" y="475.9326">RdHi value</text><polygon fill="#181818" points="634.9912,507.1406,644.9912,511.1406,634.9912,515.1406,638.9912,511.1406" style="stroke:#181818;stroke-width:1.0;"/><line style="stroke:#181818;stroke-width:1.0;" x1="264.374" x2="640.9912" y1="511.1406" y2="511.1406"/><text fill="#000000" font-family="sans-serif" font-size="13" lengthAdjust="spacing" textLength="317.459" x="271.374" y="506.2842">setRegister(RdLo, (RdLo + (Rm * Rs)) &amp; 0xFFFFFFFF)</text><polygon fill="#181818" points="634.9912,537.4922,644.9912,541.4922,634.9912,545.4922,638.9912,541.4922" style="stroke:#181818;stroke-width:1.0;"/><line style="stroke:#181818;stroke-width:1.0;" x1="264.374" x2="640.9912" y1="541.4922" y2="541.4922"/><text fill="#000000" font-family="sans-serif" font-size="13" lengthAdjust="spacing" textLength="358.6172" x="271.374" y="536.6357">setRegister(RdHi, (RdHi + ((Rm * Rs) &gt;&gt; 32)) &amp; 0xFFFFFFFF)</text><path d="M132.6226,556.4922 L192.7935,556.4922 L192.7935,564.8438 L182.7935,574.8438 L132.6226,574.8438 L132.6226,556.4922 " fill="#EEEEEE" style="stroke:#000000;stroke-width:1.5;"/><rect fill="none" height="48.7031" style="stroke:#000000;stroke-width:1.5;" width="555.8857" x="132.6226" y="556.4922"/><text fill="#000000" font-family="sans-serif" font-size="13" font-weight="bold" lengthAdjust="spacing" textLength="15.1709" x="147.6226" y="570.9873">alt</text><text fill="#000000" font-family="sans-serif" font-size="11" font-weight="bold" lengthAdjust="spacing" textLength="62.3423" x="207.7935" y="569.9111">[S bit is set]</text><polygon fill="#181818" points="634.9912,593.1953,644.9912,597.1953,634.9912,601.1953,638.9912,597.1953" style="stroke:#181818;stroke-width:1.0;"/><line style="stroke:#181818;stroke-width:1.0;" x1="264.374" x2="640.9912" y1="597.1953" y2="597.1953"/><text fill="#000000" font-family="sans-serif" font-size="13" lengthAdjust="spacing" textLength="126.458" x="271.374" y="592.3389">updateFlags(resultLo)</text><polygon fill="#181818" points="66.4033,630.5469,56.4033,634.5469,66.4033,638.5469,62.4033,634.5469" style="stroke:#181818;stroke-width:1.0;"/><line style="stroke:#181818;stroke-width:1.0;" x1="60.4033" x2="263.374" y1="634.5469" y2="634.5469"/><text fill="#000000" font-family="sans-serif" font-size="13" lengthAdjust="spacing" textLength="39.019" x="72.4033" y="629.6904">Return</text><line style="stroke:#000000;stroke-width:1.0;stroke-dasharray:2.0,2.0;" x1="10" x2="698.5083" y1="643.5469" y2="643.5469"/><text fill="#000000" font-family="sans-serif" font-size="11" font-weight="bold" lengthAdjust="spacing" textLength="93.4839" x="15" y="654.9658">[Condition Failed]</text><polygon fill="#181818" points="66.4033,676.7344,56.4033,680.7344,66.4033,684.7344,62.4033,680.7344" style="stroke:#181818;stroke-width:1.0;"/><line style="stroke:#181818;stroke-width:1.0;" x1="60.4033" x2="263.374" y1="680.7344" y2="680.7344"/><text fill="#000000" font-family="sans-serif" font-size="13" lengthAdjust="spacing" textLength="39.019" x="72.4033" y="675.8779">Return</text><!--SRC=[ZP9DRy8m38Rl-HKMXwdTs3HjDmv8286AH2NKmHc5r6BMqb0roSJFdnD6-HWCSabYl-zZjuuZfn4M-NGmXOcnhl7AqSR0Q8lAXvCGjMmSAQgbST2f99aNLTSTa1Polfoc1qM-f0F6BWV5P9xbe_basBfYwDIcQj-cXxE5484Cp_sTjWSOky7OPiBYBXmLIKLK1JbxUw0-KNqDDwQaa4qKdrB1cLOm-fRQIuUWzg9T-b2lTKE3rcidf7P7mPcq5ai1l4vBhz4Lk2Rhi4cAAesACtHHGIYFjzpsijlUvowdcyj-Jjn9oEWA8QEh17lMGnVY1a-yL_38xQSfFC3hTloxqfkGZ2A4YpAafK2_3-zl5s5XL1-m8WTa0oi6_rRnTSbFOApbsYQx8Uz_6PgpqOR7o1-EpZT6eBPuz1J6aZJ-gsVQ3m00]--></g></svg>