<svg xmlns="http://www.w3.org/2000/svg" xmlns:xlink="http://www.w3.org/1999/xlink" contentStyleType="text/css" height="620px" preserveAspectRatio="none" style="width:672px;height:620px;background:#FFFFFF;" version="1.1" viewBox="0 0 672 620" width="672px" zoomAndPan="magnify"><title>UMULL Instruction Execution</title><defs/><g><text fill="#000000" font-family="sans-serif" font-size="14" font-weight="bold" lengthAdjust="spacing" textLength="196" x="237.6196" y="29.5332">UMULL Instruction Execution</text><rect fill="none" height="339.7031" style="stroke:#000000;stroke-width:1.5;" width="593.5156" x="10" y="227.625"/><rect fill="none" height="48.7031" style="stroke:#000000;stroke-width:1.5;" width="460.1758" x="133.3398" y="435.0859"/><line style="stroke:#181818;stroke-width:0.5;stroke-dasharray:5.0,5.0;" x1="55" x2="55" y1="76.2188" y2="584.3281"/><line style="stroke:#181818;stroke-width:0.5;stroke-dasharray:5.0,5.0;" x1="264.3398" x2="264.3398" y1="76.2188" y2="584.3281"/><line style="stroke:#181818;stroke-width:0.5;stroke-dasharray:5.0,5.0;" x1="551.4814" x2="551.4814" y1="76.2188" y2="584.3281"/><rect fill="#E2E2F0" height="31.6094" rx="2.5" ry="2.5" style="stroke:#181818;stroke-width:0.5;" width="70.8066" x="20" y="43.6094"/><text fill="#000000" font-family="sans-serif" font-size="14" lengthAdjust="spacing" textLength="56.8066" x="27" y="65.1426">main.cpp</text><rect fill="#E2E2F0" height="31.6094" rx="2.5" ry="2.5" style="stroke:#181818;stroke-width:0.5;" width="70.8066" x="20" y="583.3281"/><text fill="#000000" font-family="sans-serif" font-size="14" lengthAdjust="spacing" textLength="56.8066" x="27" y="604.8613">main.cpp</text><rect fill="#E2E2F0" height="31.6094" rx="2.5" ry="2.5" style="stroke:#181818;stroke-width:0.5;" width="243.5029" x="143.3398" y="43.6094"/><text fill="#000000" font-family="sans-serif" font-size="14" lengthAdjust="spacing" textLength="229.5029" x="150.3398" y="65.1426">ARM_instructions_ARITHMETIC.cpp</text><rect fill="#E2E2F0" height="31.6094" rx="2.5" ry="2.5" style="stroke:#181818;stroke-width:0.5;" width="243.5029" x="143.3398" y="583.3281"/><text fill="#000000" font-family="sans-serif" font-size="14" lengthAdjust="spacing" textLength="229.5029" x="150.3398" y="604.8613">ARM_instructions_ARITHMETIC.cpp</text><rect fill="#E2E2F0" height="31.6094" rx="2.5" ry="2.5" style="stroke:#181818;stroke-width:0.5;" width="63.0342" x="520.4814" y="43.6094"/><text fill="#000000" font-family="sans-serif" font-size="14" lengthAdjust="spacing" textLength="49.0342" x="527.4814" y="65.1426">cpu.cpp</text><rect fill="#E2E2F0" height="31.6094" rx="2.5" ry="2.5" style="stroke:#181818;stroke-width:0.5;" width="63.0342" x="520.4814" y="583.3281"/><text fill="#000000" font-family="sans-serif" font-size="14" lengthAdjust="spacing" textLength="49.0342" x="527.4814" y="604.8613">cpu.cpp</text><polygon fill="#181818" points="253.0913,104.5703,263.0913,108.5703,253.0913,112.5703,257.0913,108.5703" style="stroke:#181818;stroke-width:1.0;"/><line style="stroke:#181818;stroke-width:1.0;" x1="55.4033" x2="259.0913" y1="108.5703" y2="108.5703"/><text fill="#000000" font-family="sans-serif" font-size="13" lengthAdjust="spacing" textLength="185.688" x="62.4033" y="103.7139">executeUMULL(cpu, instruction)</text><polygon fill="#181818" points="539.9985,134.9219,549.9985,138.9219,539.9985,142.9219,543.9985,138.9219" style="stroke:#181818;stroke-width:1.0;"/><line style="stroke:#181818;stroke-width:1.0;" x1="265.0913" x2="545.9985" y1="138.9219" y2="138.9219"/><text fill="#000000" font-family="sans-serif" font-size="13" lengthAdjust="spacing" textLength="125.7344" x="272.0913" y="134.0654">checkCondition(cond)</text><line style="stroke:#181818;stroke-width:1.0;" x1="551.9985" x2="593.9985" y1="169.2734" y2="169.2734"/><line style="stroke:#181818;stroke-width:1.0;" x1="593.9985" x2="593.9985" y1="169.2734" y2="182.2734"/><line style="stroke:#181818;stroke-width:1.0;" x1="552.9985" x2="593.9985" y1="182.2734" y2="182.2734"/><polygon fill="#181818" points="562.9985,178.2734,552.9985,182.2734,562.9985,186.2734,558.9985,182.2734" style="stroke:#181818;stroke-width:1.0;"/><text fill="#000000" font-family="sans-serif" font-size="13" lengthAdjust="spacing" textLength="106.2407" x="558.9985" y="164.417">Evaluate condition</text><polygon fill="#181818" points="276.0913,208.625,266.0913,212.625,276.0913,216.625,272.0913,212.625" style="stroke:#181818;stroke-width:1.0;"/><line style="stroke:#181818;stroke-width:1.0;stroke-dasharray:2.0,2.0;" x1="270.0913" x2="550.9985" y1="212.625" y2="212.625"/><text fill="#000000" font-family="sans-serif" font-size="13" lengthAdjust="spacing" textLength="90.3271" x="282.0913" y="207.7686">Condition result</text><path d="M10,227.625 L70.1709,227.625 L70.1709,235.9766 L60.1709,245.9766 L10,245.9766 L10,227.625 " fill="#EEEEEE" style="stroke:#000000;stroke-width:1.5;"/><rect fill="none" height="339.7031" style="stroke:#000000;stroke-width:1.5;" width="593.5156" x="10" y="227.625"/><text fill="#000000" font-family="sans-serif" font-size="13" font-weight="bold" lengthAdjust="spacing" textLength="15.1709" x="25" y="242.1201">alt</text><text fill="#000000" font-family="sans-serif" font-size="11" font-weight="bold" lengthAdjust="spacing" textLength="100.2246" x="85.1709" y="241.0439">[Condition Passed]</text><polygon fill="#181818" points="539.9985,264.3281,549.9985,268.3281,539.9985,272.3281,543.9985,268.3281" style="stroke:#181818;stroke-width:1.0;"/><line style="stroke:#181818;stroke-width:1.0;" x1="265.0913" x2="545.9985" y1="268.3281" y2="268.3281"/><text fill="#000000" font-family="sans-serif" font-size="13" lengthAdjust="spacing" textLength="95.3545" x="272.0913" y="263.4717">getRegister(Rm)</text><polygon fill="#181818" points="276.0913,294.6797,266.0913,298.6797,276.0913,302.6797,272.0913,298.6797" style="stroke:#181818;stroke-width:1.0;"/><line style="stroke:#181818;stroke-width:1.0;stroke-dasharray:2.0,2.0;" x1="270.0913" x2="550.9985" y1="298.6797" y2="298.6797"/><text fill="#000000" font-family="sans-serif" font-size="13" lengthAdjust="spacing" textLength="54.9072" x="282.0913" y="293.8232">Rm value</text><polygon fill="#181818" points="539.9985,325.0313,549.9985,329.0313,539.9985,333.0313,543.9985,329.0313" style="stroke:#181818;stroke-width:1.0;"/><line style="stroke:#181818;stroke-width:1.0;" x1="265.0913" x2="545.9985" y1="329.0313" y2="329.0313"/><text fill="#000000" font-family="sans-serif" font-size="13" lengthAdjust="spacing" textLength="91.0254" x="272.0913" y="324.1748">getRegister(Rs)</text><polygon fill="#181818" points="276.0913,355.3828,266.0913,359.3828,276.0913,363.3828,272.0913,359.3828" style="stroke:#181818;stroke-width:1.0;"/><line style="stroke:#181818;stroke-width:1.0;stroke-dasharray:2.0,2.0;" x1="270.0913" x2="550.9985" y1="359.3828" y2="359.3828"/><text fill="#000000" font-family="sans-serif" font-size="13" lengthAdjust="spacing" textLength="50.5781" x="282.0913" y="354.5264">Rs value</text><polygon fill="#181818" points="539.9985,385.7344,549.9985,389.7344,539.9985,393.7344,543.9985,389.7344" style="stroke:#181818;stroke-width:1.0;"/><line style="stroke:#181818;stroke-width:1.0;" x1="265.0913" x2="545.9985" y1="389.7344" y2="389.7344"/><text fill="#000000" font-family="sans-serif" font-size="13" lengthAdjust="spacing" textLength="262.9072" x="272.0913" y="384.8779">setRegister(RdLo, (Rm * Rs) &amp; 0xFFFFFFFF)</text><polygon fill="#181818" points="539.9985,416.0859,549.9985,420.0859,539.9985,424.0859,543.9985,420.0859" style="stroke:#181818;stroke-width:1.0;"/><line style="stroke:#181818;stroke-width:1.0;" x1="265.0913" x2="545.9985" y1="420.0859" y2="420.0859"/><text fill="#000000" font-family="sans-serif" font-size="13" lengthAdjust="spacing" textLength="204.439" x="272.0913" y="415.2295">setRegister(RdHi, (Rm * Rs) &gt;&gt; 32)</text><path d="M133.3398,435.0859 L193.5107,435.0859 L193.5107,443.4375 L183.5107,453.4375 L133.3398,453.4375 L133.3398,435.0859 " fill="#EEEEEE" style="stroke:#000000;stroke-width:1.5;"/><rect fill="none" height="48.7031" style="stroke:#000000;stroke-width:1.5;" width="460.1758" x="133.3398" y="435.0859"/><text fill="#000000" font-family="sans-serif" font-size="13" font-weight="bold" lengthAdjust="spacing" textLength="15.1709" x="148.3398" y="449.5811">alt</text><text fill="#000000" font-family="sans-serif" font-size="11" font-weight="bold" lengthAdjust="spacing" textLength="62.3423" x="208.5107" y="448.5049">[S bit is set]</text><polygon fill="#181818" points="539.9985,471.7891,549.9985,475.7891,539.9985,479.7891,543.9985,475.7891" style="stroke:#181818;stroke-width:1.0;"/><line style="stroke:#181818;stroke-width:1.0;" x1="265.0913" x2="545.9985" y1="475.7891" y2="475.7891"/><text fill="#000000" font-family="sans-serif" font-size="13" lengthAdjust="spacing" textLength="126.458" x="272.0913" y="470.9326">updateFlags(resultLo)</text><polygon fill="#181818" points="66.4033,509.1406,56.4033,513.1406,66.4033,517.1406,62.4033,513.1406" style="stroke:#181818;stroke-width:1.0;"/><line style="stroke:#181818;stroke-width:1.0;" x1="60.4033" x2="264.0913" y1="513.1406" y2="513.1406"/><text fill="#000000" font-family="sans-serif" font-size="13" lengthAdjust="spacing" textLength="39.019" x="72.4033" y="508.2842">Return</text><line style="stroke:#000000;stroke-width:1.0;stroke-dasharray:2.0,2.0;" x1="10" x2="603.5156" y1="522.1406" y2="522.1406"/><text fill="#000000" font-family="sans-serif" font-size="11" font-weight="bold" lengthAdjust="spacing" textLength="93.4839" x="15" y="533.5596">[Condition Failed]</text><polygon fill="#181818" points="66.4033,555.3281,56.4033,559.3281,66.4033,563.3281,62.4033,559.3281" style="stroke:#181818;stroke-width:1.0;"/><line style="stroke:#181818;stroke-width:1.0;" x1="60.4033" x2="264.0913" y1="559.3281" y2="559.3281"/><text fill="#000000" font-family="sans-serif" font-size="13" lengthAdjust="spacing" textLength="39.019" x="72.4033" y="554.4717">Return</text><!--SRC=[XP51QyCm38Nl_XMYXv6CRepjraEXb8OM4YXPUowU8p8pnmcHFFhpPoTRcdRhwfEZzxudMM7D1c6VxTCKDfQuTOfrRM5rHEN2JOX6jgoLRgHbc5HIsqVLD1EG19d_E9SNUNRGfnWwBFBDRfsjTflbG7MbSqmrRf2NsxqG8HaUvhrt1jXDWzsOaJTFOTGa5fqhs3qx0_MEwcDPsq87DLB-5Wkl38RLfpHECeBwCVNogTz0Gula30jfU5JSIY8i1FXpthf4ph7KnDX6UHLtZelel8BG7c_Hz3TDLsaQqqLQJy6F0FSUYU4Edex9zublicizPkTpU7dkeR25LtZJ39e2qnL_fxccyDjDZ2mfwlUNrdq0sekjXV_iNuNiMYlG48wsd4Xjy5-_J_i2]--></g></svg>